M48
;Layer_Color=9474304
;FILE_FORMAT=4:4
METRIC,LZ
;TYPE=PLATED
T1F00S00C0.6000
T2F00S00C0.6500
T3F00S00C0.8000
T4F00S00C0.8900
T5F00S00C1.0000
T6F00S00C3.0000
%
T01
X00484Y00084
X00516
X00541
X00561
X00462999
X00432
X0041
X00389
X00366753
X00341753
X00316752
X00291752
X00266752
X00246
X00206
X00181
X00164
X00117
X00097
X00129992Y001175
X0008Y00084
X00145Y00169
X00236Y0035
X00324Y00413552
X00385Y00422
X00399365Y0029373
X00498Y0033
X00536Y00424
X00587Y00248
Y00225
T02
X00097313Y00118915
Y00143915
Y00172957
Y00197957
Y00227
Y00252
X00152Y00316437
Y00341437
X00206793
Y00316437
T03
X00305Y00247322
X0037
T04
X00497163Y00036
X00522563
X00547963
Y000614
X00522563
X00497163
X00573363
Y00036
X00471763
X00446363
X00420963
X00395563
Y000614
X00420963
X00446363
X00471763
X00370163
X00344763
Y00036
X00319363
X00293963
Y000614
X00319363
X00268563
X00243163
X00217763
Y00036
X00192363
Y000614
X00166963
X00141563
Y00036
X00116163
X00090763
Y000614
X00116163
X00166963Y00036
X00243163
X00268563
X00370163
T05
X00516Y00129
X00541
X00453835
X00428835
X00366753
X00341753
X00316752
X00291752
X00266752
X0020567
X0018067
X0003Y0013667
Y0011167
Y00198752
Y00223752
Y00285835
Y00310835
Y00372918
Y00397918
X00102083Y00397
X00127083
X00189165
X00214165
X00441413Y00397
Y00372
X00607562Y004
X00632562
X00633Y00327395
X00608
X00634Y00256313
Y00231313
Y00206313
Y00181313
Y00156313
T06
X00622Y00044
X00042
M30
