G04*
G04 #@! TF.GenerationSoftware,Altium Limited,Altium Designer,20.0.11 (256)*
G04*
G04 Layer_Color=255*
%FSLAX44Y44*%
%MOMM*%
G71*
G01*
G75*
%ADD15R,2.5000X1.3000*%
%ADD16R,3.5000X1.6000*%
%ADD17R,1.2500X0.9500*%
%ADD18R,1.2500X0.9500*%
%ADD19R,3.6000X3.2000*%
%ADD20R,0.7500X1.0000*%
%ADD21R,4.5600X3.9550*%
%ADD22R,0.7500X0.5750*%
%ADD23R,0.4950X0.9050*%
%ADD24R,1.5000X1.3000*%
%ADD25R,0.8300X0.6300*%
%ADD26R,2.0300X2.7200*%
%ADD27R,1.5200X0.6000*%
%ADD28R,2.7200X2.0300*%
%ADD29R,0.6000X1.5200*%
%ADD30R,0.9050X0.4950*%
%ADD31R,0.5750X0.7500*%
%ADD32R,3.9550X4.5600*%
%ADD33R,1.0000X0.7500*%
%ADD65O,1.5240X2.0000*%
%ADD66C,1.3080*%
%ADD67O,2.0000X1.5000*%
%ADD68C,1.3980*%
%ADD69R,1.3980X1.3980*%
%ADD70O,2.0000X1.5240*%
D15*
X622000Y102500D02*
D03*
X587000D02*
D03*
D16*
X496000Y208625D02*
D03*
X550000D02*
D03*
D17*
X465000Y226000D02*
D03*
Y241500D02*
D03*
D18*
Y179000D02*
D03*
Y200000D02*
D03*
D19*
X281248Y366000D02*
D03*
Y406000D02*
D03*
X454835Y312925D02*
D03*
Y272925D02*
D03*
D20*
X277650Y330917D02*
D03*
X290350D02*
D03*
X264950D02*
D03*
X303050D02*
D03*
D21*
X284000Y296492D02*
D03*
D22*
X303050Y273842D02*
D03*
X264950D02*
D03*
D23*
X309275Y307492D02*
D03*
X258725D02*
D03*
D24*
X335000Y336437D02*
D03*
Y320437D02*
D03*
X377793Y336437D02*
D03*
Y320437D02*
D03*
X565000Y401585D02*
D03*
Y417585D02*
D03*
Y328000D02*
D03*
Y344000D02*
D03*
D25*
X357000Y338437D02*
D03*
Y316137D02*
D03*
X565000Y383792D02*
D03*
Y361493D02*
D03*
D26*
X363723Y381050D02*
D03*
D27*
X336123Y400104D02*
D03*
Y387404D02*
D03*
Y374704D02*
D03*
Y362004D02*
D03*
X391323Y400104D02*
D03*
Y387404D02*
D03*
Y374704D02*
D03*
Y362004D02*
D03*
D28*
X516654Y378400D02*
D03*
D29*
X497600Y350800D02*
D03*
X510300D02*
D03*
X523000D02*
D03*
X535700D02*
D03*
X497600Y406000D02*
D03*
X510300D02*
D03*
X523000D02*
D03*
X535700D02*
D03*
D30*
X530342Y256112D02*
D03*
Y306663D02*
D03*
D31*
X563993Y262337D02*
D03*
Y300438D02*
D03*
D32*
X541343Y281388D02*
D03*
D33*
X506917Y300438D02*
D03*
Y262337D02*
D03*
Y287738D02*
D03*
Y275037D02*
D03*
D65*
X366753Y129000D02*
D03*
X341753D02*
D03*
X316752D02*
D03*
X291752D02*
D03*
X266752D02*
D03*
X608000Y327395D02*
D03*
X633000D02*
D03*
X607562Y400000D02*
D03*
X632562D02*
D03*
X180670Y129000D02*
D03*
X205670D02*
D03*
X214165Y397000D02*
D03*
X189165D02*
D03*
X127083D02*
D03*
X102083D02*
D03*
X541000Y129000D02*
D03*
X516000D02*
D03*
X453835D02*
D03*
X428835D02*
D03*
D66*
X305000Y247322D02*
D03*
X370000D02*
D03*
D67*
X206793Y316437D02*
D03*
Y341437D02*
D03*
X97313Y172957D02*
D03*
Y197957D02*
D03*
Y118915D02*
D03*
Y143915D02*
D03*
Y252000D02*
D03*
Y227000D02*
D03*
X152000Y341437D02*
D03*
Y316437D02*
D03*
D68*
X141563Y36000D02*
D03*
Y61400D02*
D03*
X547963Y36000D02*
D03*
X395563D02*
D03*
X547963Y61400D02*
D03*
X395563D02*
D03*
X116163Y36000D02*
D03*
Y61400D02*
D03*
X90763D02*
D03*
X217763Y36000D02*
D03*
X192363D02*
D03*
X217763Y61400D02*
D03*
X192363D02*
D03*
X293963Y36000D02*
D03*
X243163D02*
D03*
X293963Y61400D02*
D03*
X243163D02*
D03*
X344763Y36000D02*
D03*
X319363D02*
D03*
X344763Y61400D02*
D03*
X319363D02*
D03*
X446363Y36000D02*
D03*
X420963D02*
D03*
X446363Y61400D02*
D03*
X420963D02*
D03*
X522563Y36000D02*
D03*
X497163D02*
D03*
X522563Y61400D02*
D03*
X497163D02*
D03*
X166963Y36000D02*
D03*
Y61400D02*
D03*
X268563Y36000D02*
D03*
Y61400D02*
D03*
X370163Y36000D02*
D03*
Y61400D02*
D03*
X471763Y36000D02*
D03*
Y61400D02*
D03*
X573363Y36000D02*
D03*
Y61400D02*
D03*
D69*
X90763Y36000D02*
D03*
D70*
X30000Y198752D02*
D03*
Y223752D02*
D03*
Y111670D02*
D03*
Y136670D02*
D03*
Y285835D02*
D03*
Y310835D02*
D03*
Y372918D02*
D03*
Y397918D02*
D03*
X634000Y156313D02*
D03*
Y181313D02*
D03*
Y206313D02*
D03*
Y231313D02*
D03*
Y256313D02*
D03*
X441413Y397000D02*
D03*
Y372000D02*
D03*
M02*
