G04*
G04 #@! TF.GenerationSoftware,Altium Limited,Altium Designer,20.0.11 (256)*
G04*
G04 Layer_Physical_Order=2*
G04 Layer_Color=16711680*
%FSLAX44Y44*%
%MOMM*%
G71*
G01*
G75*
%ADD17R,1.2500X0.9500*%
%ADD24R,1.5000X1.3000*%
%ADD63C,0.4000*%
%ADD64C,0.6000*%
%ADD65O,1.5240X2.0000*%
%ADD66C,1.3080*%
%ADD67O,2.0000X1.5000*%
%ADD68C,1.3980*%
%ADD69R,1.3980X1.3980*%
%ADD70O,2.0000X1.5240*%
%ADD71C,1.0000*%
%ADD72C,1.2000*%
%ADD73C,3.0000*%
%ADD74R,0.9000X0.8000*%
%ADD75R,1.3000X2.5000*%
%ADD76R,0.9500X1.2500*%
%ADD77R,0.9500X1.2500*%
%ADD78R,1.3000X1.5000*%
%ADD79R,1.5000X2.0000*%
%ADD80R,3.8000X2.0000*%
%ADD81R,1.1800X0.5800*%
%ADD82C,0.8000*%
%ADD83C,0.3000*%
G36*
X663000Y0D02*
X0D01*
Y431000D01*
X88565D01*
X88710Y429790D01*
X88710Y429730D01*
Y422270D01*
X103290D01*
Y429730D01*
X103290Y429790D01*
X103435Y431000D01*
X109565D01*
X109710Y429790D01*
X109710Y429730D01*
Y412210D01*
X124290D01*
Y416086D01*
X129228D01*
Y413210D01*
X143458D01*
X143808Y413210D01*
X144751D01*
X146021Y412422D01*
Y406040D01*
X141960D01*
Y402996D01*
X136582D01*
X134859Y407156D01*
X127083Y410377D01*
X119306Y407156D01*
X116085Y399380D01*
Y394620D01*
X119306Y386844D01*
X127083Y383623D01*
X134859Y386844D01*
X136582Y391003D01*
X141960D01*
Y387960D01*
Y382270D01*
X162040D01*
Y387960D01*
Y406040D01*
X158014D01*
Y413210D01*
X159308D01*
Y416003D01*
X189061D01*
X196246Y408819D01*
X195527Y407742D01*
X190435Y409851D01*
Y398270D01*
X200162D01*
Y399380D01*
X197527Y405742D01*
X198604Y406461D01*
X203905Y401160D01*
X203168Y399380D01*
Y394620D01*
X206389Y386844D01*
X208169Y386107D01*
Y382040D01*
X200270D01*
Y372000D01*
Y361960D01*
X209004D01*
Y352605D01*
X208703Y352305D01*
X204293D01*
X196608Y349122D01*
X195909Y347434D01*
X162883D01*
X162184Y349122D01*
X154500Y352305D01*
X149500D01*
X141816Y349122D01*
X141117Y347434D01*
X137040D01*
Y356540D01*
X116960D01*
Y331460D01*
X137040D01*
Y335441D01*
X141117D01*
X141816Y333753D01*
X149500Y330570D01*
X154500D01*
X162184Y333753D01*
X162883Y335441D01*
X195909D01*
X196608Y333753D01*
X204293Y330570D01*
X209293D01*
X216977Y333753D01*
X217676Y335441D01*
X227437D01*
X228948Y336067D01*
X230004Y335361D01*
Y316322D01*
X231760Y312082D01*
X287672Y256170D01*
X287186Y254996D01*
X217730D01*
X216387Y254440D01*
X209290D01*
Y247083D01*
X208117Y246597D01*
X206903Y247811D01*
Y255189D01*
X216622Y264908D01*
X216622Y264908D01*
X217903Y268000D01*
X217903Y268000D01*
Y272523D01*
X222362D01*
Y286752D01*
X222362Y287103D01*
Y288022D01*
X222362Y288372D01*
Y302603D01*
X204782D01*
Y301309D01*
X202320D01*
Y302603D01*
X184740D01*
Y301309D01*
X182277D01*
Y302603D01*
X164697D01*
Y301309D01*
X162235D01*
Y302603D01*
X144655D01*
Y300847D01*
X143538D01*
X139298Y299091D01*
X127204Y286996D01*
X125540D01*
Y293540D01*
X109997D01*
Y331460D01*
X114040D01*
Y356540D01*
X109997D01*
Y359000D01*
X108240Y363240D01*
X101240Y370240D01*
X97000Y371996D01*
X79484D01*
X64694Y386787D01*
X65180Y387960D01*
X69730D01*
Y398000D01*
Y408040D01*
X45960D01*
Y403914D01*
X40893D01*
X40156Y405694D01*
X32380Y408915D01*
X27620D01*
X19844Y405694D01*
X16623Y397918D01*
X19844Y390141D01*
X27620Y386920D01*
X32380D01*
X40156Y390141D01*
X40893Y391921D01*
X45960D01*
Y387960D01*
X50160D01*
Y386843D01*
X51917Y382603D01*
X72760Y361760D01*
X77000Y360004D01*
X94516D01*
X96806Y357713D01*
X96320Y356540D01*
X93960D01*
Y331460D01*
X98004D01*
Y293540D01*
X82460D01*
Y292680D01*
X81287Y292194D01*
X64040Y309440D01*
Y316960D01*
Y324730D01*
X43960D01*
Y316831D01*
X40893D01*
X40156Y318611D01*
X32380Y321832D01*
X27620D01*
X19844Y318611D01*
X16623Y310835D01*
X19844Y303059D01*
X27620Y299838D01*
X32380D01*
X40156Y303059D01*
X40893Y304839D01*
X43960D01*
Y300960D01*
X55560D01*
X78760Y277760D01*
X82460Y276227D01*
Y268460D01*
X91316D01*
Y261419D01*
X87128Y259684D01*
X86429Y257996D01*
X74082D01*
Y260790D01*
X59853D01*
X59503Y260790D01*
X58583D01*
X58232Y260790D01*
X44002D01*
Y256914D01*
X39290D01*
Y260790D01*
X24710D01*
Y243210D01*
X39290D01*
Y247086D01*
X44002D01*
Y243210D01*
X58232D01*
X58583Y243210D01*
X59503D01*
X59853Y243210D01*
X74082D01*
Y246003D01*
X86429D01*
X87128Y244316D01*
X94812Y241133D01*
X99813D01*
X107497Y244316D01*
X110680Y252000D01*
X107497Y259684D01*
X103309Y261419D01*
Y268460D01*
X125540D01*
Y275004D01*
X129688D01*
X133928Y276760D01*
X143385Y286217D01*
X144655Y285691D01*
Y272523D01*
X150177D01*
X151350Y272320D01*
X152631Y269228D01*
X163530Y258329D01*
X163530Y258329D01*
X163530Y258329D01*
X166246Y255613D01*
X165760Y254440D01*
X156090D01*
Y253914D01*
X150000D01*
X146525Y252475D01*
X101978Y207928D01*
X99813Y208825D01*
X94812D01*
X87128Y205642D01*
X85981Y202871D01*
X60210D01*
X42192Y220890D01*
X43377Y223752D01*
X40156Y231528D01*
X32380Y234750D01*
X27620D01*
X19844Y231528D01*
X16623Y223752D01*
X19844Y215976D01*
X27620Y212755D01*
X32380D01*
X35242Y213941D01*
X54700Y194483D01*
X58175Y193043D01*
X85981D01*
X87128Y190273D01*
X94812Y187090D01*
X99813D01*
X107497Y190273D01*
X110680Y197957D01*
X109282Y201332D01*
X110913Y202963D01*
X112086Y202477D01*
Y191035D01*
X103392Y182342D01*
X99813Y183825D01*
X94812D01*
X87128Y180642D01*
X85981Y177871D01*
X60210D01*
X42192Y195890D01*
X43377Y198752D01*
X40156Y206528D01*
X32380Y209750D01*
X27620D01*
X19844Y206528D01*
X16623Y198752D01*
X19844Y190976D01*
X27620Y187755D01*
X32380D01*
X35242Y188941D01*
X54700Y169483D01*
X58175Y168043D01*
X85981D01*
X87128Y165273D01*
X94812Y162090D01*
X99813D01*
X107497Y165273D01*
X110680Y172957D01*
X109868Y174918D01*
X117913Y182963D01*
X119086Y182477D01*
Y172638D01*
X100815Y154367D01*
X99813Y154782D01*
X94812D01*
X87128Y151599D01*
X85981Y148829D01*
X42667D01*
X39192Y147390D01*
X37393Y145591D01*
X32380Y147667D01*
X27620D01*
X19844Y144446D01*
X16623Y136670D01*
X19844Y128894D01*
X27620Y125673D01*
X32380D01*
X40156Y128894D01*
X43377Y136670D01*
X43082Y137381D01*
X44702Y139001D01*
X85981D01*
X87128Y136231D01*
X94812Y133048D01*
X99813D01*
X104741Y135089D01*
X105461Y134012D01*
X100815Y129367D01*
X99813Y129782D01*
X94812D01*
X87128Y126599D01*
X85981Y123829D01*
X42667D01*
X39192Y122390D01*
X37393Y120591D01*
X32380Y122667D01*
X27620D01*
X19844Y119446D01*
X16623Y111670D01*
X19844Y103894D01*
X27620Y100673D01*
X32380D01*
X40156Y103894D01*
X43377Y111670D01*
X43082Y112381D01*
X44702Y114001D01*
X85981D01*
X87128Y111231D01*
X94812Y108048D01*
X99813D01*
X107497Y111231D01*
X110680Y118915D01*
X108800Y123453D01*
X134475Y149128D01*
X134475Y149128D01*
X135914Y152602D01*
X135914Y152602D01*
Y167914D01*
X137184Y168166D01*
X139229Y163229D01*
X143730Y161365D01*
Y169000D01*
Y176635D01*
X139229Y174771D01*
X137184Y169834D01*
X135914Y170086D01*
Y196964D01*
X153035Y214086D01*
X156090D01*
Y210270D01*
X172970D01*
Y213560D01*
Y223560D01*
Y233560D01*
Y247230D01*
X174143Y247716D01*
X175157Y246702D01*
Y233165D01*
X175157Y233165D01*
X176438Y230073D01*
X194960Y211551D01*
X177749Y194340D01*
X177476Y194227D01*
X167740D01*
Y194228D01*
X166820D01*
Y194227D01*
X152240D01*
Y176647D01*
X154086D01*
Y170086D01*
X152816Y169834D01*
X150771Y174771D01*
X146270Y176635D01*
Y169000D01*
Y161365D01*
X150771Y163229D01*
X152816Y168166D01*
X154086Y167914D01*
Y162036D01*
X115985Y123935D01*
X114546Y120460D01*
Y108496D01*
X97857Y91806D01*
X97000Y92161D01*
X91229Y89771D01*
X89187Y84841D01*
X87813D01*
X85771Y89771D01*
X81270Y91635D01*
Y84000D01*
Y76365D01*
X85771Y78229D01*
X87813Y83159D01*
X89187D01*
X91229Y78229D01*
X97000Y75839D01*
X102771Y78229D01*
X105161Y84000D01*
X104806Y84857D01*
X109949Y90000D01*
X111026Y89280D01*
X108839Y84000D01*
X111229Y78229D01*
X117000Y75839D01*
X122771Y78229D01*
X125161Y84000D01*
X124806Y84857D01*
X157475Y117525D01*
X157816Y118349D01*
X159086Y118096D01*
Y90126D01*
X158229Y89771D01*
X155839Y84000D01*
X158229Y78229D01*
X164000Y75839D01*
X169771Y78229D01*
X171813Y83159D01*
X173187D01*
X175229Y78229D01*
X181000Y75839D01*
X186771Y78229D01*
X189161Y84000D01*
X186771Y89771D01*
X185749Y90194D01*
Y117727D01*
X188446Y118844D01*
X191667Y126620D01*
Y131380D01*
X188446Y139156D01*
X181166Y142172D01*
X180749Y143550D01*
X182284Y145086D01*
X228000D01*
X231475Y146525D01*
X269047Y184098D01*
X270487Y187572D01*
Y188710D01*
X274362D01*
Y203290D01*
X274363D01*
Y204210D01*
X274362D01*
Y218790D01*
X262967D01*
X240023Y241733D01*
X240530Y243004D01*
X296961D01*
X298050Y240373D01*
X305000Y237494D01*
X311950Y240373D01*
X314828Y247322D01*
X311950Y254272D01*
X305000Y257150D01*
X304047Y256756D01*
X241996Y318806D01*
Y343240D01*
X242536Y343464D01*
X245244Y350000D01*
X242536Y356536D01*
X236000Y359244D01*
X229464Y356536D01*
X226756Y350000D01*
X226980Y349460D01*
X224954Y347434D01*
X221026D01*
X220321Y348490D01*
X220996Y350121D01*
Y361960D01*
X224040D01*
Y382040D01*
X220161D01*
Y386107D01*
X221941Y386844D01*
X225162Y394620D01*
Y399380D01*
X221941Y407156D01*
X214165Y410377D01*
X212385Y409640D01*
X195785Y426240D01*
X191545Y427996D01*
X160206D01*
X159308Y428894D01*
X159308Y430790D01*
X160491Y431000D01*
X381157D01*
X381405Y429754D01*
X378464Y428536D01*
X377951Y427297D01*
X376705Y427545D01*
Y428290D01*
X359125D01*
Y425914D01*
X356662D01*
Y428290D01*
X339082D01*
Y424160D01*
X333389Y418466D01*
X330126D01*
X329771Y419323D01*
X324000Y421713D01*
X318229Y419323D01*
X315839Y413552D01*
X318229Y407781D01*
X324000Y405391D01*
X329771Y407781D01*
X330126Y408638D01*
X335424D01*
X337812Y409627D01*
X339082Y408778D01*
Y406770D01*
X356662D01*
Y412790D01*
X356662Y412790D01*
Y413710D01*
X356662D01*
X356662Y414060D01*
Y416086D01*
X359125D01*
Y413710D01*
X359125D01*
Y412790D01*
X359125D01*
Y398210D01*
X376705D01*
Y398421D01*
X384958D01*
X389963Y400494D01*
X392036Y405500D01*
Y414132D01*
X393306Y414369D01*
X394210Y413710D01*
Y412790D01*
X394210D01*
Y398210D01*
X403595D01*
X403775Y397775D01*
X404086Y397464D01*
Y394082D01*
X401710D01*
Y376502D01*
X410479D01*
X411157Y375233D01*
X411055Y375079D01*
X405996D01*
X404695Y374540D01*
X394456D01*
Y366579D01*
X356536D01*
Y374540D01*
X338456D01*
Y344460D01*
X356536D01*
Y352421D01*
X394456D01*
Y344460D01*
X412536D01*
Y360921D01*
X415007D01*
X420013Y362994D01*
X427515Y370497D01*
X428761Y370249D01*
X431256Y364224D01*
X439033Y361003D01*
X440143D01*
Y372000D01*
X441413D01*
Y373270D01*
X454264D01*
X451569Y379776D01*
X443793Y382997D01*
X441675D01*
X441189Y384170D01*
X442653Y385634D01*
X442805Y386003D01*
X443793D01*
X451569Y389224D01*
X451858Y389921D01*
X456752D01*
Y385960D01*
X458276D01*
Y383040D01*
X456315D01*
Y362960D01*
X457921D01*
Y359790D01*
X457710D01*
Y342210D01*
X471940D01*
X472290Y342210D01*
X473210D01*
X473560Y342210D01*
X475586D01*
Y338790D01*
X473560D01*
X473210Y338790D01*
X472290D01*
X471940Y338790D01*
X466270D01*
Y330000D01*
Y321210D01*
X471940D01*
X472290Y321210D01*
X473210D01*
X473560Y321210D01*
X487790D01*
Y325086D01*
X491874D01*
X492229Y324229D01*
X498000Y321839D01*
X503771Y324229D01*
X506161Y330000D01*
X503771Y335771D01*
X498000Y338161D01*
X492229Y335771D01*
X491874Y334914D01*
X487790D01*
Y338790D01*
X485414D01*
Y342210D01*
X487790D01*
Y359790D01*
X473560D01*
X473210Y359790D01*
X472079Y360125D01*
Y362960D01*
X480085D01*
Y373000D01*
Y383040D01*
X472434D01*
Y385960D01*
X480522D01*
Y396000D01*
Y406040D01*
X473079D01*
Y411068D01*
X478932Y416921D01*
X530774D01*
X536000Y414756D01*
X542536Y417464D01*
X545244Y424000D01*
X542870Y429730D01*
X543719Y431000D01*
X663000D01*
Y0D01*
D02*
G37*
G36*
X472744Y429730D02*
X470994Y429006D01*
X460994Y419006D01*
X458921Y414000D01*
Y406040D01*
X456752D01*
Y404079D01*
X451858D01*
X451569Y404776D01*
X443793Y407997D01*
X439033D01*
X438489Y407772D01*
X420256Y426005D01*
X415250Y428079D01*
X411790D01*
Y428290D01*
X403197D01*
X402500Y428579D01*
X391433D01*
X388595Y429754D01*
X388843Y431000D01*
X472491D01*
X472744Y429730D01*
D02*
G37*
G36*
X412905Y413335D02*
X428388Y397851D01*
X428036Y397000D01*
X429781Y392785D01*
X417463Y380467D01*
X416290Y380953D01*
Y394082D01*
X413914D01*
Y399500D01*
X412475Y402975D01*
X411790Y403660D01*
Y412649D01*
X412757Y413384D01*
X412905Y413335D01*
D02*
G37*
G36*
X184740Y288418D02*
X184740Y287103D01*
X184740Y286752D01*
Y272523D01*
X189157D01*
Y257216D01*
X187984Y256730D01*
X177860Y266854D01*
Y272523D01*
X182277D01*
Y286752D01*
X182277Y287103D01*
Y288046D01*
X182770Y288839D01*
X184196Y288961D01*
X184740Y288418D01*
D02*
G37*
G36*
X209290Y203560D02*
X225157D01*
Y195749D01*
X223636Y194227D01*
X215240D01*
Y194228D01*
X214320D01*
Y194227D01*
X199740D01*
Y190352D01*
X196437D01*
X196437Y190352D01*
X192963Y188912D01*
X183493Y179443D01*
X182320Y179929D01*
Y186867D01*
X182872Y187095D01*
X200404Y204627D01*
X203695D01*
X203695Y204627D01*
X203695Y204627D01*
X209290D01*
Y203560D01*
D02*
G37*
G36*
X236740Y214106D02*
Y204210D01*
X236740D01*
Y203290D01*
X236740D01*
Y188710D01*
X240616D01*
Y183565D01*
X222964Y165914D01*
X185523D01*
X185037Y167087D01*
X198470Y180520D01*
X199740Y180516D01*
Y176647D01*
X214320D01*
Y176647D01*
X215240D01*
Y176647D01*
X229820D01*
Y188043D01*
X232622Y190845D01*
X232622Y190845D01*
X233903Y193937D01*
X233903Y193937D01*
Y213657D01*
X233903Y213657D01*
X232849Y216201D01*
X233926Y216920D01*
X236740Y214106D01*
D02*
G37*
G36*
X126086Y164079D02*
Y154638D01*
X109715Y138267D01*
X108638Y138986D01*
X110680Y143915D01*
X108800Y148453D01*
X124913Y164565D01*
X126086Y164079D01*
D02*
G37*
G36*
X149086Y129477D02*
Y123035D01*
X117857Y91806D01*
X117000Y92161D01*
X111720Y89974D01*
X111000Y91051D01*
X122935Y102985D01*
X124374Y106460D01*
Y110523D01*
X125430Y111228D01*
X129992Y109339D01*
X135762Y111729D01*
X138153Y117500D01*
X137361Y119411D01*
X147913Y129963D01*
X149086Y129477D01*
D02*
G37*
G36*
X172894Y118844D02*
X175921Y117590D01*
Y90057D01*
X175229Y89771D01*
X173187Y84841D01*
X171813D01*
X169771Y89771D01*
X168914Y90126D01*
Y125133D01*
X170184Y125386D01*
X172894Y118844D01*
D02*
G37*
%LPC*%
G36*
X103290Y419730D02*
X97270D01*
Y412210D01*
X103290D01*
Y419730D01*
D02*
G37*
G36*
X94730D02*
X88710D01*
Y412210D01*
X94730D01*
Y419730D01*
D02*
G37*
G36*
X608833Y412851D02*
Y401270D01*
X618560D01*
Y402380D01*
X615339Y410156D01*
X608833Y412851D01*
D02*
G37*
G36*
X633832Y412851D02*
Y401270D01*
X643560D01*
Y402380D01*
X640339Y410156D01*
X633832Y412851D01*
D02*
G37*
G36*
X631292Y412851D02*
X624786Y410156D01*
X621565Y402380D01*
Y401270D01*
X631292D01*
Y412851D01*
D02*
G37*
G36*
X606293Y412851D02*
X599786Y410156D01*
X596565Y402380D01*
Y401270D01*
X606293D01*
Y412851D01*
D02*
G37*
G36*
X80040Y408040D02*
X72270D01*
Y399270D01*
X80040D01*
Y408040D01*
D02*
G37*
G36*
X103352Y409851D02*
Y398270D01*
X113080D01*
Y399380D01*
X109859Y407156D01*
X103352Y409851D01*
D02*
G37*
G36*
X187895Y409851D02*
X181389Y407156D01*
X178168Y399380D01*
Y398270D01*
X187895D01*
Y409851D01*
D02*
G37*
G36*
X100813Y409851D02*
X94306Y407156D01*
X91085Y399380D01*
Y398270D01*
X100813D01*
Y409851D01*
D02*
G37*
G36*
X356662Y404230D02*
X349142D01*
Y398210D01*
X356662D01*
Y404230D01*
D02*
G37*
G36*
X346602D02*
X339082D01*
Y398210D01*
X346602D01*
Y404230D01*
D02*
G37*
G36*
X490832Y406040D02*
X483063D01*
Y397270D01*
X490832D01*
Y406040D01*
D02*
G37*
G36*
X80040Y396730D02*
X72270D01*
Y387960D01*
X80040D01*
Y396730D01*
D02*
G37*
G36*
X618560Y398730D02*
X608833D01*
Y387149D01*
X615339Y389844D01*
X618560Y397620D01*
Y398730D01*
D02*
G37*
G36*
X631292D02*
X621565D01*
Y397620D01*
X624786Y389844D01*
X631292Y387149D01*
Y398730D01*
D02*
G37*
G36*
X643560D02*
X633832D01*
Y387149D01*
X640339Y389844D01*
X643560Y397620D01*
Y398730D01*
D02*
G37*
G36*
X606293D02*
X596565D01*
Y397620D01*
X599786Y389844D01*
X606293Y387149D01*
Y398730D01*
D02*
G37*
G36*
X395290Y394082D02*
X389270D01*
Y386562D01*
X395290D01*
Y394082D01*
D02*
G37*
G36*
X386730D02*
X380710D01*
Y386562D01*
X386730D01*
Y394082D01*
D02*
G37*
G36*
X490832Y394730D02*
X483063D01*
Y385960D01*
X490832D01*
Y394730D01*
D02*
G37*
G36*
X187895Y395730D02*
X178168D01*
Y394620D01*
X181389Y386844D01*
X187895Y384149D01*
Y395730D01*
D02*
G37*
G36*
X113080D02*
X103352D01*
Y384149D01*
X109859Y386844D01*
X113080Y394620D01*
Y395730D01*
D02*
G37*
G36*
X100813D02*
X91085D01*
Y394620D01*
X94306Y386844D01*
X100813Y384149D01*
Y395730D01*
D02*
G37*
G36*
X200162D02*
X190435D01*
Y384149D01*
X196941Y386844D01*
X200162Y394620D01*
Y395730D01*
D02*
G37*
G36*
X395290Y384022D02*
X389270D01*
Y376502D01*
X395290D01*
Y384022D01*
D02*
G37*
G36*
X386730D02*
X380710D01*
Y376502D01*
X386730D01*
Y384022D01*
D02*
G37*
G36*
X490395Y383040D02*
X482625D01*
Y374270D01*
X490395D01*
Y383040D01*
D02*
G37*
G36*
X32380Y383915D02*
X31270D01*
Y374188D01*
X42851D01*
X40156Y380694D01*
X32380Y383915D01*
D02*
G37*
G36*
X28730D02*
X27620D01*
X19844Y380694D01*
X17149Y374188D01*
X28730D01*
Y383915D01*
D02*
G37*
G36*
X197730Y382040D02*
X189960D01*
Y373270D01*
X197730D01*
Y382040D01*
D02*
G37*
G36*
X162040Y379730D02*
X153270D01*
Y371960D01*
X162040D01*
Y379730D01*
D02*
G37*
G36*
X150730D02*
X141960D01*
Y371960D01*
X150730D01*
Y379730D01*
D02*
G37*
G36*
X490395Y371730D02*
X482625D01*
Y362960D01*
X490395D01*
Y371730D01*
D02*
G37*
G36*
X197730Y370730D02*
X189960D01*
Y361960D01*
X197730D01*
Y370730D01*
D02*
G37*
G36*
X42851Y371647D02*
X31270D01*
Y361920D01*
X32380D01*
X40156Y365141D01*
X42851Y371647D01*
D02*
G37*
G36*
X28730D02*
X17149D01*
X19844Y365141D01*
X27620Y361920D01*
X28730D01*
Y371647D01*
D02*
G37*
G36*
X454264Y370730D02*
X442683D01*
Y361003D01*
X443793D01*
X451569Y364224D01*
X454264Y370730D01*
D02*
G37*
G36*
X91040Y356540D02*
X82270D01*
Y345270D01*
X91040D01*
Y356540D01*
D02*
G37*
G36*
X79730D02*
X70960D01*
Y345270D01*
X79730D01*
Y356540D01*
D02*
G37*
G36*
X91040Y342730D02*
X82270D01*
Y331460D01*
X91040D01*
Y342730D01*
D02*
G37*
G36*
X79730D02*
X70960D01*
Y331460D01*
X79730D01*
Y342730D01*
D02*
G37*
G36*
X463730Y338790D02*
X457710D01*
Y331270D01*
X463730D01*
Y338790D01*
D02*
G37*
G36*
X609270Y340246D02*
Y328665D01*
X618997D01*
Y329775D01*
X615776Y337551D01*
X609270Y340246D01*
D02*
G37*
G36*
X634270Y340246D02*
Y328665D01*
X643997D01*
Y329775D01*
X640776Y337551D01*
X634270Y340246D01*
D02*
G37*
G36*
X631730Y340246D02*
X625224Y337551D01*
X622003Y329775D01*
Y328665D01*
X631730D01*
Y340246D01*
D02*
G37*
G36*
X606730Y340246D02*
X600224Y337551D01*
X597003Y329775D01*
Y328665D01*
X606730D01*
Y340246D01*
D02*
G37*
G36*
X64040Y335040D02*
X55270D01*
Y327270D01*
X64040D01*
Y335040D01*
D02*
G37*
G36*
X52730D02*
X43960D01*
Y327270D01*
X52730D01*
Y335040D01*
D02*
G37*
G36*
X412536Y339540D02*
X404766D01*
Y325770D01*
X412536D01*
Y339540D01*
D02*
G37*
G36*
X356536D02*
X348766D01*
Y325770D01*
X356536D01*
Y339540D01*
D02*
G37*
G36*
X402226D02*
X394456D01*
Y325770D01*
X402226D01*
Y339540D01*
D02*
G37*
G36*
X346226D02*
X338456D01*
Y325770D01*
X346226D01*
Y339540D01*
D02*
G37*
G36*
X463730Y328730D02*
X457710D01*
Y321210D01*
X463730D01*
Y328730D01*
D02*
G37*
G36*
X209293Y327305D02*
X208063D01*
Y317708D01*
X219634D01*
X216977Y324122D01*
X209293Y327305D01*
D02*
G37*
G36*
X205523D02*
X204293D01*
X196608Y324122D01*
X193951Y317708D01*
X205523D01*
Y327305D01*
D02*
G37*
G36*
X154500D02*
X153270D01*
Y317708D01*
X164841D01*
X162184Y324122D01*
X154500Y327305D01*
D02*
G37*
G36*
X150730D02*
X149500D01*
X141816Y324122D01*
X139159Y317708D01*
X150730D01*
Y327305D01*
D02*
G37*
G36*
X206793Y316437D02*
D01*
D01*
D01*
D02*
G37*
G36*
X631730Y326125D02*
X622003D01*
Y325015D01*
X625224Y317239D01*
X631730Y314544D01*
Y326125D01*
D02*
G37*
G36*
X618997D02*
X609270D01*
Y314544D01*
X615776Y317239D01*
X618997Y325015D01*
Y326125D01*
D02*
G37*
G36*
X606730D02*
X597003D01*
Y325015D01*
X600224Y317239D01*
X606730Y314544D01*
Y326125D01*
D02*
G37*
G36*
X643997D02*
X634270D01*
Y314544D01*
X640776Y317239D01*
X643997Y325015D01*
Y326125D01*
D02*
G37*
G36*
X412536Y323230D02*
X404766D01*
Y309460D01*
X412536D01*
Y323230D01*
D02*
G37*
G36*
X402226D02*
X394456D01*
Y309460D01*
X402226D01*
Y323230D01*
D02*
G37*
G36*
X356536D02*
X348766D01*
Y309460D01*
X356536D01*
Y323230D01*
D02*
G37*
G36*
X346226D02*
X338456D01*
Y309460D01*
X346226D01*
Y323230D01*
D02*
G37*
G36*
X219634Y315168D02*
X208063D01*
Y305570D01*
X209293D01*
X216977Y308753D01*
X219634Y315168D01*
D02*
G37*
G36*
X205523D02*
X193951D01*
X196608Y308753D01*
X204293Y305570D01*
X205523D01*
Y315168D01*
D02*
G37*
G36*
X164841Y315168D02*
X153270D01*
Y305570D01*
X154500D01*
X162184Y308753D01*
X164841Y315168D01*
D02*
G37*
G36*
X150730D02*
X139159D01*
X141816Y308753D01*
X149500Y305570D01*
X150730D01*
Y315168D01*
D02*
G37*
G36*
X400635Y301365D02*
Y295000D01*
X407000D01*
X405136Y299501D01*
X400635Y301365D01*
D02*
G37*
G36*
X398095D02*
X393594Y299501D01*
X391730Y295000D01*
X398095D01*
Y301365D01*
D02*
G37*
G36*
X32380Y296832D02*
X31270D01*
Y287105D01*
X42851D01*
X40156Y293611D01*
X32380Y296832D01*
D02*
G37*
G36*
X28730D02*
X27620D01*
X19844Y293611D01*
X17149Y287105D01*
X28730D01*
Y296832D01*
D02*
G37*
G36*
X407000Y292460D02*
X400635D01*
Y286095D01*
X405136Y287959D01*
X407000Y292460D01*
D02*
G37*
G36*
X398095D02*
X391730D01*
X393594Y287959D01*
X398095Y286095D01*
Y292460D01*
D02*
G37*
G36*
X42851Y284565D02*
X31270D01*
Y274838D01*
X32380D01*
X40156Y278059D01*
X42851Y284565D01*
D02*
G37*
G36*
X28730D02*
X17149D01*
X19844Y278059D01*
X27620Y274838D01*
X28730D01*
Y284565D01*
D02*
G37*
G36*
X636380Y267310D02*
X635270D01*
Y257582D01*
X646851D01*
X644156Y264089D01*
X636380Y267310D01*
D02*
G37*
G36*
X632730D02*
X631620D01*
X623844Y264089D01*
X621149Y257582D01*
X632730D01*
Y267310D01*
D02*
G37*
G36*
X18290Y260790D02*
X12270D01*
Y253270D01*
X18290D01*
Y260790D01*
D02*
G37*
G36*
X9730D02*
X3710D01*
Y253270D01*
X9730D01*
Y260790D01*
D02*
G37*
G36*
X588270Y256717D02*
Y249270D01*
X595718D01*
X593536Y254536D01*
X588270Y256717D01*
D02*
G37*
G36*
X585730D02*
X580464Y254536D01*
X578282Y249270D01*
X585730D01*
Y256717D01*
D02*
G37*
G36*
X646851Y255042D02*
X635270D01*
Y245315D01*
X636380D01*
X644156Y248536D01*
X646851Y255042D01*
D02*
G37*
G36*
X632730D02*
X621149D01*
X623844Y248536D01*
X631620Y245315D01*
X632730D01*
Y255042D01*
D02*
G37*
G36*
X18290Y250730D02*
X12270D01*
Y243210D01*
X18290D01*
Y250730D01*
D02*
G37*
G36*
X9730D02*
X3710D01*
Y243210D01*
X9730D01*
Y250730D01*
D02*
G37*
G36*
X595718Y246730D02*
X588270D01*
Y239282D01*
X593536Y241464D01*
X595718Y246730D01*
D02*
G37*
G36*
X585730D02*
X578282D01*
X580464Y241464D01*
X585730Y239282D01*
Y246730D01*
D02*
G37*
G36*
X99813Y237867D02*
X98582D01*
Y228270D01*
X110154D01*
X107497Y234684D01*
X99813Y237867D01*
D02*
G37*
G36*
X96042D02*
X94812D01*
X87128Y234684D01*
X84471Y228270D01*
X96042D01*
Y237867D01*
D02*
G37*
G36*
X588270Y233718D02*
Y226270D01*
X595718D01*
X593536Y231536D01*
X588270Y233718D01*
D02*
G37*
G36*
X585730D02*
X580464Y231536D01*
X578282Y226270D01*
X585730D01*
Y233718D01*
D02*
G37*
G36*
X636380Y242310D02*
X631620D01*
X623844Y239089D01*
X620623Y231313D01*
X622505Y226768D01*
X572652Y176914D01*
X423000D01*
X419525Y175475D01*
X385525Y141475D01*
X384086Y138000D01*
Y90126D01*
X383229Y89771D01*
X380839Y84000D01*
X383229Y78229D01*
X389000Y75839D01*
X394771Y78229D01*
X397161Y84000D01*
X394771Y89771D01*
X393914Y90126D01*
Y92096D01*
X395184Y92349D01*
X395525Y91525D01*
X402194Y84857D01*
X401839Y84000D01*
X404229Y78229D01*
X410000Y75839D01*
X415771Y78229D01*
X418161Y84000D01*
X415771Y89771D01*
X410000Y92161D01*
X409143Y91806D01*
X403914Y97036D01*
Y104096D01*
X405184Y104349D01*
X405525Y103525D01*
X424194Y84857D01*
X423839Y84000D01*
X426229Y78229D01*
X432000Y75839D01*
X437771Y78229D01*
X440161Y84000D01*
X437771Y89771D01*
X432000Y92161D01*
X431143Y91806D01*
X413914Y109036D01*
Y137467D01*
X428533Y152086D01*
X609688D01*
X613162Y153525D01*
X621581Y161944D01*
X622657Y161224D01*
X620623Y156313D01*
X622056Y152852D01*
X561258Y92054D01*
X561000Y92161D01*
X555229Y89771D01*
X552839Y84000D01*
X555229Y78229D01*
X561000Y75839D01*
X566771Y78229D01*
X569161Y84000D01*
X568559Y85455D01*
X629356Y146253D01*
X631620Y145315D01*
X636380D01*
X644156Y148536D01*
X647377Y156313D01*
X644156Y164089D01*
X636380Y167310D01*
X631620D01*
X626708Y165275D01*
X625989Y166352D01*
X630441Y170804D01*
X631620Y170315D01*
X636380D01*
X644156Y173536D01*
X647377Y181313D01*
X644156Y189089D01*
X636380Y192310D01*
X632055D01*
X631465Y193515D01*
X633265Y195315D01*
X636380D01*
X644156Y198536D01*
X647377Y206313D01*
X644156Y214089D01*
X636380Y217310D01*
X631620D01*
X626708Y215275D01*
X625989Y216352D01*
X630441Y220804D01*
X631620Y220315D01*
X636380D01*
X644156Y223536D01*
X647377Y231313D01*
X644156Y239089D01*
X636380Y242310D01*
D02*
G37*
G36*
X595718Y223730D02*
X588270D01*
Y216282D01*
X593536Y218464D01*
X595718Y223730D01*
D02*
G37*
G36*
X585730D02*
X578282D01*
X580464Y218464D01*
X585730Y216282D01*
Y223730D01*
D02*
G37*
G36*
X110154Y225730D02*
X98582D01*
Y216133D01*
X99813D01*
X107497Y219316D01*
X110154Y225730D01*
D02*
G37*
G36*
X96042D02*
X84471D01*
X87128Y219316D01*
X94812Y216133D01*
X96042D01*
Y225730D01*
D02*
G37*
G36*
X172970Y207730D02*
X165800D01*
Y203560D01*
X172970D01*
Y207730D01*
D02*
G37*
G36*
X163260D02*
X156090D01*
Y203560D01*
X163260D01*
Y207730D01*
D02*
G37*
G36*
X333498Y183290D02*
X325978D01*
Y177270D01*
X333498D01*
Y183290D01*
D02*
G37*
G36*
X323438D02*
X315917D01*
Y177270D01*
X323438D01*
Y183290D01*
D02*
G37*
G36*
X354040Y179685D02*
X348270D01*
Y174415D01*
X354040D01*
Y179685D01*
D02*
G37*
G36*
X345730D02*
X339960D01*
Y174415D01*
X345730D01*
Y179685D01*
D02*
G37*
G36*
X354040Y171875D02*
X348270D01*
Y166605D01*
X354040D01*
Y171875D01*
D02*
G37*
G36*
X345730D02*
X339960D01*
Y166605D01*
X345730D01*
Y171875D01*
D02*
G37*
G36*
X370000Y257150D02*
X363050Y254272D01*
X360172Y247322D01*
X362259Y242283D01*
X362086Y241865D01*
Y170185D01*
X359960D01*
Y157105D01*
X374040D01*
Y170185D01*
X371914D01*
Y238287D01*
X376950Y240373D01*
X379828Y247322D01*
X376950Y254272D01*
X370000Y257150D01*
D02*
G37*
G36*
X313455Y183435D02*
X295875D01*
Y180914D01*
X273000D01*
X269525Y179475D01*
X242525Y152475D01*
X241086Y149000D01*
Y90126D01*
X240229Y89771D01*
X237839Y84000D01*
X240229Y78229D01*
X246000Y75839D01*
X251771Y78229D01*
X254161Y84000D01*
X251771Y89771D01*
X250914Y90126D01*
Y146965D01*
X275035Y171086D01*
X295875D01*
Y169205D01*
X295875Y168855D01*
Y167935D01*
X295875Y167585D01*
Y153355D01*
X313455D01*
Y155658D01*
X315917D01*
Y153210D01*
X326548D01*
X329088Y150670D01*
X332563Y149231D01*
X339960D01*
Y147605D01*
X354040D01*
Y160685D01*
X339960D01*
Y159059D01*
X334598D01*
X333498Y160159D01*
Y167440D01*
X333498Y167790D01*
Y168710D01*
X333498Y169060D01*
Y174730D01*
X324707D01*
X315917D01*
Y169060D01*
X315917Y168710D01*
Y167790D01*
X315917Y167440D01*
Y165487D01*
X313455D01*
Y167585D01*
X313455Y167935D01*
Y168855D01*
X313455Y169205D01*
Y183435D01*
D02*
G37*
G36*
X78730Y91635D02*
X74229Y89771D01*
X72365Y85270D01*
X78730D01*
Y91635D01*
D02*
G37*
G36*
Y82730D02*
X72365D01*
X74229Y78229D01*
X78730Y76365D01*
Y82730D01*
D02*
G37*
G36*
X541000Y142377D02*
X533224Y139156D01*
X530003Y131380D01*
Y126620D01*
X533224Y118844D01*
X536086Y117658D01*
Y90126D01*
X535229Y89771D01*
X532839Y84000D01*
X535229Y78229D01*
X541000Y75839D01*
X546771Y78229D01*
X549161Y84000D01*
X546771Y89771D01*
X545914Y90126D01*
Y117658D01*
X548776Y118844D01*
X551997Y126620D01*
Y131380D01*
X548776Y139156D01*
X541000Y142377D01*
D02*
G37*
G36*
X516000D02*
X508224Y139156D01*
X505003Y131380D01*
Y126620D01*
X508224Y118844D01*
X511086Y117658D01*
Y90126D01*
X510229Y89771D01*
X507839Y84000D01*
X510229Y78229D01*
X516000Y75839D01*
X521771Y78229D01*
X524161Y84000D01*
X521771Y89771D01*
X520914Y90126D01*
Y117658D01*
X523776Y118844D01*
X526997Y126620D01*
Y131380D01*
X523776Y139156D01*
X516000Y142377D01*
D02*
G37*
G36*
X453835D02*
X446059Y139156D01*
X442838Y131380D01*
Y126620D01*
X446059Y118844D01*
X453835Y115623D01*
X456697Y116808D01*
X479086Y94419D01*
Y90126D01*
X478229Y89771D01*
X475839Y84000D01*
X478229Y78229D01*
X484000Y75839D01*
X489771Y78229D01*
X492161Y84000D01*
X489771Y89771D01*
X488914Y90126D01*
Y96455D01*
X488914Y96455D01*
X487475Y99930D01*
X463647Y123758D01*
X464832Y126620D01*
Y131380D01*
X461611Y139156D01*
X453835Y142377D01*
D02*
G37*
G36*
X428835D02*
X421059Y139156D01*
X417838Y131380D01*
Y126620D01*
X421059Y118844D01*
X428835Y115623D01*
X431697Y116808D01*
X456937Y91568D01*
Y89068D01*
X454838Y84000D01*
X457228Y78229D01*
X462999Y75839D01*
X468770Y78229D01*
X471160Y84000D01*
X468770Y89771D01*
X466765Y90601D01*
Y93604D01*
X465326Y97079D01*
X438647Y123758D01*
X439832Y126620D01*
Y131380D01*
X436611Y139156D01*
X428835Y142377D01*
D02*
G37*
G36*
X366753D02*
X358976Y139156D01*
X355755Y131380D01*
Y126620D01*
X358976Y118844D01*
X361838Y117658D01*
Y90126D01*
X360982Y89771D01*
X358591Y84000D01*
X360982Y78229D01*
X366753Y75839D01*
X372523Y78229D01*
X374914Y84000D01*
X372523Y89771D01*
X371666Y90126D01*
Y117658D01*
X374529Y118844D01*
X377750Y126620D01*
Y131380D01*
X374529Y139156D01*
X366753Y142377D01*
D02*
G37*
G36*
X341753D02*
X333976Y139156D01*
X330755Y131380D01*
Y126620D01*
X333976Y118844D01*
X336838Y117658D01*
Y90126D01*
X335982Y89771D01*
X333591Y84000D01*
X335982Y78229D01*
X341753Y75839D01*
X347523Y78229D01*
X349914Y84000D01*
X347523Y89771D01*
X346666Y90126D01*
Y117658D01*
X349529Y118844D01*
X352750Y126620D01*
Y131380D01*
X349529Y139156D01*
X341753Y142377D01*
D02*
G37*
G36*
X316752D02*
X308976Y139156D01*
X305755Y131380D01*
Y126620D01*
X308976Y118844D01*
X311838Y117658D01*
Y90126D01*
X310982Y89771D01*
X308591Y84000D01*
X310982Y78229D01*
X316752Y75839D01*
X322523Y78229D01*
X324914Y84000D01*
X322523Y89771D01*
X321666Y90126D01*
Y117658D01*
X324529Y118844D01*
X327750Y126620D01*
Y131380D01*
X324529Y139156D01*
X316752Y142377D01*
D02*
G37*
G36*
X291752D02*
X283976Y139156D01*
X280755Y131380D01*
Y126620D01*
X283976Y118844D01*
X286838Y117658D01*
Y90126D01*
X285982Y89771D01*
X283591Y84000D01*
X285982Y78229D01*
X291752Y75839D01*
X297523Y78229D01*
X299914Y84000D01*
X297523Y89771D01*
X296667Y90126D01*
Y117658D01*
X299529Y118844D01*
X302750Y126620D01*
Y131380D01*
X299529Y139156D01*
X291752Y142377D01*
D02*
G37*
G36*
X266752D02*
X258976Y139156D01*
X255755Y131380D01*
Y126620D01*
X258976Y118844D01*
X261838Y117658D01*
Y90126D01*
X260982Y89771D01*
X258591Y84000D01*
X260982Y78229D01*
X266752Y75839D01*
X272523Y78229D01*
X274914Y84000D01*
X272523Y89771D01*
X271667Y90126D01*
Y117658D01*
X274529Y118844D01*
X277750Y126620D01*
Y131380D01*
X274529Y139156D01*
X266752Y142377D01*
D02*
G37*
G36*
X205670D02*
X197894Y139156D01*
X194673Y131380D01*
Y126620D01*
X197894Y118844D01*
X200921Y117590D01*
Y90057D01*
X200229Y89771D01*
X197839Y84000D01*
X200229Y78229D01*
X206000Y75839D01*
X211771Y78229D01*
X214161Y84000D01*
X211771Y89771D01*
X210749Y90194D01*
Y117727D01*
X213446Y118844D01*
X216667Y126620D01*
Y131380D01*
X213446Y139156D01*
X205670Y142377D01*
D02*
G37*
G36*
X473033Y71189D02*
Y62670D01*
X481552D01*
X479057Y68694D01*
X473033Y71189D01*
D02*
G37*
G36*
X470493D02*
X464469Y68694D01*
X461973Y62670D01*
X470493D01*
Y71189D01*
D02*
G37*
G36*
X269833D02*
Y62670D01*
X278352D01*
X275856Y68694D01*
X269833Y71189D01*
D02*
G37*
G36*
X267293D02*
X261269Y68694D01*
X258773Y62670D01*
X267293D01*
Y71189D01*
D02*
G37*
G36*
X92033D02*
Y62670D01*
X100552D01*
X98056Y68694D01*
X92033Y71189D01*
D02*
G37*
G36*
X89493D02*
X83469Y68694D01*
X80973Y62670D01*
X89493D01*
Y71189D01*
D02*
G37*
G36*
X481552Y60130D02*
X473033D01*
Y51611D01*
X479057Y54106D01*
X481552Y60130D01*
D02*
G37*
G36*
X470493D02*
X461973D01*
X464469Y54106D01*
X470493Y51611D01*
Y60130D01*
D02*
G37*
G36*
X278352D02*
X269833D01*
Y51611D01*
X275856Y54106D01*
X278352Y60130D01*
D02*
G37*
G36*
X267293D02*
X258773D01*
X261269Y54106D01*
X267293Y51611D01*
Y60130D01*
D02*
G37*
G36*
X100552D02*
X92033D01*
Y51611D01*
X98056Y54106D01*
X100552Y60130D01*
D02*
G37*
G36*
X89493D02*
X80973D01*
X83469Y54106D01*
X89493Y51611D01*
Y60130D01*
D02*
G37*
G36*
X573363Y71715D02*
X566069Y68694D01*
X563047Y61400D01*
X566069Y54106D01*
X573363Y51085D01*
X580657Y54106D01*
X583678Y61400D01*
X580657Y68694D01*
X573363Y71715D01*
D02*
G37*
G36*
X547963D02*
X540669Y68694D01*
X537647Y61400D01*
X540669Y54106D01*
X547963Y51085D01*
X555257Y54106D01*
X558278Y61400D01*
X555257Y68694D01*
X547963Y71715D01*
D02*
G37*
G36*
X522563D02*
X515269Y68694D01*
X512247Y61400D01*
X515269Y54106D01*
X522563Y51085D01*
X529856Y54106D01*
X532878Y61400D01*
X529856Y68694D01*
X522563Y71715D01*
D02*
G37*
G36*
X497163D02*
X489869Y68694D01*
X486847Y61400D01*
X489869Y54106D01*
X497163Y51085D01*
X504456Y54106D01*
X507478Y61400D01*
X504456Y68694D01*
X497163Y71715D01*
D02*
G37*
G36*
X446363D02*
X439069Y68694D01*
X436047Y61400D01*
X439069Y54106D01*
X446363Y51085D01*
X453657Y54106D01*
X456678Y61400D01*
X453657Y68694D01*
X446363Y71715D01*
D02*
G37*
G36*
X420963D02*
X413669Y68694D01*
X410647Y61400D01*
X413669Y54106D01*
X420963Y51085D01*
X428256Y54106D01*
X431278Y61400D01*
X428256Y68694D01*
X420963Y71715D01*
D02*
G37*
G36*
X395563D02*
X388269Y68694D01*
X385247Y61400D01*
X388269Y54106D01*
X395563Y51085D01*
X402856Y54106D01*
X405878Y61400D01*
X402856Y68694D01*
X395563Y71715D01*
D02*
G37*
G36*
X370163D02*
X362869Y68694D01*
X359847Y61400D01*
X362869Y54106D01*
X370163Y51085D01*
X377457Y54106D01*
X380478Y61400D01*
X377457Y68694D01*
X370163Y71715D01*
D02*
G37*
G36*
X344763D02*
X337469Y68694D01*
X334447Y61400D01*
X337469Y54106D01*
X344763Y51085D01*
X352057Y54106D01*
X355078Y61400D01*
X352057Y68694D01*
X344763Y71715D01*
D02*
G37*
G36*
X319363D02*
X312069Y68694D01*
X309047Y61400D01*
X312069Y54106D01*
X319363Y51085D01*
X326656Y54106D01*
X329678Y61400D01*
X326656Y68694D01*
X319363Y71715D01*
D02*
G37*
G36*
X293963D02*
X286669Y68694D01*
X283647Y61400D01*
X286669Y54106D01*
X293963Y51085D01*
X301257Y54106D01*
X304278Y61400D01*
X301257Y68694D01*
X293963Y71715D01*
D02*
G37*
G36*
X243163D02*
X235869Y68694D01*
X232847Y61400D01*
X235869Y54106D01*
X243163Y51085D01*
X250457Y54106D01*
X253478Y61400D01*
X250457Y68694D01*
X243163Y71715D01*
D02*
G37*
G36*
X217763D02*
X210469Y68694D01*
X207447Y61400D01*
X210469Y54106D01*
X217763Y51085D01*
X225056Y54106D01*
X228078Y61400D01*
X225056Y68694D01*
X217763Y71715D01*
D02*
G37*
G36*
X192363D02*
X185069Y68694D01*
X182047Y61400D01*
X185069Y54106D01*
X192363Y51085D01*
X199657Y54106D01*
X202678Y61400D01*
X199657Y68694D01*
X192363Y71715D01*
D02*
G37*
G36*
X166963D02*
X159669Y68694D01*
X156647Y61400D01*
X159669Y54106D01*
X166963Y51085D01*
X174256Y54106D01*
X177278Y61400D01*
X174256Y68694D01*
X166963Y71715D01*
D02*
G37*
G36*
X141563D02*
X134269Y68694D01*
X131247Y61400D01*
X134269Y54106D01*
X141563Y51085D01*
X148856Y54106D01*
X151878Y61400D01*
X148856Y68694D01*
X141563Y71715D01*
D02*
G37*
G36*
X116163D02*
X108869Y68694D01*
X105847Y61400D01*
X108869Y54106D01*
X116163Y51085D01*
X123456Y54106D01*
X126478Y61400D01*
X123456Y68694D01*
X116163Y71715D01*
D02*
G37*
G36*
X523833Y45789D02*
Y37270D01*
X532352D01*
X529856Y43294D01*
X523833Y45789D01*
D02*
G37*
G36*
X521293D02*
X515269Y43294D01*
X512773Y37270D01*
X521293D01*
Y45789D01*
D02*
G37*
G36*
X422233D02*
Y37270D01*
X430752D01*
X428256Y43294D01*
X422233Y45789D01*
D02*
G37*
G36*
X419693D02*
X413669Y43294D01*
X411173Y37270D01*
X419693D01*
Y45789D01*
D02*
G37*
G36*
X346033D02*
Y37270D01*
X354552D01*
X352057Y43294D01*
X346033Y45789D01*
D02*
G37*
G36*
X343493D02*
X337469Y43294D01*
X334973Y37270D01*
X343493D01*
Y45789D01*
D02*
G37*
G36*
X219033D02*
Y37270D01*
X227552D01*
X225056Y43294D01*
X219033Y45789D01*
D02*
G37*
G36*
X216493D02*
X210469Y43294D01*
X207973Y37270D01*
X216493D01*
Y45789D01*
D02*
G37*
G36*
X168233D02*
Y37270D01*
X176752D01*
X174256Y43294D01*
X168233Y45789D01*
D02*
G37*
G36*
X165693D02*
X159669Y43294D01*
X157173Y37270D01*
X165693D01*
Y45789D01*
D02*
G37*
G36*
X100293Y45530D02*
X81233D01*
Y26470D01*
X100293D01*
Y45530D01*
D02*
G37*
G36*
X532352Y34730D02*
X523833D01*
Y26211D01*
X529856Y28706D01*
X532352Y34730D01*
D02*
G37*
G36*
X521293D02*
X512773D01*
X515269Y28706D01*
X521293Y26211D01*
Y34730D01*
D02*
G37*
G36*
X430752D02*
X422233D01*
Y26211D01*
X428256Y28706D01*
X430752Y34730D01*
D02*
G37*
G36*
X419693D02*
X411173D01*
X413669Y28706D01*
X419693Y26211D01*
Y34730D01*
D02*
G37*
G36*
X354552D02*
X346033D01*
Y26211D01*
X352057Y28706D01*
X354552Y34730D01*
D02*
G37*
G36*
X343493D02*
X334973D01*
X337469Y28706D01*
X343493Y26211D01*
Y34730D01*
D02*
G37*
G36*
X227552D02*
X219033D01*
Y26211D01*
X225056Y28706D01*
X227552Y34730D01*
D02*
G37*
G36*
X216493D02*
X207973D01*
X210469Y28706D01*
X216493Y26211D01*
Y34730D01*
D02*
G37*
G36*
X176752D02*
X168233D01*
Y26211D01*
X174256Y28706D01*
X176752Y34730D01*
D02*
G37*
G36*
X165693D02*
X157173D01*
X159669Y28706D01*
X165693Y26211D01*
Y34730D01*
D02*
G37*
G36*
X622000Y61884D02*
X615156Y60522D01*
X609354Y56646D01*
X605478Y50844D01*
X604116Y44000D01*
X605478Y37156D01*
X609354Y31354D01*
X615156Y27478D01*
X622000Y26116D01*
X628844Y27478D01*
X634646Y31354D01*
X638522Y37156D01*
X639884Y44000D01*
X638522Y50844D01*
X634646Y56646D01*
X628844Y60522D01*
X622000Y61884D01*
D02*
G37*
G36*
X42000D02*
X35156Y60522D01*
X29354Y56646D01*
X25478Y50844D01*
X24116Y44000D01*
X25478Y37156D01*
X29354Y31354D01*
X35156Y27478D01*
X42000Y26116D01*
X48844Y27478D01*
X54646Y31354D01*
X58522Y37156D01*
X59884Y44000D01*
X58522Y50844D01*
X54646Y56646D01*
X48844Y60522D01*
X42000Y61884D01*
D02*
G37*
G36*
X573363Y46315D02*
X566069Y43294D01*
X563047Y36000D01*
X566069Y28706D01*
X573363Y25685D01*
X580657Y28706D01*
X583678Y36000D01*
X580657Y43294D01*
X573363Y46315D01*
D02*
G37*
G36*
X547963D02*
X540669Y43294D01*
X537647Y36000D01*
X540669Y28706D01*
X547963Y25685D01*
X555257Y28706D01*
X558278Y36000D01*
X555257Y43294D01*
X547963Y46315D01*
D02*
G37*
G36*
X497163D02*
X489869Y43294D01*
X486847Y36000D01*
X489869Y28706D01*
X497163Y25685D01*
X504456Y28706D01*
X507478Y36000D01*
X504456Y43294D01*
X497163Y46315D01*
D02*
G37*
G36*
X471763D02*
X464469Y43294D01*
X461447Y36000D01*
X464469Y28706D01*
X471763Y25685D01*
X479057Y28706D01*
X482078Y36000D01*
X479057Y43294D01*
X471763Y46315D01*
D02*
G37*
G36*
X446363D02*
X439069Y43294D01*
X436047Y36000D01*
X439069Y28706D01*
X446363Y25685D01*
X453657Y28706D01*
X456678Y36000D01*
X453657Y43294D01*
X446363Y46315D01*
D02*
G37*
G36*
X395563D02*
X388269Y43294D01*
X385247Y36000D01*
X388269Y28706D01*
X395563Y25685D01*
X402856Y28706D01*
X405878Y36000D01*
X402856Y43294D01*
X395563Y46315D01*
D02*
G37*
G36*
X370163D02*
X362869Y43294D01*
X359847Y36000D01*
X362869Y28706D01*
X370163Y25685D01*
X377457Y28706D01*
X380478Y36000D01*
X377457Y43294D01*
X370163Y46315D01*
D02*
G37*
G36*
X319363D02*
X312069Y43294D01*
X309047Y36000D01*
X312069Y28706D01*
X319363Y25685D01*
X326656Y28706D01*
X329678Y36000D01*
X326656Y43294D01*
X319363Y46315D01*
D02*
G37*
G36*
X293963D02*
X286669Y43294D01*
X283647Y36000D01*
X286669Y28706D01*
X293963Y25685D01*
X301257Y28706D01*
X304278Y36000D01*
X301257Y43294D01*
X293963Y46315D01*
D02*
G37*
G36*
X268563D02*
X261269Y43294D01*
X258247Y36000D01*
X261269Y28706D01*
X268563Y25685D01*
X275856Y28706D01*
X278878Y36000D01*
X275856Y43294D01*
X268563Y46315D01*
D02*
G37*
G36*
X243163D02*
X235869Y43294D01*
X232847Y36000D01*
X235869Y28706D01*
X243163Y25685D01*
X250457Y28706D01*
X253478Y36000D01*
X250457Y43294D01*
X243163Y46315D01*
D02*
G37*
G36*
X192363D02*
X185069Y43294D01*
X182047Y36000D01*
X185069Y28706D01*
X192363Y25685D01*
X199657Y28706D01*
X202678Y36000D01*
X199657Y43294D01*
X192363Y46315D01*
D02*
G37*
G36*
X141563D02*
X134269Y43294D01*
X131247Y36000D01*
X134269Y28706D01*
X141563Y25685D01*
X148856Y28706D01*
X151878Y36000D01*
X148856Y43294D01*
X141563Y46315D01*
D02*
G37*
G36*
X116163D02*
X108869Y43294D01*
X105847Y36000D01*
X108869Y28706D01*
X116163Y25685D01*
X123456Y28706D01*
X126478Y36000D01*
X123456Y43294D01*
X116163Y46315D01*
D02*
G37*
%LPD*%
G36*
X622657Y211224D02*
X620623Y206313D01*
X623476Y199425D01*
X592965Y168914D01*
X580210D01*
X579725Y170087D01*
X621581Y211944D01*
X622657Y211224D01*
D02*
G37*
D17*
X324707Y160500D02*
D03*
Y176000D02*
D03*
X304665Y160645D02*
D03*
Y176145D02*
D03*
X367915Y405500D02*
D03*
Y421000D02*
D03*
X347872D02*
D03*
Y405500D02*
D03*
X403000D02*
D03*
Y421000D02*
D03*
X245530Y211500D02*
D03*
Y196000D02*
D03*
X265572Y211500D02*
D03*
Y196000D02*
D03*
X193530Y279813D02*
D03*
Y295312D02*
D03*
X213572Y279813D02*
D03*
Y295312D02*
D03*
X173487D02*
D03*
Y279813D02*
D03*
X153445Y295312D02*
D03*
Y279813D02*
D03*
D24*
X152000Y381000D02*
D03*
Y397000D02*
D03*
X54000Y326000D02*
D03*
Y310000D02*
D03*
D63*
X182000Y161000D02*
X225000D01*
X245530Y181530D02*
Y196000D01*
X225000Y161000D02*
X245530Y181530D01*
X324000Y413552D02*
X335424D01*
X342872Y421000D01*
X344872Y419000D01*
X347372Y421500D02*
X347872Y421000D01*
X344872Y419000D02*
X347372Y421500D01*
X403000Y405500D02*
X404500D01*
X407250Y402750D01*
Y401250D02*
Y402750D01*
Y401250D02*
X409000Y399500D01*
Y385293D02*
Y399500D01*
X150000Y249000D02*
X164530D01*
X98957Y197957D02*
X150000Y249000D01*
X58175Y197957D02*
X98957D01*
X149557Y238557D02*
X164087D01*
X117000Y206000D02*
X149557Y238557D01*
X117000Y189000D02*
Y206000D01*
X97313Y118915D02*
X131000Y152602D01*
Y199000D01*
X151000Y219000D01*
X100957Y172957D02*
X117000Y189000D01*
X97313Y143915D02*
X124000Y170602D01*
Y202000D01*
X151000Y229000D01*
X42667Y143915D02*
X97313D01*
X151000Y219000D02*
X164530D01*
X151000Y229000D02*
X164530D01*
X42667Y118915D02*
X97313D01*
X58175Y172957D02*
X100957D01*
X32000Y252000D02*
X51293D01*
X66792D02*
X66793Y252000D01*
X154000Y121000D02*
Y133000D01*
X117000Y84000D02*
X154000Y121000D01*
X574688Y172000D02*
X634000Y231313D01*
X423000Y172000D02*
X574688D01*
X453835Y126620D02*
Y129000D01*
Y126620D02*
X484000Y96455D01*
Y84000D02*
Y96455D01*
X428835Y126620D02*
Y129000D01*
Y126620D02*
X461851Y93604D01*
Y85148D02*
Y93604D01*
Y85148D02*
X462999Y84000D01*
X399000Y95000D02*
X410000Y84000D01*
X399000Y138751D02*
X424249Y164000D01*
X399000Y95000D02*
Y138751D01*
X389000Y138000D02*
X423000Y172000D01*
X389000Y84000D02*
Y138000D01*
X409000Y107000D02*
Y139502D01*
X426498Y157000D01*
X409000Y107000D02*
X432000Y84000D01*
X424249Y164000D02*
X595000D01*
X426498Y157000D02*
X609688D01*
X634000Y181313D01*
X595000Y164000D02*
X634000Y203000D01*
X304520Y176000D02*
X304665Y176145D01*
X273000Y176000D02*
X304520D01*
X246000Y149000D02*
X273000Y176000D01*
X246000Y84000D02*
Y149000D01*
X367000Y163645D02*
Y241865D01*
X370000Y244865D01*
Y247322D01*
X324707Y160500D02*
X326208D01*
X332563Y154145D01*
X347000D01*
X304665Y160645D02*
X304737Y160572D01*
X324635D01*
X324707Y160500D01*
X480500Y330000D02*
X498000D01*
X480500Y330000D02*
X480500Y330000D01*
X347872Y421000D02*
X367915D01*
X480500Y330000D02*
Y351000D01*
X117000Y421000D02*
X135518D01*
X136518Y422000D01*
X32000Y252000D02*
X33793Y250207D01*
X266752Y129000D02*
X266876Y128876D01*
X266752Y84000D02*
Y129000D01*
X32380Y223752D02*
X58175Y197957D01*
X30000Y223752D02*
X32380D01*
Y198752D02*
X58175Y172957D01*
X30000Y198752D02*
X32380D01*
X35422Y136670D02*
X42667Y143915D01*
X30000Y136670D02*
X35422D01*
Y111670D02*
X42667Y118915D01*
X30000Y111670D02*
X35422D01*
X164087Y238557D02*
X164530Y239000D01*
X119460Y106460D02*
Y120460D01*
X159000Y160000D02*
Y184907D01*
X129992Y118992D02*
X196437Y185437D01*
X119460Y120460D02*
X159000Y160000D01*
X129992Y117500D02*
Y118992D01*
X634000Y203000D02*
Y206313D01*
X632466Y156313D02*
X634000D01*
X561000Y84846D02*
X632466Y156313D01*
X561000Y84000D02*
Y84846D01*
X97000Y84000D02*
X119460Y106460D01*
X159000Y184907D02*
X159530Y185437D01*
X154000Y133000D02*
X182000Y161000D01*
X541000Y84000D02*
Y129000D01*
X516000Y84000D02*
Y129000D01*
X366753Y84000D02*
Y129000D01*
X341753Y84000D02*
Y129000D01*
X291752Y84000D02*
Y129000D01*
X316752Y84000D02*
Y129000D01*
X196437Y185437D02*
X207030D01*
X164000Y82000D02*
Y133751D01*
X180249Y150000D01*
X228000D01*
X265572Y187572D02*
Y196000D01*
X228000Y150000D02*
X265572Y187572D01*
X205670Y129000D02*
X205835Y128835D01*
Y83165D02*
Y128835D01*
Y83165D02*
X206000Y83000D01*
X180670Y129000D02*
X180835Y128835D01*
Y83165D02*
Y128835D01*
Y83165D02*
X181000Y83000D01*
D64*
X66793Y252000D02*
X97313D01*
X236000Y316322D02*
X305000Y247322D01*
X236000Y316322D02*
Y350000D01*
X217730Y249000D02*
X301407D01*
X227437Y341437D02*
X236000Y350000D01*
X206793Y341437D02*
X227437D01*
X301407Y249000D02*
X303084Y247322D01*
X305000D01*
X152018Y397018D02*
Y422000D01*
X152000Y397000D02*
X152018Y397018D01*
X127083Y397000D02*
X152000D01*
X152000Y341437D02*
X206793D01*
Y341914D02*
X215000Y350121D01*
X152018Y422000D02*
X191545D01*
X214165Y397000D02*
Y399380D01*
X127000Y344000D02*
X129563Y341437D01*
X152000D01*
X214165Y372835D02*
X215000Y372000D01*
X191545Y422000D02*
X214165Y399380D01*
Y372835D02*
Y397000D01*
X215000Y350121D02*
Y372000D01*
X206793Y341437D02*
Y341914D01*
X104000Y281000D02*
X129688D01*
X152983Y294851D02*
X153445Y295312D01*
X129688Y281000D02*
X143538Y294851D01*
X152983D01*
X193530Y295312D02*
X213572D01*
X173487D02*
X193530D01*
X153445D02*
X173487D01*
X77000Y366000D02*
X97000D01*
X104000Y359000D01*
X56157Y386843D02*
X77000Y366000D01*
X104000Y344000D02*
Y359000D01*
Y281000D02*
Y344000D01*
X55000Y398000D02*
X56157Y396843D01*
Y386843D02*
Y396843D01*
X54917Y397918D02*
X55000Y398000D01*
X30000Y397918D02*
X54917D01*
X55000Y310000D02*
X83000Y282000D01*
X103000D01*
X104000Y281000D01*
X53165Y310835D02*
X54000Y310000D01*
X30000Y310835D02*
X53165D01*
X54000Y310000D02*
X55000D01*
X97313Y274312D02*
X104000Y281000D01*
X97313Y252000D02*
Y274312D01*
D65*
X366753Y129000D02*
D03*
X341753D02*
D03*
X316752D02*
D03*
X291752D02*
D03*
X266752D02*
D03*
X608000Y327395D02*
D03*
X633000D02*
D03*
X607562Y400000D02*
D03*
X632562D02*
D03*
X180670Y129000D02*
D03*
X205670D02*
D03*
X214165Y397000D02*
D03*
X189165D02*
D03*
X127083D02*
D03*
X102083D02*
D03*
X541000Y129000D02*
D03*
X516000D02*
D03*
X453835D02*
D03*
X428835D02*
D03*
D66*
X305000Y247322D02*
D03*
X370000D02*
D03*
D67*
X206793Y316437D02*
D03*
Y341437D02*
D03*
X97313Y172957D02*
D03*
Y197957D02*
D03*
Y118915D02*
D03*
Y143915D02*
D03*
Y252000D02*
D03*
Y227000D02*
D03*
X152000Y341437D02*
D03*
Y316437D02*
D03*
D68*
X141563Y36000D02*
D03*
Y61400D02*
D03*
X547963Y36000D02*
D03*
X395563D02*
D03*
X547963Y61400D02*
D03*
X395563D02*
D03*
X116163Y36000D02*
D03*
Y61400D02*
D03*
X90763D02*
D03*
X217763Y36000D02*
D03*
X192363D02*
D03*
X217763Y61400D02*
D03*
X192363D02*
D03*
X293963Y36000D02*
D03*
X243163D02*
D03*
X293963Y61400D02*
D03*
X243163D02*
D03*
X344763Y36000D02*
D03*
X319363D02*
D03*
X344763Y61400D02*
D03*
X319363D02*
D03*
X446363Y36000D02*
D03*
X420963D02*
D03*
X446363Y61400D02*
D03*
X420963D02*
D03*
X522563Y36000D02*
D03*
X497163D02*
D03*
X522563Y61400D02*
D03*
X497163D02*
D03*
X166963Y36000D02*
D03*
Y61400D02*
D03*
X268563Y36000D02*
D03*
Y61400D02*
D03*
X370163Y36000D02*
D03*
Y61400D02*
D03*
X471763Y36000D02*
D03*
Y61400D02*
D03*
X573363Y36000D02*
D03*
Y61400D02*
D03*
D69*
X90763Y36000D02*
D03*
D70*
X30000Y198752D02*
D03*
Y223752D02*
D03*
Y111670D02*
D03*
Y136670D02*
D03*
Y285835D02*
D03*
Y310835D02*
D03*
Y372918D02*
D03*
Y397918D02*
D03*
X634000Y156313D02*
D03*
Y181313D02*
D03*
Y206313D02*
D03*
Y231313D02*
D03*
Y256313D02*
D03*
X441413Y397000D02*
D03*
Y372000D02*
D03*
D71*
X324000Y413552D02*
D03*
X399365Y293730D02*
D03*
X145000Y169000D02*
D03*
X80000Y84000D02*
D03*
X389000D02*
D03*
X410000D02*
D03*
X432000D02*
D03*
X484000D02*
D03*
X462999D02*
D03*
X498000Y330000D02*
D03*
X246000Y84000D02*
D03*
X266752D02*
D03*
X129992Y117500D02*
D03*
X561000Y84000D02*
D03*
X97000D02*
D03*
X117000D02*
D03*
X541000D02*
D03*
X516000D02*
D03*
X366753D02*
D03*
X341753D02*
D03*
X291752D02*
D03*
X316752D02*
D03*
X164000D02*
D03*
X206000D02*
D03*
X181000D02*
D03*
D72*
X587000Y248000D02*
D03*
Y225000D02*
D03*
X385000Y422000D02*
D03*
X536000Y424000D02*
D03*
X236000Y350000D02*
D03*
D73*
X622000Y44000D02*
D03*
X42000D02*
D03*
D74*
X367000Y163645D02*
D03*
X347000Y173145D02*
D03*
Y154145D02*
D03*
D75*
X403496Y324500D02*
D03*
Y359500D02*
D03*
X347496Y324500D02*
D03*
Y359500D02*
D03*
D76*
X96000Y421000D02*
D03*
X117000D02*
D03*
X32000Y252000D02*
D03*
X11000D02*
D03*
X388000Y385293D02*
D03*
X409000D02*
D03*
D77*
X136518Y422000D02*
D03*
X152018D02*
D03*
X66792Y252000D02*
D03*
X51293D02*
D03*
X465000Y351000D02*
D03*
X480500D02*
D03*
Y330000D02*
D03*
X465000D02*
D03*
X175030Y185437D02*
D03*
X159530D02*
D03*
X222530D02*
D03*
X207030D02*
D03*
D78*
X481355Y373000D02*
D03*
X465355D02*
D03*
X481792Y396000D02*
D03*
X465792D02*
D03*
X199000Y372000D02*
D03*
X215000D02*
D03*
X71000Y398000D02*
D03*
X55000D02*
D03*
D79*
X127000Y344000D02*
D03*
X81000D02*
D03*
X104000D02*
D03*
D80*
Y281000D02*
D03*
D81*
X217730Y249000D02*
D03*
X164530D02*
D03*
Y229000D02*
D03*
Y209000D02*
D03*
Y219000D02*
D03*
Y239000D02*
D03*
X217730Y209000D02*
D03*
Y229000D02*
D03*
Y219000D02*
D03*
Y239000D02*
D03*
D82*
X405996Y368000D02*
X415007D01*
X437647Y390640D02*
Y393656D01*
X415007Y368000D02*
X437647Y390640D01*
X403496Y365500D02*
X405996Y368000D01*
X403496Y359500D02*
Y365500D01*
X437647Y393656D02*
X440992Y397000D01*
X439250D02*
X441413D01*
X402500Y421500D02*
X403000Y421000D01*
X385500Y421500D02*
X402500D01*
X385000Y422000D02*
X385500Y421500D01*
X415250Y421000D02*
X439250Y397000D01*
X403000Y421000D02*
X415250D01*
X476000Y424000D02*
X536000D01*
X466000Y414000D02*
X476000Y424000D01*
X466000Y396208D02*
Y414000D01*
X465792Y396000D02*
X466000Y396208D01*
X367915Y405500D02*
X384958D01*
Y421958D02*
X385000Y422000D01*
X384958Y405500D02*
Y421958D01*
X347496Y359500D02*
X403496D01*
X464793Y397000D02*
X465792Y396000D01*
X441413Y397000D02*
X464793D01*
X465355Y373000D02*
Y395563D01*
X465792Y396000D01*
X465000Y351000D02*
Y372645D01*
X465355Y373000D01*
D83*
X217730Y239000D02*
X236572D01*
X264072Y211500D01*
X265572D01*
X217730Y229000D02*
X228030D01*
X241280Y215750D01*
Y214250D02*
Y215750D01*
Y214250D02*
X244030Y211500D01*
X245530D01*
X222530Y185437D02*
Y186937D01*
X229530Y193937D01*
X217730Y219000D02*
X224187D01*
X229530Y213657D01*
Y193937D02*
Y213657D01*
X217730Y219000D02*
X217730Y219000D01*
X175030Y185437D02*
Y186937D01*
X178280Y190187D01*
X179780D01*
X198592Y209000D01*
X203695D01*
X213530Y268000D02*
Y279770D01*
X202530Y257000D02*
X213530Y268000D01*
Y279770D02*
X213572Y279813D01*
X202530Y246000D02*
Y257000D01*
Y246000D02*
X209530Y239000D01*
X217730D02*
X217730Y239000D01*
X209530Y239000D02*
X217730D01*
X155723Y272320D02*
Y277534D01*
X153445Y279813D02*
X155723Y277534D01*
Y272320D02*
X166622Y261422D01*
X166622D01*
X179530Y248513D01*
X186530Y237000D02*
X204530Y219000D01*
X173487Y265042D02*
X186530Y252000D01*
Y237000D02*
Y252000D01*
X173487Y265042D02*
Y279813D01*
X204530Y219000D02*
X217730D01*
X205530Y229000D02*
X217730D01*
X193530Y241000D02*
Y279813D01*
Y241000D02*
X205530Y229000D01*
X203695Y209000D02*
X217730D01*
X201700Y210995D02*
X201700D01*
X203695Y209000D01*
X179530Y233165D02*
X201700Y210995D01*
X179530Y233165D02*
Y248513D01*
M02*
