G04*
G04 #@! TF.GenerationSoftware,Altium Limited,Altium Designer,20.0.11 (256)*
G04*
G04 Layer_Color=128*
%FSLAX44Y44*%
%MOMM*%
G71*
G01*
G75*
%ADD17R,1.2500X0.9500*%
%ADD24R,1.5000X1.3000*%
%ADD74R,0.9000X0.8000*%
%ADD75R,1.3000X2.5000*%
%ADD76R,0.9500X1.2500*%
%ADD77R,0.9500X1.2500*%
%ADD78R,1.3000X1.5000*%
%ADD79R,1.5000X2.0000*%
%ADD80R,3.8000X2.0000*%
%ADD81R,1.1800X0.5800*%
D17*
X324707Y160500D02*
D03*
Y176000D02*
D03*
X304665Y160645D02*
D03*
Y176145D02*
D03*
X367915Y405500D02*
D03*
Y421000D02*
D03*
X347872D02*
D03*
Y405500D02*
D03*
X403000D02*
D03*
Y421000D02*
D03*
X245530Y211500D02*
D03*
Y196000D02*
D03*
X265572Y211500D02*
D03*
Y196000D02*
D03*
X193530Y279813D02*
D03*
Y295312D02*
D03*
X213572Y279813D02*
D03*
Y295312D02*
D03*
X173487D02*
D03*
Y279813D02*
D03*
X153445Y295312D02*
D03*
Y279813D02*
D03*
D24*
X152000Y381000D02*
D03*
Y397000D02*
D03*
X54000Y326000D02*
D03*
Y310000D02*
D03*
D74*
X367000Y163645D02*
D03*
X347000Y173145D02*
D03*
Y154145D02*
D03*
D75*
X403496Y324500D02*
D03*
Y359500D02*
D03*
X347496Y324500D02*
D03*
Y359500D02*
D03*
D76*
X96000Y421000D02*
D03*
X117000D02*
D03*
X32000Y252000D02*
D03*
X11000D02*
D03*
X388000Y385293D02*
D03*
X409000D02*
D03*
D77*
X136518Y422000D02*
D03*
X152018D02*
D03*
X66792Y252000D02*
D03*
X51293D02*
D03*
X465000Y351000D02*
D03*
X480500D02*
D03*
Y330000D02*
D03*
X465000D02*
D03*
X175030Y185437D02*
D03*
X159530D02*
D03*
X222530D02*
D03*
X207030D02*
D03*
D78*
X481355Y373000D02*
D03*
X465355D02*
D03*
X481792Y396000D02*
D03*
X465792D02*
D03*
X199000Y372000D02*
D03*
X215000D02*
D03*
X71000Y398000D02*
D03*
X55000D02*
D03*
D79*
X127000Y344000D02*
D03*
X81000D02*
D03*
X104000D02*
D03*
D80*
Y281000D02*
D03*
D81*
X217730Y249000D02*
D03*
X164530D02*
D03*
Y229000D02*
D03*
Y209000D02*
D03*
Y219000D02*
D03*
Y239000D02*
D03*
X217730Y209000D02*
D03*
Y229000D02*
D03*
Y219000D02*
D03*
Y239000D02*
D03*
M02*
