G04*
G04 #@! TF.GenerationSoftware,Altium Limited,Altium Designer,19.1.9 (167)*
G04*
G04 Layer_Color=128*
%FSLAX44Y44*%
%MOMM*%
G71*
G01*
G75*
%ADD40C,0.0508*%
D40*
X739750Y319000D02*
X745750D01*
X742750Y316000D02*
Y322000D01*
X739750Y299000D02*
X745750D01*
X742750Y296000D02*
Y302000D01*
X739250Y257750D02*
X745250D01*
X742250Y254750D02*
Y260750D01*
X739250Y237750D02*
X745250D01*
X742250Y234750D02*
Y240750D01*
X743436Y-34565D02*
X753436D01*
X748436Y-39565D02*
Y-29565D01*
X743436Y-59965D02*
X753436D01*
X748436Y-64965D02*
Y-54965D01*
X641836Y-34565D02*
X651836D01*
X646836Y-39565D02*
Y-29565D01*
X641836Y-59965D02*
X651836D01*
X646836Y-64965D02*
Y-54965D01*
X540236Y-34565D02*
X550236D01*
X545236Y-39565D02*
Y-29565D01*
X540236Y-59965D02*
X550236D01*
X545236Y-64965D02*
Y-54965D01*
X438636Y-34565D02*
X448636D01*
X443636Y-39565D02*
Y-29565D01*
X438636Y-59965D02*
X448636D01*
X443636Y-64965D02*
Y-54965D01*
X337036Y-34565D02*
X347036D01*
X342036Y-39565D02*
Y-29565D01*
X337036Y-59965D02*
X347036D01*
X342036Y-64965D02*
Y-54965D01*
X667236Y-34565D02*
X677236D01*
X672236Y-39565D02*
Y-29565D01*
X692636Y-34565D02*
X702636D01*
X697636Y-39565D02*
Y-29565D01*
X667236Y-59965D02*
X677236D01*
X672236Y-64965D02*
Y-54965D01*
X692636Y-59965D02*
X702636D01*
X697636Y-64965D02*
Y-54965D01*
X591036Y-34565D02*
X601036D01*
X596036Y-39565D02*
Y-29565D01*
X616436Y-34565D02*
X626436D01*
X621436Y-39565D02*
Y-29565D01*
X591036Y-59965D02*
X601036D01*
X596036Y-64965D02*
Y-54965D01*
X616436Y-59965D02*
X626436D01*
X621436Y-64965D02*
Y-54965D01*
X489436Y-34565D02*
X499436D01*
X494436Y-39565D02*
Y-29565D01*
X514836Y-34565D02*
X524836D01*
X519836Y-39565D02*
Y-29565D01*
X489436Y-59965D02*
X499436D01*
X494436Y-64965D02*
Y-54965D01*
X514836Y-59965D02*
X524836D01*
X519836Y-64965D02*
Y-54965D01*
X413236Y-34565D02*
X423236D01*
X418236Y-39565D02*
Y-29565D01*
X464036Y-34565D02*
X474036D01*
X469036Y-39565D02*
Y-29565D01*
X413236Y-59965D02*
X423236D01*
X418236Y-64965D02*
Y-54965D01*
X464036Y-59965D02*
X474036D01*
X469036Y-64965D02*
Y-54965D01*
X362436Y-34565D02*
X372436D01*
X367436Y-39565D02*
Y-29565D01*
X387836Y-34565D02*
X397836D01*
X392836Y-39565D02*
Y-29565D01*
X362436Y-59965D02*
X372436D01*
X367436Y-64965D02*
Y-54965D01*
X387836Y-59965D02*
X397836D01*
X392836Y-64965D02*
Y-54965D01*
X260836Y-34565D02*
X270836D01*
X265836Y-39565D02*
Y-29565D01*
X286236Y-34565D02*
X296236D01*
X291236Y-39565D02*
Y-29565D01*
X260836Y-59965D02*
X270836D01*
X265836Y-64965D02*
Y-54965D01*
X286236Y-59965D02*
X296236D01*
X291236Y-64965D02*
Y-54965D01*
X565636Y-34565D02*
X575636D01*
X570636Y-39565D02*
Y-29565D01*
X718036Y-34565D02*
X728036D01*
X723036Y-39565D02*
Y-29565D01*
X565636Y-59965D02*
X575636D01*
X570636Y-64965D02*
Y-54965D01*
X718036Y-59965D02*
X728036D01*
X723036Y-64965D02*
Y-54965D01*
X311636Y-34565D02*
X321636D01*
X316636Y-39565D02*
Y-29565D01*
X311636Y-59965D02*
X321636D01*
X316636Y-64965D02*
Y-54965D01*
X709750Y98750D02*
X717750D01*
X713750Y94750D02*
Y102750D01*
X684750Y98750D02*
X692750D01*
X688750Y94750D02*
Y102750D01*
X659750Y98750D02*
X667750D01*
X663750Y94750D02*
Y102750D01*
X634750Y98750D02*
X642750D01*
X638750Y94750D02*
Y102750D01*
X609750Y98750D02*
X617750D01*
X613750Y94750D02*
Y102750D01*
X539826Y34035D02*
X547826D01*
X543826Y30035D02*
Y38035D01*
X514826Y34035D02*
X522826D01*
X518826Y30035D02*
Y38035D01*
X489826Y34035D02*
X497826D01*
X493826Y30035D02*
Y38035D01*
X464826Y34035D02*
X472826D01*
X468826Y30035D02*
Y38035D01*
X439826Y34035D02*
X447826D01*
X443826Y30035D02*
Y38035D01*
X802750Y286500D02*
X810750D01*
X806750Y282500D02*
Y290500D01*
X802750Y311500D02*
X810750D01*
X806750Y307500D02*
Y315500D01*
X402250Y289500D02*
X410250D01*
X406250Y285500D02*
Y293500D01*
X402250Y314500D02*
X410250D01*
X406250Y310500D02*
Y318500D01*
X268750Y289250D02*
X276750D01*
X272750Y285250D02*
Y293250D01*
X268750Y314250D02*
X276750D01*
X272750Y310250D02*
Y318250D01*
X202000Y288500D02*
X210000D01*
X206000Y284500D02*
Y292500D01*
X202000Y313500D02*
X210000D01*
X206000Y309500D02*
Y317500D01*
X360250Y34000D02*
X368250D01*
X364250Y30000D02*
Y38000D01*
X385250Y34000D02*
X393250D01*
X389250Y30000D02*
Y38000D01*
X689074Y34035D02*
X697074D01*
X693074Y30035D02*
Y38035D01*
X714074Y34035D02*
X722074D01*
X718074Y30035D02*
Y38035D01*
X609250Y34250D02*
X617250D01*
X613250Y30250D02*
Y38250D01*
X634250Y34250D02*
X642250D01*
X638250Y30250D02*
Y38250D01*
X201250Y23750D02*
X209250D01*
X205250Y19750D02*
Y27750D01*
X201250Y48750D02*
X209250D01*
X205250Y44750D02*
Y52750D01*
X266250Y24250D02*
X274250D01*
X270250Y20250D02*
Y28250D01*
X266250Y49250D02*
X274250D01*
X270250Y45250D02*
Y53250D01*
X202750Y183000D02*
X210750D01*
X206750Y179000D02*
Y187000D01*
X202750Y208000D02*
X210750D01*
X206750Y204000D02*
Y212000D01*
X202750Y103250D02*
X210750D01*
X206750Y99250D02*
Y107250D01*
X202750Y128250D02*
X210750D01*
X206750Y124250D02*
Y132250D01*
X334000Y288250D02*
X342000D01*
X338000Y284250D02*
Y292250D01*
X334000Y313250D02*
X342000D01*
X338000Y309250D02*
Y317250D01*
X487000Y205250D02*
X493000D01*
X490000Y202250D02*
Y208250D01*
X487000Y223750D02*
X493000D01*
X490000Y220750D02*
Y226750D01*
X344250Y246750D02*
X350250D01*
X347250Y243750D02*
Y249750D01*
X344250Y228250D02*
X350250D01*
X347250Y225250D02*
Y231250D01*
X269500Y204250D02*
X275500D01*
X272500Y201250D02*
Y207250D01*
X269500Y184250D02*
X275500D01*
X272500Y181250D02*
Y187250D01*
X272500Y125500D02*
X278500D01*
X275500Y122500D02*
Y128500D01*
X272500Y105500D02*
X278500D01*
X275500Y102500D02*
Y108500D01*
X485750Y292750D02*
X491750D01*
X488750Y289750D02*
Y295750D01*
X485750Y312750D02*
X491750D01*
X488750Y309750D02*
Y315750D01*
X470000Y122250D02*
X478000D01*
X474000Y118250D02*
Y126250D01*
X546000Y122250D02*
X554000D01*
X550000Y118250D02*
Y126250D01*
X516250Y280250D02*
X522250D01*
X519250Y277250D02*
Y283250D01*
X562000Y290750D02*
X568000D01*
X565000Y287750D02*
Y293750D01*
X299250Y228250D02*
X305250D01*
X302250Y225250D02*
Y231250D01*
X358529Y70471D02*
X364529D01*
X361529Y67471D02*
Y73471D01*
X343250Y194000D02*
X349250D01*
X346250Y191000D02*
Y197000D01*
X388000Y193250D02*
X394000D01*
X391000Y190250D02*
Y196250D01*
X449250Y194000D02*
X455250D01*
X452250Y191000D02*
Y197000D01*
X321500Y68000D02*
X327500D01*
X324500Y65000D02*
Y71000D01*
X308500Y-10750D02*
X314500D01*
X311500Y-13750D02*
Y-7750D01*
X288250Y-11250D02*
X294250D01*
X291250Y-14250D02*
Y-8250D01*
X703250Y257750D02*
X709250D01*
X706250Y254750D02*
Y260750D01*
X375750Y-10000D02*
X381750D01*
X378750Y-13000D02*
Y-7000D01*
X397750Y-9250D02*
X403750D01*
X400750Y-12250D02*
Y-6250D01*
X704000Y306000D02*
X710000D01*
X707000Y303000D02*
Y309000D01*
X489000Y262250D02*
X495000D01*
X492000Y259250D02*
Y265250D01*
X705000Y284750D02*
X711000D01*
X708000Y281750D02*
Y287750D01*
X675000Y151250D02*
X681000D01*
X678000Y148250D02*
Y154250D01*
X691000Y132500D02*
X697000D01*
X694000Y129500D02*
Y135500D01*
X752250Y193750D02*
X758250D01*
X755250Y190750D02*
Y196750D01*
X561074Y-11965D02*
X567074D01*
X564074Y-14965D02*
Y-8965D01*
X781074Y-51965D02*
X813074D01*
X797074Y-67965D02*
Y-35965D01*
X418074Y-11965D02*
X424074D01*
X421074Y-14965D02*
Y-8965D01*
X233000Y-11500D02*
X239000D01*
X236000Y-14500D02*
Y-8500D01*
X582074Y-11965D02*
X588074D01*
X585074Y-14965D02*
Y-8965D01*
X604074Y-11965D02*
X610074D01*
X607074Y-14965D02*
Y-8965D01*
X656074Y-11965D02*
X662074D01*
X659074Y-14965D02*
Y-8965D01*
X635073Y-11965D02*
X641073D01*
X638073Y-14965D02*
Y-8965D01*
X438826Y-11965D02*
X444826D01*
X441826Y-14965D02*
Y-8965D01*
X733074Y-11965D02*
X739074D01*
X736074Y-14965D02*
Y-8965D01*
X713074Y-11965D02*
X719074D01*
X716074Y-14965D02*
Y-8965D01*
X688074Y-11965D02*
X694074D01*
X691074Y-14965D02*
Y-8965D01*
X538826Y-11965D02*
X544826D01*
X541826Y-14965D02*
Y-8965D01*
X513826Y-11965D02*
X519826D01*
X516826Y-14965D02*
Y-8965D01*
X463826Y-11965D02*
X469826D01*
X466826Y-14965D02*
Y-8965D01*
X488826Y-11965D02*
X494826D01*
X491826Y-14965D02*
Y-8965D01*
X201074Y-51965D02*
X233074D01*
X217074Y-67965D02*
Y-35965D01*
M02*
