M48
;Layer_Color=9474304
;FILE_FORMAT=4:4
METRIC,LZ
;TYPE=PLATED
T1F00S00C0.6000
T2F00S00C0.8000
T3F00S00C1.0000
T4F00S00C3.2000
%
T01
X0082748Y001949
X0075525Y0019375
X0074225Y0023775
Y0025775
X0070625
X00708Y0028475
X00565Y0029075
X0051925Y0028025
X0048875Y0029275
X00492Y0026225
X0049Y0022375
Y0020525
X0045225Y00194
X00441826Y-00011965
X00421074
X0040075Y-0000925
X00466826Y-00011965
X00491826
X00516826
X00541826
X00564074
X00585074
X00607074
X00638073
X00659074
X00691074
X00716074
X00736074
X00694Y001325
X00678Y0015125
X00391Y0019325
X0034625Y00194
X0034725Y0022825
Y0024675
X0030225Y0022825
X002725Y0020425
Y0018425
X002755Y001255
Y001055
X003245Y00068
X00361529Y00070471
X0037875Y-0001
X003115Y-0001075
X0029125Y-0001125
X00236Y-000115
X0048875Y0031275
X00707Y00306
X0074275Y00299
Y00319
T02
X0080675Y002865
X0071375Y0009875
X0068875
X0066375
X0063875
X0061375
X0061325Y0003425
X0063825
X00693074Y00034035
X00718074
X00543826
X00518826
X00493826
X00468826
X00443826
X00474Y0012225
X0055
X0040625Y002895
X00338Y0028825
X0027275Y0028925
X00206Y002885
X0020675Y00208
Y00183
Y0012825
Y0010325
X0020525Y0004875
Y0002375
X0027025Y0002425
Y0004925
X0036425Y00034
X0038925
X00338Y0031325
X0027275Y0031425
X00206Y003135
X0040625Y003145
X0080675Y003115
T03
X00418236Y-00059965
X00443636
Y-00034565
X00418236
X00469036
X00494436
X00519836
X00545236
Y-00059965
X00519836
X00494436
X00469036
X00570636
X00596036
Y-00034565
X00621436
X00646836
Y-00059965
X00672236
Y-00034565
X00697636
Y-00059965
X00723036
X00748436
Y-00034565
X00723036
X00621436Y-00059965
X00570636Y-00034565
X00392836
X00367436
X00342036
Y-00059965
X00367436
X00392836
X00316636
X00291236
Y-00034565
X00265836
Y-00059965
X00316636Y-00034565
T04
X00797074Y-00051965
X00217074
M30
