G04*
G04 #@! TF.GenerationSoftware,Altium Limited,Altium Designer,20.0.11 (256)*
G04*
G04 Layer_Physical_Order=2*
G04 Layer_Color=16711680*
%FSLAX44Y44*%
%MOMM*%
G71*
G01*
G75*
%ADD14R,1.2500X0.9500*%
%ADD20R,1.5000X1.3000*%
%ADD30C,0.4000*%
%ADD31C,0.6000*%
%ADD33C,1.3080*%
%ADD34O,1.5240X2.0000*%
%ADD35O,2.0000X1.5000*%
%ADD36C,1.3980*%
%ADD37R,1.3980X1.3980*%
%ADD38O,2.0000X1.5240*%
%ADD39C,1.3000*%
%ADD40C,3.0000*%
%ADD41R,0.9000X0.8000*%
%ADD42R,1.3000X2.5000*%
%ADD43R,0.9500X1.2500*%
%ADD44R,0.9500X1.2500*%
%ADD45R,1.3000X1.5000*%
%ADD46R,1.5000X2.0000*%
%ADD47R,3.8000X2.0000*%
%ADD48R,1.1800X0.5800*%
%ADD49C,0.3000*%
%ADD50C,0.8000*%
G36*
X540799Y428630D02*
X539467Y428079D01*
X473000D01*
X467994Y426006D01*
X460994Y419006D01*
X458921Y414000D01*
Y406040D01*
X456752D01*
Y404079D01*
X451858D01*
X451569Y404776D01*
X443793Y407997D01*
X439806D01*
X435756Y412048D01*
X430750Y414121D01*
X427290D01*
Y415832D01*
X426329D01*
Y416314D01*
X424255Y421319D01*
X419569Y426006D01*
X414564Y428079D01*
X398533D01*
X397201Y428630D01*
X397449Y429876D01*
X540551D01*
X540799Y428630D01*
D02*
G37*
G36*
X658876Y4124D02*
X4124D01*
Y243210D01*
X9730D01*
Y252000D01*
Y260790D01*
X4124D01*
Y429876D01*
X87476D01*
X88710Y429790D01*
X88710Y428606D01*
Y422270D01*
X96000D01*
X103290D01*
X103290Y429790D01*
X104524Y429876D01*
X108476D01*
X109710Y429790D01*
Y412210D01*
X124290D01*
Y416086D01*
X129228D01*
Y413210D01*
X143808D01*
Y413210D01*
X144728D01*
Y413210D01*
X146021D01*
Y406040D01*
X141960D01*
Y402996D01*
X136582D01*
X134859Y407156D01*
X127083Y410377D01*
X119306Y407156D01*
X116085Y399380D01*
Y394620D01*
X119306Y386844D01*
X127083Y383623D01*
X134859Y386844D01*
X136582Y391003D01*
X141960D01*
Y387960D01*
Y382270D01*
X152000D01*
X162040D01*
Y387960D01*
Y406040D01*
X158014D01*
Y413210D01*
X159308D01*
Y416003D01*
X189061D01*
X196246Y408819D01*
X195527Y407742D01*
X190435Y409851D01*
Y398270D01*
X200162D01*
Y399380D01*
X197527Y405742D01*
X198604Y406461D01*
X203905Y401160D01*
X203168Y399380D01*
Y394620D01*
X206389Y386844D01*
X208169Y386107D01*
Y382040D01*
X200270D01*
Y372000D01*
Y361960D01*
X215560D01*
X226597Y350922D01*
X226215Y350000D01*
X226597Y349077D01*
X224954Y347434D01*
X217676D01*
X216977Y349122D01*
X209293Y352305D01*
X204293D01*
X196608Y349122D01*
X195909Y347434D01*
X162883D01*
X162184Y349122D01*
X154500Y352305D01*
X149500D01*
X141816Y349122D01*
X141117Y347434D01*
X137040D01*
Y356540D01*
X116960D01*
Y331460D01*
X137040D01*
Y335441D01*
X141117D01*
X141816Y333753D01*
X149500Y330570D01*
X154500D01*
X162184Y333753D01*
X162883Y335441D01*
X195909D01*
X196608Y333753D01*
X204293Y330570D01*
X209293D01*
X216977Y333753D01*
X217676Y335441D01*
X227437D01*
X228948Y336067D01*
X230004Y335361D01*
Y269754D01*
X214690Y254440D01*
X209290D01*
Y247083D01*
X208117Y246597D01*
X206903Y247811D01*
Y255189D01*
X216622Y264908D01*
X216622Y264908D01*
X217903Y268000D01*
X217903Y268000D01*
Y272523D01*
X222362D01*
Y286752D01*
X222362Y287103D01*
Y288022D01*
X222362Y288372D01*
Y302603D01*
X204782D01*
Y301309D01*
X202320D01*
Y302603D01*
X184740D01*
Y301309D01*
X182277D01*
Y302603D01*
X164697D01*
Y301309D01*
X162235D01*
Y302603D01*
X144655D01*
Y300847D01*
X143538D01*
X139298Y299091D01*
X127204Y286996D01*
X125540D01*
Y293540D01*
X109997D01*
Y331460D01*
X114040D01*
Y356540D01*
X109997D01*
Y359000D01*
X108240Y363240D01*
X101240Y370240D01*
X97000Y371996D01*
X79484D01*
X64694Y386787D01*
X65180Y387960D01*
X69730D01*
Y398000D01*
Y408040D01*
X45960D01*
Y403914D01*
X40893D01*
X40156Y405694D01*
X32380Y408915D01*
X27620D01*
X19844Y405694D01*
X16623Y397918D01*
X19844Y390141D01*
X27620Y386920D01*
X32380D01*
X40156Y390141D01*
X40893Y391921D01*
X45960D01*
Y387960D01*
X50160D01*
Y386843D01*
X51917Y382603D01*
X72760Y361760D01*
X77000Y360004D01*
X94516D01*
X96806Y357713D01*
X96320Y356540D01*
X93960D01*
Y331460D01*
X98004D01*
Y293540D01*
X82460D01*
Y292680D01*
X81287Y292194D01*
X64040Y309440D01*
Y316960D01*
Y324730D01*
X54000D01*
X43960D01*
Y316831D01*
X40893D01*
X40156Y318611D01*
X32380Y321832D01*
X27620D01*
X19844Y318611D01*
X16623Y310835D01*
X19844Y303059D01*
X27620Y299838D01*
X32380D01*
X40156Y303059D01*
X40893Y304839D01*
X43960D01*
Y300960D01*
X55560D01*
X78760Y277760D01*
X82460Y276227D01*
Y268460D01*
X91316D01*
Y261419D01*
X87128Y259684D01*
X86429Y257996D01*
X74082D01*
Y260790D01*
X59853D01*
X59503Y260790D01*
X58583D01*
X58232Y260790D01*
X44002D01*
Y256914D01*
X39290D01*
Y260790D01*
X24710D01*
Y243210D01*
X39290D01*
Y247086D01*
X44002D01*
Y243210D01*
X58232D01*
X58583Y243210D01*
X59503D01*
X59853Y243210D01*
X74082D01*
Y246003D01*
X86429D01*
X87128Y244316D01*
X94812Y241133D01*
X99813D01*
X107497Y244316D01*
X110680Y252000D01*
X107497Y259684D01*
X103309Y261419D01*
Y268460D01*
X125540D01*
Y275004D01*
X129688D01*
X133928Y276760D01*
X143385Y286217D01*
X144655Y285691D01*
Y272523D01*
X150177D01*
X151350Y272320D01*
X152631Y269228D01*
X163530Y258329D01*
X163530Y258329D01*
X163530Y258329D01*
X166246Y255613D01*
X165760Y254440D01*
X156090D01*
Y253914D01*
X150000D01*
X146525Y252475D01*
X145115Y251065D01*
X144039Y251784D01*
X145259Y254730D01*
X137270D01*
Y246741D01*
X140216Y247961D01*
X140935Y246885D01*
X101978Y207928D01*
X99813Y208825D01*
X94812D01*
X87128Y205642D01*
X85981Y202871D01*
X60210D01*
X42192Y220890D01*
X43377Y223752D01*
X40156Y231528D01*
X32380Y234750D01*
X27620D01*
X19844Y231528D01*
X16623Y223752D01*
X19844Y215976D01*
X27620Y212755D01*
X32380D01*
X35242Y213941D01*
X54700Y194483D01*
X58175Y193043D01*
X85981D01*
X87128Y190273D01*
X94812Y187090D01*
X99813D01*
X107497Y190273D01*
X110680Y197957D01*
X109282Y201332D01*
X110913Y202963D01*
X112086Y202477D01*
Y191035D01*
X103392Y182342D01*
X99813Y183825D01*
X94812D01*
X87128Y180642D01*
X85981Y177871D01*
X60210D01*
X42192Y195890D01*
X43377Y198752D01*
X40156Y206528D01*
X32380Y209750D01*
X27620D01*
X19844Y206528D01*
X16623Y198752D01*
X19844Y190976D01*
X27620Y187755D01*
X32380D01*
X35242Y188941D01*
X54700Y169483D01*
X58175Y168043D01*
X85981D01*
X87128Y165273D01*
X94812Y162090D01*
X99813D01*
X107497Y165273D01*
X110680Y172957D01*
X109868Y174918D01*
X117913Y182963D01*
X119086Y182477D01*
Y172638D01*
X100815Y154367D01*
X99813Y154782D01*
X94812D01*
X87128Y151599D01*
X85981Y148829D01*
X42667D01*
X39192Y147390D01*
X37393Y145591D01*
X32380Y147667D01*
X27620D01*
X19844Y144446D01*
X16623Y136670D01*
X19844Y128894D01*
X27620Y125673D01*
X32380D01*
X40156Y128894D01*
X43377Y136670D01*
X43082Y137381D01*
X44702Y139001D01*
X85981D01*
X87128Y136231D01*
X94812Y133048D01*
X99813D01*
X104741Y135089D01*
X105461Y134012D01*
X100815Y129367D01*
X99813Y129782D01*
X94812D01*
X87128Y126599D01*
X85981Y123829D01*
X42667D01*
X39192Y122390D01*
X37393Y120591D01*
X32380Y122667D01*
X27620D01*
X19844Y119446D01*
X16623Y111670D01*
X19844Y103894D01*
X27620Y100673D01*
X32380D01*
X40156Y103894D01*
X43377Y111670D01*
X43082Y112381D01*
X44702Y114001D01*
X85981D01*
X87128Y111231D01*
X94812Y108048D01*
X99302D01*
X99839Y106789D01*
X93525Y100475D01*
X92086Y97000D01*
Y91749D01*
X90081Y90919D01*
X89135Y88635D01*
X87865D01*
X86919Y90919D01*
X81270Y93259D01*
Y84000D01*
Y74741D01*
X86919Y77081D01*
X87865Y79365D01*
X89135D01*
X90081Y77081D01*
X97000Y74215D01*
X103919Y77081D01*
X106313Y82860D01*
X107687D01*
X110081Y77081D01*
X117000Y74215D01*
X123919Y77081D01*
X126785Y84000D01*
X125954Y86005D01*
X157913Y117963D01*
X159086Y117477D01*
Y91749D01*
X157081Y90919D01*
X154215Y84000D01*
X157081Y77081D01*
X164000Y74215D01*
X170919Y77081D01*
X171865Y79365D01*
X173135D01*
X174081Y77081D01*
X181000Y74215D01*
X187919Y77081D01*
X190785Y84000D01*
X187919Y90919D01*
X185749Y91818D01*
Y117727D01*
X188446Y118844D01*
X191667Y126620D01*
Y131380D01*
X188446Y139156D01*
X182256Y141720D01*
X182008Y142966D01*
X186688Y147645D01*
X247477D01*
X250951Y149084D01*
X265452Y163585D01*
X273152D01*
X273638Y162411D01*
X242525Y131299D01*
X241086Y127824D01*
Y91749D01*
X239081Y90919D01*
X236215Y84000D01*
X239081Y77081D01*
X246000Y74215D01*
X252919Y77081D01*
X255785Y84000D01*
X252919Y90919D01*
X250914Y91749D01*
Y125789D01*
X254582Y129457D01*
X255755Y128971D01*
Y126620D01*
X258976Y118844D01*
X261838Y117658D01*
Y91749D01*
X259834Y90919D01*
X256968Y84000D01*
X259834Y77081D01*
X266752Y74215D01*
X273671Y77081D01*
X276537Y84000D01*
X273671Y90919D01*
X271667Y91749D01*
Y117658D01*
X274529Y118844D01*
X277750Y126620D01*
Y131380D01*
X274529Y139156D01*
X268339Y141720D01*
X268091Y142966D01*
X294702Y169576D01*
X295875Y169090D01*
Y167935D01*
X295875Y167585D01*
Y153355D01*
X313455D01*
Y155658D01*
X315917D01*
Y153210D01*
X326548D01*
X329088Y150670D01*
X332563Y149231D01*
X339960D01*
Y147605D01*
X354040D01*
Y160685D01*
X339960D01*
Y159059D01*
X334598D01*
X333498Y160159D01*
X333498Y167790D01*
X334541Y168336D01*
X336246D01*
X336500Y168231D01*
X339960D01*
Y166605D01*
X354040D01*
Y179685D01*
X339960D01*
Y178059D01*
X336649D01*
X336395Y178164D01*
X333498D01*
Y183290D01*
X315917D01*
Y169060D01*
X315917Y168710D01*
Y167790D01*
X315917Y167440D01*
Y165487D01*
X313455D01*
Y167585D01*
X313455Y167935D01*
Y168855D01*
X313455Y169205D01*
Y183435D01*
X295875D01*
Y180914D01*
X294176D01*
X294176Y180914D01*
X290701Y179475D01*
X277256Y166030D01*
X276082Y166516D01*
Y178165D01*
X276082D01*
Y179085D01*
X276082D01*
Y193665D01*
X271914D01*
Y201000D01*
X270475Y204475D01*
X232877Y242073D01*
X233403Y243343D01*
X306028D01*
X306281Y242073D01*
X301081Y239919D01*
X298741Y234270D01*
X317259D01*
X314919Y239919D01*
X309719Y242073D01*
X309972Y243343D01*
X335324D01*
X337663Y237695D01*
X344613Y234817D01*
X351562Y237695D01*
X354441Y244645D01*
X351562Y251595D01*
X344613Y254473D01*
X342305Y253517D01*
X342242Y253579D01*
X338002Y255336D01*
X234205D01*
X233719Y256509D01*
X240240Y263030D01*
X241996Y267270D01*
Y342699D01*
X242919Y343081D01*
X245785Y350000D01*
X242919Y356919D01*
X236000Y359785D01*
X235078Y359403D01*
X224040Y370440D01*
Y382040D01*
X220161D01*
Y386107D01*
X221941Y386844D01*
X225162Y394620D01*
Y399380D01*
X221941Y407156D01*
X214165Y410377D01*
X212385Y409640D01*
X195785Y426240D01*
X191545Y427996D01*
X159308D01*
Y429876D01*
X367551D01*
X367799Y428630D01*
X366081Y427919D01*
X363741Y422270D01*
X373000D01*
Y419730D01*
X363741D01*
X366081Y414081D01*
X371381Y411886D01*
X371629Y410640D01*
X370494Y409506D01*
X370494Y409505D01*
X363568Y402579D01*
X360040D01*
X359705Y403710D01*
X359705Y404060D01*
Y418290D01*
X342125D01*
Y415914D01*
X339662D01*
Y418290D01*
X322082D01*
Y415414D01*
X317542D01*
X316919Y416919D01*
X310000Y419785D01*
X303081Y416919D01*
X300215Y410000D01*
X303081Y403081D01*
X310000Y400215D01*
X316919Y403081D01*
X317956Y405586D01*
X322082D01*
Y404060D01*
X322082Y403710D01*
Y402790D01*
X322082Y402440D01*
Y396770D01*
X330872D01*
X339662D01*
Y402440D01*
X339662Y402790D01*
Y403710D01*
X339662Y404060D01*
Y406086D01*
X342125D01*
Y404060D01*
X342125Y403710D01*
Y402790D01*
X342125Y402440D01*
Y388210D01*
X359705D01*
Y388421D01*
X366500D01*
X371506Y390494D01*
X375440Y394429D01*
X376710Y393903D01*
Y387270D01*
X382730D01*
Y394790D01*
X377597D01*
X377071Y396060D01*
X380505Y399495D01*
X380505Y399495D01*
X392386Y411375D01*
X396154Y412936D01*
X397210Y412230D01*
Y398252D01*
X399836D01*
Y394790D01*
X397710D01*
Y377210D01*
X412290D01*
Y394790D01*
X409664D01*
Y398252D01*
X411790D01*
X411790Y398252D01*
X412710D01*
Y398252D01*
X413060Y398252D01*
X427180D01*
X428181Y397352D01*
X428036Y397000D01*
X429781Y392785D01*
X412075Y375079D01*
X405996D01*
X404695Y374540D01*
X394456D01*
Y366579D01*
X356536D01*
Y374540D01*
X338456D01*
Y344460D01*
X356536D01*
Y352421D01*
X394456D01*
Y344460D01*
X412536D01*
Y360921D01*
X415007D01*
X420013Y362994D01*
X427515Y370497D01*
X428761Y370249D01*
X431256Y364224D01*
X439033Y361003D01*
X440143D01*
Y372000D01*
X441413D01*
Y373270D01*
X454264D01*
X451569Y379776D01*
X443793Y382997D01*
X441675D01*
X441189Y384170D01*
X442653Y385634D01*
X442805Y386003D01*
X443793D01*
X451569Y389224D01*
X451858Y389921D01*
X456752D01*
Y385960D01*
X458276D01*
Y383040D01*
X456315D01*
Y362960D01*
X457921D01*
Y359790D01*
X457710D01*
Y342210D01*
X471940D01*
X472290Y342210D01*
X473210D01*
X473560Y342210D01*
X475586D01*
Y338790D01*
X473560D01*
X473210Y338790D01*
X472290D01*
X471940Y338790D01*
X466270D01*
Y330000D01*
Y321210D01*
X471940D01*
X472290Y321210D01*
X473210D01*
X473560Y321210D01*
X487790D01*
Y325086D01*
X490251D01*
X491081Y323081D01*
X498000Y320215D01*
X504919Y323081D01*
X507785Y330000D01*
X504919Y336919D01*
X498000Y339785D01*
X491081Y336919D01*
X490251Y334914D01*
X487790D01*
Y338790D01*
X485414D01*
Y342210D01*
X487790D01*
Y359790D01*
X473560D01*
X473210Y359790D01*
X472079Y360125D01*
Y362960D01*
X480085D01*
Y373000D01*
Y383040D01*
X472434D01*
Y385960D01*
X480522D01*
Y396000D01*
Y406040D01*
X473079D01*
Y411068D01*
X475932Y413921D01*
X539467D01*
X546000Y411215D01*
X552919Y414081D01*
X555785Y421000D01*
X552919Y427919D01*
X551201Y428630D01*
X551449Y429876D01*
X658876D01*
Y4124D01*
D02*
G37*
G36*
X184740Y288418D02*
X184740Y287103D01*
X184740Y286752D01*
Y272523D01*
X189157D01*
Y257216D01*
X187984Y256730D01*
X177860Y266854D01*
Y272523D01*
X182277D01*
Y286752D01*
X182277Y287103D01*
Y288046D01*
X182770Y288839D01*
X184196Y288961D01*
X184740Y288418D01*
D02*
G37*
G36*
X175157Y246702D02*
Y228063D01*
X175157Y228062D01*
X176438Y224970D01*
X186469Y214939D01*
X186171Y213441D01*
X183838Y212475D01*
X165028Y193665D01*
X154210D01*
Y190054D01*
X153877Y189250D01*
X154210Y188446D01*
Y179085D01*
X154210D01*
Y178165D01*
X154210D01*
Y173643D01*
X152964Y173395D01*
X151919Y175919D01*
X146270Y178259D01*
Y169000D01*
Y159741D01*
X151919Y162081D01*
X152964Y164605D01*
X154210Y164357D01*
Y163585D01*
X154976D01*
X155462Y162411D01*
X111853Y118803D01*
X110530Y119276D01*
X108800Y123453D01*
X134475Y149128D01*
X134475Y149128D01*
X135914Y152602D01*
X135914Y152602D01*
Y164058D01*
X137160Y164306D01*
X138081Y162081D01*
X143730Y159741D01*
Y169000D01*
Y178259D01*
X138081Y175919D01*
X137160Y173694D01*
X135914Y173942D01*
Y196964D01*
X153035Y214086D01*
X156090D01*
Y210270D01*
X164530D01*
X172970D01*
Y213560D01*
Y223560D01*
Y233560D01*
Y247230D01*
X174143Y247716D01*
X175157Y246702D01*
D02*
G37*
G36*
X240378Y207349D02*
Y193665D01*
X238295D01*
Y179085D01*
X238295D01*
Y178165D01*
X238295D01*
Y170534D01*
X237006Y169245D01*
X235833Y169731D01*
Y178165D01*
X235833D01*
Y179085D01*
X235833D01*
Y193665D01*
X233084D01*
Y212984D01*
X234257Y213470D01*
X240378Y207349D01*
D02*
G37*
G36*
X262086Y198965D02*
Y193665D01*
X258503D01*
Y179085D01*
X258502D01*
Y178165D01*
X258503D01*
Y170534D01*
X257048Y169080D01*
X255875Y169566D01*
Y178165D01*
X255875D01*
Y179085D01*
X255875D01*
Y193665D01*
X250207D01*
Y209048D01*
X251343Y209708D01*
X262086Y198965D01*
D02*
G37*
G36*
X209290Y203560D02*
X223256D01*
Y193665D01*
X218253D01*
Y179085D01*
X218253D01*
Y178165D01*
X218253D01*
Y175789D01*
X184470D01*
X180995Y174350D01*
X172963Y166318D01*
X171790Y166804D01*
Y178165D01*
X171790D01*
Y179085D01*
X171790D01*
Y186528D01*
X189348Y204086D01*
X209290D01*
Y203560D01*
D02*
G37*
G36*
X126086Y164079D02*
Y154638D01*
X109715Y138267D01*
X108638Y138986D01*
X110680Y143915D01*
X108800Y148453D01*
X124913Y164565D01*
X126086Y164079D01*
D02*
G37*
G36*
X122533Y114090D02*
X124633Y109020D01*
X130744Y106489D01*
X131042Y104991D01*
X119005Y92954D01*
X117000Y93785D01*
X110081Y90919D01*
X107687Y85140D01*
X106313D01*
X103919Y90919D01*
X101914Y91749D01*
Y94965D01*
X121288Y114338D01*
X122533Y114090D01*
D02*
G37*
G36*
X172894Y118844D02*
X175921Y117590D01*
Y91681D01*
X174081Y90919D01*
X173135Y88635D01*
X171865D01*
X170919Y90919D01*
X168914Y91749D01*
Y125133D01*
X170184Y125386D01*
X172894Y118844D01*
D02*
G37*
%LPC*%
G36*
X103290Y419730D02*
X97270D01*
Y412210D01*
X103290D01*
Y419730D01*
D02*
G37*
G36*
X94730D02*
X88710D01*
Y412210D01*
X94730D01*
Y419730D01*
D02*
G37*
G36*
X608833Y412851D02*
Y401270D01*
X618560D01*
Y402380D01*
X615339Y410156D01*
X608833Y412851D01*
D02*
G37*
G36*
X633832Y412851D02*
Y401270D01*
X643560D01*
Y402380D01*
X640339Y410156D01*
X633832Y412851D01*
D02*
G37*
G36*
X631292Y412851D02*
X624786Y410156D01*
X621565Y402380D01*
Y401270D01*
X631292D01*
Y412851D01*
D02*
G37*
G36*
X606293Y412851D02*
X599786Y410156D01*
X596565Y402380D01*
Y401270D01*
X606293D01*
Y412851D01*
D02*
G37*
G36*
X80040Y408040D02*
X72270D01*
Y399270D01*
X80040D01*
Y408040D01*
D02*
G37*
G36*
X103352Y409851D02*
Y398270D01*
X113080D01*
Y399380D01*
X109859Y407156D01*
X103352Y409851D01*
D02*
G37*
G36*
X187895Y409851D02*
X181389Y407156D01*
X178168Y399380D01*
Y398270D01*
X187895D01*
Y409851D01*
D02*
G37*
G36*
X100813Y409851D02*
X94306Y407156D01*
X91085Y399380D01*
Y398270D01*
X100813D01*
Y409851D01*
D02*
G37*
G36*
X490832Y406040D02*
X483063D01*
Y397270D01*
X490832D01*
Y406040D01*
D02*
G37*
G36*
X339662Y394230D02*
X332142D01*
Y388210D01*
X339662D01*
Y394230D01*
D02*
G37*
G36*
X329602D02*
X322082D01*
Y388210D01*
X329602D01*
Y394230D01*
D02*
G37*
G36*
X80040Y396730D02*
X72270D01*
Y387960D01*
X80040D01*
Y396730D01*
D02*
G37*
G36*
X391290Y394790D02*
X385270D01*
Y387270D01*
X391290D01*
Y394790D01*
D02*
G37*
G36*
X618560Y398730D02*
X608833D01*
Y387149D01*
X615339Y389844D01*
X618560Y397620D01*
Y398730D01*
D02*
G37*
G36*
X631292D02*
X621565D01*
Y397620D01*
X624786Y389844D01*
X631292Y387149D01*
Y398730D01*
D02*
G37*
G36*
X643560D02*
X633832D01*
Y387149D01*
X640339Y389844D01*
X643560Y397620D01*
Y398730D01*
D02*
G37*
G36*
X606293D02*
X596565D01*
Y397620D01*
X599786Y389844D01*
X606293Y387149D01*
Y398730D01*
D02*
G37*
G36*
X490832Y394730D02*
X483063D01*
Y385960D01*
X490832D01*
Y394730D01*
D02*
G37*
G36*
X187895Y395730D02*
X178168D01*
Y394620D01*
X181389Y386844D01*
X187895Y384149D01*
Y395730D01*
D02*
G37*
G36*
X113080D02*
X103352D01*
Y384149D01*
X109859Y386844D01*
X113080Y394620D01*
Y395730D01*
D02*
G37*
G36*
X100813D02*
X91085D01*
Y394620D01*
X94306Y386844D01*
X100813Y384149D01*
Y395730D01*
D02*
G37*
G36*
X200162D02*
X190435D01*
Y384149D01*
X196941Y386844D01*
X200162Y394620D01*
Y395730D01*
D02*
G37*
G36*
X391290Y384730D02*
X385270D01*
Y377210D01*
X391290D01*
Y384730D01*
D02*
G37*
G36*
X382730D02*
X376710D01*
Y377210D01*
X382730D01*
Y384730D01*
D02*
G37*
G36*
X490395Y383040D02*
X482625D01*
Y374270D01*
X490395D01*
Y383040D01*
D02*
G37*
G36*
X32380Y383915D02*
X31270D01*
Y374188D01*
X42851D01*
X40156Y380694D01*
X32380Y383915D01*
D02*
G37*
G36*
X28730D02*
X27620D01*
X19844Y380694D01*
X17149Y374188D01*
X28730D01*
Y383915D01*
D02*
G37*
G36*
X197730Y382040D02*
X189960D01*
Y373270D01*
X197730D01*
Y382040D01*
D02*
G37*
G36*
X319270Y381259D02*
Y373270D01*
X327259D01*
X324919Y378919D01*
X319270Y381259D01*
D02*
G37*
G36*
X316730D02*
X311081Y378919D01*
X308741Y373270D01*
X316730D01*
Y381259D01*
D02*
G37*
G36*
X162040Y379730D02*
X153270D01*
Y371960D01*
X162040D01*
Y379730D01*
D02*
G37*
G36*
X150730D02*
X141960D01*
Y371960D01*
X150730D01*
Y379730D01*
D02*
G37*
G36*
X490395Y371730D02*
X482625D01*
Y362960D01*
X490395D01*
Y371730D01*
D02*
G37*
G36*
X327259Y370730D02*
X319270D01*
Y362741D01*
X324919Y365081D01*
X327259Y370730D01*
D02*
G37*
G36*
X316730D02*
X308741D01*
X311081Y365081D01*
X316730Y362741D01*
Y370730D01*
D02*
G37*
G36*
X197730Y370730D02*
X189960D01*
Y361960D01*
X197730D01*
Y370730D01*
D02*
G37*
G36*
X42851Y371647D02*
X31270D01*
Y361920D01*
X32380D01*
X40156Y365141D01*
X42851Y371647D01*
D02*
G37*
G36*
X28730D02*
X17149D01*
X19844Y365141D01*
X27620Y361920D01*
X28730D01*
Y371647D01*
D02*
G37*
G36*
X454264Y370730D02*
X442683D01*
Y361003D01*
X443793D01*
X451569Y364224D01*
X454264Y370730D01*
D02*
G37*
G36*
X91040Y356540D02*
X82270D01*
Y345270D01*
X91040D01*
Y356540D01*
D02*
G37*
G36*
X79730D02*
X70960D01*
Y345270D01*
X79730D01*
Y356540D01*
D02*
G37*
G36*
X442270Y340259D02*
Y332270D01*
X450259D01*
X447919Y337919D01*
X442270Y340259D01*
D02*
G37*
G36*
X439730D02*
X434081Y337919D01*
X431741Y332270D01*
X439730D01*
Y340259D01*
D02*
G37*
G36*
X91040Y342730D02*
X82270D01*
Y331460D01*
X91040D01*
Y342730D01*
D02*
G37*
G36*
X79730D02*
X70960D01*
Y331460D01*
X79730D01*
Y342730D01*
D02*
G37*
G36*
X463730Y338790D02*
X457710D01*
Y331270D01*
X463730D01*
Y338790D01*
D02*
G37*
G36*
X524270Y339259D02*
Y331270D01*
X532259D01*
X529919Y336919D01*
X524270Y339259D01*
D02*
G37*
G36*
X521730D02*
X516081Y336919D01*
X513741Y331270D01*
X521730D01*
Y339259D01*
D02*
G37*
G36*
X609270Y340246D02*
Y328665D01*
X618997D01*
Y329775D01*
X615776Y337551D01*
X609270Y340246D01*
D02*
G37*
G36*
X634270Y340246D02*
Y328665D01*
X643997D01*
Y329775D01*
X640776Y337551D01*
X634270Y340246D01*
D02*
G37*
G36*
X631730Y340246D02*
X625224Y337551D01*
X622003Y329775D01*
Y328665D01*
X631730D01*
Y340246D01*
D02*
G37*
G36*
X606730Y340246D02*
X600224Y337551D01*
X597003Y329775D01*
Y328665D01*
X606730D01*
Y340246D01*
D02*
G37*
G36*
X64040Y335040D02*
X55270D01*
Y327270D01*
X64040D01*
Y335040D01*
D02*
G37*
G36*
X52730D02*
X43960D01*
Y327270D01*
X52730D01*
Y335040D01*
D02*
G37*
G36*
X412536Y339540D02*
X404766D01*
Y325770D01*
X412536D01*
Y339540D01*
D02*
G37*
G36*
X356536D02*
X348766D01*
Y325770D01*
X356536D01*
Y339540D01*
D02*
G37*
G36*
X402226D02*
X394456D01*
Y325770D01*
X402226D01*
Y339540D01*
D02*
G37*
G36*
X346226D02*
X338456D01*
Y325770D01*
X346226D01*
Y339540D01*
D02*
G37*
G36*
X450259Y329730D02*
X442270D01*
Y321741D01*
X447919Y324081D01*
X450259Y329730D01*
D02*
G37*
G36*
X439730D02*
X431741D01*
X434081Y324081D01*
X439730Y321741D01*
Y329730D01*
D02*
G37*
G36*
X463730Y328730D02*
X457710D01*
Y321210D01*
X463730D01*
Y328730D01*
D02*
G37*
G36*
X532259Y328730D02*
X524270D01*
Y320741D01*
X529919Y323081D01*
X532259Y328730D01*
D02*
G37*
G36*
X521730D02*
X513741D01*
X516081Y323081D01*
X521730Y320741D01*
Y328730D01*
D02*
G37*
G36*
X209293Y327305D02*
X208063D01*
Y317708D01*
X219634D01*
X216977Y324122D01*
X209293Y327305D01*
D02*
G37*
G36*
X205523D02*
X204293D01*
X196608Y324122D01*
X193951Y317708D01*
X205523D01*
Y327305D01*
D02*
G37*
G36*
X154500D02*
X153270D01*
Y317708D01*
X164841D01*
X162184Y324122D01*
X154500Y327305D01*
D02*
G37*
G36*
X150730D02*
X149500D01*
X141816Y324122D01*
X139159Y317708D01*
X150730D01*
Y327305D01*
D02*
G37*
G36*
X631730Y326125D02*
X622003D01*
Y325015D01*
X625224Y317239D01*
X631730Y314544D01*
Y326125D01*
D02*
G37*
G36*
X618997D02*
X609270D01*
Y314544D01*
X615776Y317239D01*
X618997Y325015D01*
Y326125D01*
D02*
G37*
G36*
X606730D02*
X597003D01*
Y325015D01*
X600224Y317239D01*
X606730Y314544D01*
Y326125D01*
D02*
G37*
G36*
X643997D02*
X634270D01*
Y314544D01*
X640776Y317239D01*
X643997Y325015D01*
Y326125D01*
D02*
G37*
G36*
X412536Y323230D02*
X404766D01*
Y309460D01*
X412536D01*
Y323230D01*
D02*
G37*
G36*
X402226D02*
X394456D01*
Y309460D01*
X402226D01*
Y323230D01*
D02*
G37*
G36*
X356536D02*
X348766D01*
Y309460D01*
X356536D01*
Y323230D01*
D02*
G37*
G36*
X346226D02*
X338456D01*
Y309460D01*
X346226D01*
Y323230D01*
D02*
G37*
G36*
X219634Y315168D02*
X208063D01*
Y305570D01*
X209293D01*
X216977Y308753D01*
X219634Y315168D01*
D02*
G37*
G36*
X205523D02*
X193951D01*
X196608Y308753D01*
X204293Y305570D01*
X205523D01*
Y315168D01*
D02*
G37*
G36*
X164841Y315168D02*
X153270D01*
Y305570D01*
X154500D01*
X162184Y308753D01*
X164841Y315168D01*
D02*
G37*
G36*
X150730D02*
X139159D01*
X141816Y308753D01*
X149500Y305570D01*
X150730D01*
Y315168D01*
D02*
G37*
G36*
X309270Y300259D02*
Y292270D01*
X317259D01*
X314919Y297919D01*
X309270Y300259D01*
D02*
G37*
G36*
X306730D02*
X301081Y297919D01*
X298741Y292270D01*
X306730D01*
Y300259D01*
D02*
G37*
G36*
X280270D02*
Y292270D01*
X288259D01*
X285919Y297919D01*
X280270Y300259D01*
D02*
G37*
G36*
X277730D02*
X272081Y297919D01*
X269741Y292270D01*
X277730D01*
Y300259D01*
D02*
G37*
G36*
X256270D02*
Y292270D01*
X264259D01*
X261919Y297919D01*
X256270Y300259D01*
D02*
G37*
G36*
X253730D02*
X248081Y297919D01*
X245741Y292270D01*
X253730D01*
Y300259D01*
D02*
G37*
G36*
X32380Y296832D02*
X31270D01*
Y287105D01*
X42851D01*
X40156Y293611D01*
X32380Y296832D01*
D02*
G37*
G36*
X28730D02*
X27620D01*
X19844Y293611D01*
X17149Y287105D01*
X28730D01*
Y296832D01*
D02*
G37*
G36*
X264259Y289730D02*
X256270D01*
Y281741D01*
X261919Y284081D01*
X264259Y289730D01*
D02*
G37*
G36*
X253730D02*
X245741D01*
X248081Y284081D01*
X253730Y281741D01*
Y289730D01*
D02*
G37*
G36*
X42851Y284565D02*
X31270D01*
Y274838D01*
X32380D01*
X40156Y278059D01*
X42851Y284565D01*
D02*
G37*
G36*
X28730D02*
X17149D01*
X19844Y278059D01*
X27620Y274838D01*
X28730D01*
Y284565D01*
D02*
G37*
G36*
X317259Y289730D02*
X298741D01*
X301081Y284081D01*
X306860Y281687D01*
Y280313D01*
X301081Y277919D01*
X298741Y272270D01*
X317259D01*
X314919Y277919D01*
X309140Y280313D01*
Y281687D01*
X314919Y284081D01*
X317259Y289730D01*
D02*
G37*
G36*
X288259D02*
X269741D01*
X272081Y284081D01*
X277860Y281687D01*
Y280313D01*
X272081Y277919D01*
X269741Y272270D01*
X288259D01*
X285919Y277919D01*
X280140Y280313D01*
Y281687D01*
X285919Y284081D01*
X288259Y289730D01*
D02*
G37*
G36*
X588270Y277529D02*
Y269540D01*
X596259D01*
X593919Y275189D01*
X588270Y277529D01*
D02*
G37*
G36*
X585730D02*
X580081Y275189D01*
X577741Y269540D01*
X585730D01*
Y277529D01*
D02*
G37*
G36*
X317259Y269730D02*
X309270D01*
Y261741D01*
X314919Y264081D01*
X317259Y269730D01*
D02*
G37*
G36*
X306730D02*
X298741D01*
X301081Y264081D01*
X306730Y261741D01*
Y269730D01*
D02*
G37*
G36*
X288259D02*
X280270D01*
Y261741D01*
X285919Y264081D01*
X288259Y269730D01*
D02*
G37*
G36*
X277730D02*
X269741D01*
X272081Y264081D01*
X277730Y261741D01*
Y269730D01*
D02*
G37*
G36*
X636380Y267310D02*
X635270D01*
Y257582D01*
X646851D01*
X644156Y264089D01*
X636380Y267310D01*
D02*
G37*
G36*
X632730D02*
X631620D01*
X623844Y264089D01*
X621149Y257582D01*
X632730D01*
Y267310D01*
D02*
G37*
G36*
X137270Y265259D02*
Y257270D01*
X145259D01*
X142919Y262919D01*
X137270Y265259D01*
D02*
G37*
G36*
X134730D02*
X129081Y262919D01*
X126741Y257270D01*
X134730D01*
Y265259D01*
D02*
G37*
G36*
X18290Y260790D02*
X12270D01*
Y253270D01*
X18290D01*
Y260790D01*
D02*
G37*
G36*
X596259Y267000D02*
X577741D01*
X580081Y261351D01*
X586186Y258822D01*
Y257448D01*
X580081Y254919D01*
X577741Y249270D01*
X596259D01*
X593919Y254919D01*
X587814Y257448D01*
Y258822D01*
X593919Y261351D01*
X596259Y267000D01*
D02*
G37*
G36*
X134730Y254730D02*
X126741D01*
X129081Y249081D01*
X134730Y246741D01*
Y254730D01*
D02*
G37*
G36*
X646851Y255042D02*
X635270D01*
Y245315D01*
X636380D01*
X644156Y248536D01*
X646851Y255042D01*
D02*
G37*
G36*
X632730D02*
X621149D01*
X623844Y248536D01*
X631620Y245315D01*
X632730D01*
Y255042D01*
D02*
G37*
G36*
X18290Y250730D02*
X12270D01*
Y243210D01*
X18290D01*
Y250730D01*
D02*
G37*
G36*
X596259Y246730D02*
X588270D01*
Y238741D01*
X593919Y241081D01*
X596259Y246730D01*
D02*
G37*
G36*
X585730D02*
X577741D01*
X580081Y241081D01*
X585730Y238741D01*
Y246730D01*
D02*
G37*
G36*
X420612Y254473D02*
X413663Y251595D01*
X410784Y244645D01*
X411628Y242609D01*
X363525Y194507D01*
X362086Y191032D01*
Y170185D01*
X359960D01*
Y157105D01*
X374040D01*
Y170185D01*
X371914D01*
Y188997D01*
X418577Y235660D01*
X420612Y234817D01*
X427562Y237695D01*
X430441Y244645D01*
X427562Y251595D01*
X420612Y254473D01*
D02*
G37*
G36*
X99813Y237867D02*
X98582D01*
Y228270D01*
X110154D01*
X107497Y234684D01*
X99813Y237867D01*
D02*
G37*
G36*
X96042D02*
X94812D01*
X87128Y234684D01*
X84471Y228270D01*
X96042D01*
Y237867D01*
D02*
G37*
G36*
X588270Y234259D02*
Y226270D01*
X596259D01*
X593919Y231919D01*
X588270Y234259D01*
D02*
G37*
G36*
X585730D02*
X580081Y231919D01*
X577741Y226270D01*
X585730D01*
Y234259D01*
D02*
G37*
G36*
X317259Y231730D02*
X309270D01*
Y223741D01*
X314919Y226081D01*
X317259Y231730D01*
D02*
G37*
G36*
X306730D02*
X298741D01*
X301081Y226081D01*
X306730Y223741D01*
Y231730D01*
D02*
G37*
G36*
X636380Y242310D02*
X631620D01*
X623844Y239089D01*
X620623Y231313D01*
X622505Y226768D01*
X572652Y176914D01*
X423000D01*
X419525Y175475D01*
X385525Y141475D01*
X384086Y138000D01*
Y91749D01*
X382081Y90919D01*
X379215Y84000D01*
X382081Y77081D01*
X389000Y74215D01*
X395919Y77081D01*
X398785Y84000D01*
X397039Y88216D01*
X398115Y88935D01*
X401046Y86005D01*
X400215Y84000D01*
X403081Y77081D01*
X410000Y74215D01*
X416919Y77081D01*
X419785Y84000D01*
X417331Y89923D01*
X418408Y90642D01*
X423046Y86005D01*
X422215Y84000D01*
X425081Y77081D01*
X432000Y74215D01*
X438919Y77081D01*
X441785Y84000D01*
X438919Y90919D01*
X432000Y93785D01*
X429995Y92954D01*
X413914Y109036D01*
Y137467D01*
X428533Y152086D01*
X609688D01*
X613162Y153525D01*
X621581Y161944D01*
X622657Y161224D01*
X620623Y156313D01*
X622056Y152852D01*
X562407Y93202D01*
X561000Y93785D01*
X554081Y90919D01*
X551687Y85140D01*
X550313D01*
X547919Y90919D01*
X545914Y91749D01*
Y117658D01*
X548776Y118844D01*
X551997Y126620D01*
Y131380D01*
X548776Y139156D01*
X541000Y142377D01*
X533224Y139156D01*
X530003Y131380D01*
Y126620D01*
X533224Y118844D01*
X536086Y117658D01*
Y91749D01*
X534081Y90919D01*
X531215Y84000D01*
X534081Y77081D01*
X541000Y74215D01*
X547919Y77081D01*
X550313Y82860D01*
X551687D01*
X554081Y77081D01*
X561000Y74215D01*
X567919Y77081D01*
X570785Y84000D01*
X569706Y86603D01*
X629356Y146253D01*
X631620Y145315D01*
X636380D01*
X644156Y148536D01*
X647377Y156313D01*
X644156Y164089D01*
X636380Y167310D01*
X631620D01*
X626708Y165275D01*
X625989Y166352D01*
X630441Y170804D01*
X631620Y170315D01*
X636380D01*
X644156Y173536D01*
X647377Y181313D01*
X644156Y189089D01*
X636380Y192310D01*
X632055D01*
X631465Y193515D01*
X633265Y195315D01*
X636380D01*
X644156Y198536D01*
X647377Y206313D01*
X644156Y214089D01*
X636380Y217310D01*
X631620D01*
X626708Y215275D01*
X625989Y216352D01*
X630441Y220804D01*
X631620Y220315D01*
X636380D01*
X644156Y223536D01*
X647377Y231313D01*
X644156Y239089D01*
X636380Y242310D01*
D02*
G37*
G36*
X110154Y225730D02*
X98582D01*
Y216133D01*
X99813D01*
X107497Y219316D01*
X110154Y225730D01*
D02*
G37*
G36*
X96042D02*
X84471D01*
X87128Y219316D01*
X94812Y216133D01*
X96042D01*
Y225730D01*
D02*
G37*
G36*
X596259Y223730D02*
X588270D01*
Y215741D01*
X593919Y218081D01*
X596259Y223730D01*
D02*
G37*
G36*
X585730D02*
X577741D01*
X580081Y218081D01*
X585730Y215741D01*
Y223730D01*
D02*
G37*
G36*
X309270Y219259D02*
Y211270D01*
X317259D01*
X314919Y216919D01*
X309270Y219259D01*
D02*
G37*
G36*
X306730D02*
X301081Y216919D01*
X298741Y211270D01*
X306730D01*
Y219259D01*
D02*
G37*
G36*
X317259Y208730D02*
X309270D01*
Y200741D01*
X314919Y203081D01*
X317259Y208730D01*
D02*
G37*
G36*
X306730D02*
X298741D01*
X301081Y203081D01*
X306730Y200741D01*
Y208730D01*
D02*
G37*
G36*
X78730Y93259D02*
X73081Y90919D01*
X70741Y85270D01*
X78730D01*
Y93259D01*
D02*
G37*
G36*
Y82730D02*
X70741D01*
X73081Y77081D01*
X78730Y74741D01*
Y82730D01*
D02*
G37*
G36*
X516000Y142377D02*
X508224Y139156D01*
X505003Y131380D01*
Y126620D01*
X508224Y118844D01*
X511086Y117658D01*
Y91749D01*
X509081Y90919D01*
X506215Y84000D01*
X509081Y77081D01*
X516000Y74215D01*
X522919Y77081D01*
X525785Y84000D01*
X522919Y90919D01*
X520914Y91749D01*
Y117658D01*
X523776Y118844D01*
X526997Y126620D01*
Y131380D01*
X523776Y139156D01*
X516000Y142377D01*
D02*
G37*
G36*
X453835D02*
X446059Y139156D01*
X442838Y131380D01*
Y126620D01*
X446059Y118844D01*
X453835Y115623D01*
X456697Y116808D01*
X479086Y94419D01*
Y91749D01*
X477081Y90919D01*
X474215Y84000D01*
X477081Y77081D01*
X484000Y74215D01*
X490919Y77081D01*
X493785Y84000D01*
X490919Y90919D01*
X488914Y91749D01*
Y96455D01*
X488914Y96455D01*
X487475Y99930D01*
X463647Y123758D01*
X464832Y126620D01*
Y131380D01*
X461611Y139156D01*
X453835Y142377D01*
D02*
G37*
G36*
X428835D02*
X421059Y139156D01*
X417838Y131380D01*
Y126620D01*
X421059Y118844D01*
X428835Y115623D01*
X431697Y116808D01*
X456173Y92332D01*
X456080Y90919D01*
X453214Y84000D01*
X456080Y77081D01*
X462999Y74215D01*
X469918Y77081D01*
X472784Y84000D01*
X469918Y90919D01*
X466765Y92225D01*
Y93604D01*
X465326Y97079D01*
X438647Y123758D01*
X439832Y126620D01*
Y131380D01*
X436611Y139156D01*
X428835Y142377D01*
D02*
G37*
G36*
X366753D02*
X358976Y139156D01*
X355755Y131380D01*
Y126620D01*
X358976Y118844D01*
X361838Y117658D01*
Y91749D01*
X359833Y90919D01*
X356968Y84000D01*
X359833Y77081D01*
X366753Y74215D01*
X373671Y77081D01*
X376537Y84000D01*
X373671Y90919D01*
X371666Y91749D01*
Y117658D01*
X374529Y118844D01*
X377750Y126620D01*
Y131380D01*
X374529Y139156D01*
X366753Y142377D01*
D02*
G37*
G36*
X341753D02*
X333976Y139156D01*
X330755Y131380D01*
Y126620D01*
X333976Y118844D01*
X336838Y117658D01*
Y91749D01*
X334833Y90919D01*
X331968Y84000D01*
X334833Y77081D01*
X341753Y74215D01*
X348671Y77081D01*
X351537Y84000D01*
X348671Y90919D01*
X346666Y91749D01*
Y117658D01*
X349529Y118844D01*
X352750Y126620D01*
Y131380D01*
X349529Y139156D01*
X341753Y142377D01*
D02*
G37*
G36*
X316752D02*
X308976Y139156D01*
X305755Y131380D01*
Y126620D01*
X308976Y118844D01*
X311838Y117658D01*
Y91749D01*
X309834Y90919D01*
X306968Y84000D01*
X309834Y77081D01*
X316752Y74215D01*
X323671Y77081D01*
X326537Y84000D01*
X323671Y90919D01*
X321666Y91749D01*
Y117658D01*
X324529Y118844D01*
X327750Y126620D01*
Y131380D01*
X324529Y139156D01*
X316752Y142377D01*
D02*
G37*
G36*
X291752D02*
X283976Y139156D01*
X280755Y131380D01*
Y126620D01*
X283976Y118844D01*
X286838Y117658D01*
Y91749D01*
X284834Y90919D01*
X281968Y84000D01*
X284834Y77081D01*
X291752Y74215D01*
X298671Y77081D01*
X301537Y84000D01*
X298671Y90919D01*
X296667Y91749D01*
Y117658D01*
X299529Y118844D01*
X302750Y126620D01*
Y131380D01*
X299529Y139156D01*
X291752Y142377D01*
D02*
G37*
G36*
X205670D02*
X197894Y139156D01*
X194673Y131380D01*
Y126620D01*
X197894Y118844D01*
X200921Y117590D01*
Y91681D01*
X199081Y90919D01*
X196215Y84000D01*
X199081Y77081D01*
X206000Y74215D01*
X212919Y77081D01*
X215785Y84000D01*
X212919Y90919D01*
X210749Y91818D01*
Y117727D01*
X213446Y118844D01*
X216667Y126620D01*
Y131380D01*
X213446Y139156D01*
X205670Y142377D01*
D02*
G37*
G36*
X473033Y71189D02*
Y62670D01*
X481552D01*
X479057Y68694D01*
X473033Y71189D01*
D02*
G37*
G36*
X470493D02*
X464469Y68694D01*
X461973Y62670D01*
X470493D01*
Y71189D01*
D02*
G37*
G36*
X269833D02*
Y62670D01*
X278352D01*
X275856Y68694D01*
X269833Y71189D01*
D02*
G37*
G36*
X267293D02*
X261269Y68694D01*
X258773Y62670D01*
X267293D01*
Y71189D01*
D02*
G37*
G36*
X92033D02*
Y62670D01*
X100552D01*
X98056Y68694D01*
X92033Y71189D01*
D02*
G37*
G36*
X89493D02*
X83469Y68694D01*
X80973Y62670D01*
X89493D01*
Y71189D01*
D02*
G37*
G36*
X481552Y60130D02*
X473033D01*
Y51611D01*
X479057Y54106D01*
X481552Y60130D01*
D02*
G37*
G36*
X470493D02*
X461973D01*
X464469Y54106D01*
X470493Y51611D01*
Y60130D01*
D02*
G37*
G36*
X278352D02*
X269833D01*
Y51611D01*
X275856Y54106D01*
X278352Y60130D01*
D02*
G37*
G36*
X267293D02*
X258773D01*
X261269Y54106D01*
X267293Y51611D01*
Y60130D01*
D02*
G37*
G36*
X100552D02*
X92033D01*
Y51611D01*
X98056Y54106D01*
X100552Y60130D01*
D02*
G37*
G36*
X89493D02*
X80973D01*
X83469Y54106D01*
X89493Y51611D01*
Y60130D01*
D02*
G37*
G36*
X573363Y71715D02*
X566069Y68694D01*
X563047Y61400D01*
X566069Y54106D01*
X573363Y51085D01*
X580657Y54106D01*
X583678Y61400D01*
X580657Y68694D01*
X573363Y71715D01*
D02*
G37*
G36*
X547963D02*
X540669Y68694D01*
X537647Y61400D01*
X540669Y54106D01*
X547963Y51085D01*
X555257Y54106D01*
X558278Y61400D01*
X555257Y68694D01*
X547963Y71715D01*
D02*
G37*
G36*
X522563D02*
X515269Y68694D01*
X512247Y61400D01*
X515269Y54106D01*
X522563Y51085D01*
X529856Y54106D01*
X532878Y61400D01*
X529856Y68694D01*
X522563Y71715D01*
D02*
G37*
G36*
X497163D02*
X489869Y68694D01*
X486847Y61400D01*
X489869Y54106D01*
X497163Y51085D01*
X504456Y54106D01*
X507478Y61400D01*
X504456Y68694D01*
X497163Y71715D01*
D02*
G37*
G36*
X446363D02*
X439069Y68694D01*
X436047Y61400D01*
X439069Y54106D01*
X446363Y51085D01*
X453657Y54106D01*
X456678Y61400D01*
X453657Y68694D01*
X446363Y71715D01*
D02*
G37*
G36*
X420963D02*
X413669Y68694D01*
X410647Y61400D01*
X413669Y54106D01*
X420963Y51085D01*
X428256Y54106D01*
X431278Y61400D01*
X428256Y68694D01*
X420963Y71715D01*
D02*
G37*
G36*
X395563D02*
X388269Y68694D01*
X385247Y61400D01*
X388269Y54106D01*
X395563Y51085D01*
X402856Y54106D01*
X405878Y61400D01*
X402856Y68694D01*
X395563Y71715D01*
D02*
G37*
G36*
X370163D02*
X362869Y68694D01*
X359847Y61400D01*
X362869Y54106D01*
X370163Y51085D01*
X377457Y54106D01*
X380478Y61400D01*
X377457Y68694D01*
X370163Y71715D01*
D02*
G37*
G36*
X344763D02*
X337469Y68694D01*
X334447Y61400D01*
X337469Y54106D01*
X344763Y51085D01*
X352057Y54106D01*
X355078Y61400D01*
X352057Y68694D01*
X344763Y71715D01*
D02*
G37*
G36*
X319363D02*
X312069Y68694D01*
X309047Y61400D01*
X312069Y54106D01*
X319363Y51085D01*
X326656Y54106D01*
X329678Y61400D01*
X326656Y68694D01*
X319363Y71715D01*
D02*
G37*
G36*
X293963D02*
X286669Y68694D01*
X283647Y61400D01*
X286669Y54106D01*
X293963Y51085D01*
X301257Y54106D01*
X304278Y61400D01*
X301257Y68694D01*
X293963Y71715D01*
D02*
G37*
G36*
X243163D02*
X235869Y68694D01*
X232847Y61400D01*
X235869Y54106D01*
X243163Y51085D01*
X250457Y54106D01*
X253478Y61400D01*
X250457Y68694D01*
X243163Y71715D01*
D02*
G37*
G36*
X217763D02*
X210469Y68694D01*
X207447Y61400D01*
X210469Y54106D01*
X217763Y51085D01*
X225056Y54106D01*
X228078Y61400D01*
X225056Y68694D01*
X217763Y71715D01*
D02*
G37*
G36*
X192363D02*
X185069Y68694D01*
X182047Y61400D01*
X185069Y54106D01*
X192363Y51085D01*
X199657Y54106D01*
X202678Y61400D01*
X199657Y68694D01*
X192363Y71715D01*
D02*
G37*
G36*
X166963D02*
X159669Y68694D01*
X156647Y61400D01*
X159669Y54106D01*
X166963Y51085D01*
X174256Y54106D01*
X177278Y61400D01*
X174256Y68694D01*
X166963Y71715D01*
D02*
G37*
G36*
X141563D02*
X134269Y68694D01*
X131247Y61400D01*
X134269Y54106D01*
X141563Y51085D01*
X148856Y54106D01*
X151878Y61400D01*
X148856Y68694D01*
X141563Y71715D01*
D02*
G37*
G36*
X116163D02*
X108869Y68694D01*
X105847Y61400D01*
X108869Y54106D01*
X116163Y51085D01*
X123456Y54106D01*
X126478Y61400D01*
X123456Y68694D01*
X116163Y71715D01*
D02*
G37*
G36*
X523833Y45789D02*
Y37270D01*
X532352D01*
X529856Y43294D01*
X523833Y45789D01*
D02*
G37*
G36*
X521293D02*
X515269Y43294D01*
X512773Y37270D01*
X521293D01*
Y45789D01*
D02*
G37*
G36*
X422233D02*
Y37270D01*
X430752D01*
X428256Y43294D01*
X422233Y45789D01*
D02*
G37*
G36*
X419693D02*
X413669Y43294D01*
X411173Y37270D01*
X419693D01*
Y45789D01*
D02*
G37*
G36*
X346033D02*
Y37270D01*
X354552D01*
X352057Y43294D01*
X346033Y45789D01*
D02*
G37*
G36*
X343493D02*
X337469Y43294D01*
X334973Y37270D01*
X343493D01*
Y45789D01*
D02*
G37*
G36*
X219033D02*
Y37270D01*
X227552D01*
X225056Y43294D01*
X219033Y45789D01*
D02*
G37*
G36*
X216493D02*
X210469Y43294D01*
X207973Y37270D01*
X216493D01*
Y45789D01*
D02*
G37*
G36*
X168233D02*
Y37270D01*
X176752D01*
X174256Y43294D01*
X168233Y45789D01*
D02*
G37*
G36*
X165693D02*
X159669Y43294D01*
X157173Y37270D01*
X165693D01*
Y45789D01*
D02*
G37*
G36*
X100293Y45530D02*
X81233D01*
Y26470D01*
X100293D01*
Y45530D01*
D02*
G37*
G36*
X532352Y34730D02*
X523833D01*
Y26211D01*
X529856Y28706D01*
X532352Y34730D01*
D02*
G37*
G36*
X521293D02*
X512773D01*
X515269Y28706D01*
X521293Y26211D01*
Y34730D01*
D02*
G37*
G36*
X430752D02*
X422233D01*
Y26211D01*
X428256Y28706D01*
X430752Y34730D01*
D02*
G37*
G36*
X419693D02*
X411173D01*
X413669Y28706D01*
X419693Y26211D01*
Y34730D01*
D02*
G37*
G36*
X354552D02*
X346033D01*
Y26211D01*
X352057Y28706D01*
X354552Y34730D01*
D02*
G37*
G36*
X343493D02*
X334973D01*
X337469Y28706D01*
X343493Y26211D01*
Y34730D01*
D02*
G37*
G36*
X227552D02*
X219033D01*
Y26211D01*
X225056Y28706D01*
X227552Y34730D01*
D02*
G37*
G36*
X216493D02*
X207973D01*
X210469Y28706D01*
X216493Y26211D01*
Y34730D01*
D02*
G37*
G36*
X176752D02*
X168233D01*
Y26211D01*
X174256Y28706D01*
X176752Y34730D01*
D02*
G37*
G36*
X165693D02*
X157173D01*
X159669Y28706D01*
X165693Y26211D01*
Y34730D01*
D02*
G37*
G36*
X622000Y61884D02*
X615156Y60522D01*
X609354Y56646D01*
X605478Y50844D01*
X604116Y44000D01*
X605478Y37156D01*
X609354Y31354D01*
X615156Y27478D01*
X622000Y26116D01*
X628844Y27478D01*
X634646Y31354D01*
X638522Y37156D01*
X639884Y44000D01*
X638522Y50844D01*
X634646Y56646D01*
X628844Y60522D01*
X622000Y61884D01*
D02*
G37*
G36*
X42000D02*
X35156Y60522D01*
X29354Y56646D01*
X25478Y50844D01*
X24116Y44000D01*
X25478Y37156D01*
X29354Y31354D01*
X35156Y27478D01*
X42000Y26116D01*
X48844Y27478D01*
X54646Y31354D01*
X58522Y37156D01*
X59884Y44000D01*
X58522Y50844D01*
X54646Y56646D01*
X48844Y60522D01*
X42000Y61884D01*
D02*
G37*
G36*
X573363Y46315D02*
X566069Y43294D01*
X563047Y36000D01*
X566069Y28706D01*
X573363Y25685D01*
X580657Y28706D01*
X583678Y36000D01*
X580657Y43294D01*
X573363Y46315D01*
D02*
G37*
G36*
X547963D02*
X540669Y43294D01*
X537647Y36000D01*
X540669Y28706D01*
X547963Y25685D01*
X555257Y28706D01*
X558278Y36000D01*
X555257Y43294D01*
X547963Y46315D01*
D02*
G37*
G36*
X497163D02*
X489869Y43294D01*
X486847Y36000D01*
X489869Y28706D01*
X497163Y25685D01*
X504456Y28706D01*
X507478Y36000D01*
X504456Y43294D01*
X497163Y46315D01*
D02*
G37*
G36*
X471763D02*
X464469Y43294D01*
X461447Y36000D01*
X464469Y28706D01*
X471763Y25685D01*
X479057Y28706D01*
X482078Y36000D01*
X479057Y43294D01*
X471763Y46315D01*
D02*
G37*
G36*
X446363D02*
X439069Y43294D01*
X436047Y36000D01*
X439069Y28706D01*
X446363Y25685D01*
X453657Y28706D01*
X456678Y36000D01*
X453657Y43294D01*
X446363Y46315D01*
D02*
G37*
G36*
X395563D02*
X388269Y43294D01*
X385247Y36000D01*
X388269Y28706D01*
X395563Y25685D01*
X402856Y28706D01*
X405878Y36000D01*
X402856Y43294D01*
X395563Y46315D01*
D02*
G37*
G36*
X370163D02*
X362869Y43294D01*
X359847Y36000D01*
X362869Y28706D01*
X370163Y25685D01*
X377457Y28706D01*
X380478Y36000D01*
X377457Y43294D01*
X370163Y46315D01*
D02*
G37*
G36*
X319363D02*
X312069Y43294D01*
X309047Y36000D01*
X312069Y28706D01*
X319363Y25685D01*
X326656Y28706D01*
X329678Y36000D01*
X326656Y43294D01*
X319363Y46315D01*
D02*
G37*
G36*
X293963D02*
X286669Y43294D01*
X283647Y36000D01*
X286669Y28706D01*
X293963Y25685D01*
X301257Y28706D01*
X304278Y36000D01*
X301257Y43294D01*
X293963Y46315D01*
D02*
G37*
G36*
X268563D02*
X261269Y43294D01*
X258247Y36000D01*
X261269Y28706D01*
X268563Y25685D01*
X275856Y28706D01*
X278878Y36000D01*
X275856Y43294D01*
X268563Y46315D01*
D02*
G37*
G36*
X243163D02*
X235869Y43294D01*
X232847Y36000D01*
X235869Y28706D01*
X243163Y25685D01*
X250457Y28706D01*
X253478Y36000D01*
X250457Y43294D01*
X243163Y46315D01*
D02*
G37*
G36*
X192363D02*
X185069Y43294D01*
X182047Y36000D01*
X185069Y28706D01*
X192363Y25685D01*
X199657Y28706D01*
X202678Y36000D01*
X199657Y43294D01*
X192363Y46315D01*
D02*
G37*
G36*
X141563D02*
X134269Y43294D01*
X131247Y36000D01*
X134269Y28706D01*
X141563Y25685D01*
X148856Y28706D01*
X151878Y36000D01*
X148856Y43294D01*
X141563Y46315D01*
D02*
G37*
G36*
X116163D02*
X108869Y43294D01*
X105847Y36000D01*
X108869Y28706D01*
X116163Y25685D01*
X123456Y28706D01*
X126478Y36000D01*
X123456Y43294D01*
X116163Y46315D01*
D02*
G37*
%LPD*%
G36*
X622657Y211224D02*
X620623Y206313D01*
X623476Y199425D01*
X592965Y168914D01*
X580210D01*
X579725Y170087D01*
X621581Y211944D01*
X622657Y211224D01*
D02*
G37*
%LPC*%
G36*
X172970Y207730D02*
X165800D01*
Y203560D01*
X172970D01*
Y207730D01*
D02*
G37*
G36*
X163260D02*
X156090D01*
Y203560D01*
X163260D01*
Y207730D01*
D02*
G37*
%LPD*%
D14*
X324707Y160500D02*
D03*
Y176000D02*
D03*
X304665Y160645D02*
D03*
Y176145D02*
D03*
X350915Y395500D02*
D03*
Y411000D02*
D03*
X330872D02*
D03*
Y395500D02*
D03*
X163000Y186375D02*
D03*
Y170875D02*
D03*
X227043Y186375D02*
D03*
Y170875D02*
D03*
X247085Y186375D02*
D03*
Y170875D02*
D03*
X267292Y186375D02*
D03*
Y170875D02*
D03*
X193530Y279813D02*
D03*
Y295312D02*
D03*
X213572Y279813D02*
D03*
Y295312D02*
D03*
X173487D02*
D03*
Y279813D02*
D03*
X153445Y295312D02*
D03*
Y279813D02*
D03*
D20*
X152000Y381000D02*
D03*
Y397000D02*
D03*
X54000Y326000D02*
D03*
Y310000D02*
D03*
D30*
X218630Y218100D02*
X225827D01*
X228170Y187502D02*
Y215757D01*
X217730Y219000D02*
X218630Y218100D01*
X225827D02*
X228170Y215757D01*
X227043Y186375D02*
X228170Y187502D01*
X162281Y169968D02*
X163000Y170687D01*
X162281Y162281D02*
Y169968D01*
X97000Y97000D02*
X162281Y162281D01*
X97000Y84000D02*
Y97000D01*
X131552Y117957D02*
X184470Y170875D01*
X181943Y159099D02*
X233809D01*
X117000Y84000D02*
X157460Y124460D01*
Y134616D01*
X131552Y115939D02*
Y117957D01*
X198592Y209000D02*
X217730D01*
X187313D02*
X198592D01*
X163000Y186187D02*
X164500D01*
X187313Y209000D01*
X247477Y152559D02*
X265793Y170875D01*
X184652Y152559D02*
X247477D01*
X233809Y159099D02*
X245585Y170875D01*
X157460Y134616D02*
X181943Y159099D01*
X164000Y131907D02*
X184652Y152559D01*
X184470Y170875D02*
X227043D01*
X164000Y84000D02*
Y131907D01*
X245585Y170875D02*
X247085D01*
X265793D02*
X267292D01*
X267000Y185292D02*
Y201000D01*
X245292Y188167D02*
X247085Y186375D01*
X245292Y188167D02*
Y209384D01*
X205835Y83165D02*
Y128835D01*
Y83165D02*
X206000Y83000D01*
X205670Y129000D02*
X205835Y128835D01*
X246000Y127824D02*
X294176Y176000D01*
X246000Y84000D02*
Y127824D01*
X131000Y152602D02*
Y199000D01*
X97313Y118915D02*
X131000Y152602D01*
X42667Y118915D02*
X97313D01*
X226346Y228331D02*
X245292Y209384D01*
X217730Y229000D02*
X218399Y228331D01*
X226346D01*
X217730Y239000D02*
X229000D01*
X267000Y201000D01*
Y185292D02*
X267292Y185000D01*
X294176Y176000D02*
X304520D01*
X304665Y176145D01*
X330872Y411000D02*
X350915D01*
X330372Y410500D02*
X330872Y411000D01*
X310500Y410500D02*
X330372D01*
X310000Y410000D02*
X310500Y410500D01*
X404500Y407043D02*
X404750Y406792D01*
Y386250D02*
Y406792D01*
Y386250D02*
X405000Y386000D01*
X367000Y163645D02*
Y191032D01*
X420612Y244645D01*
X324707Y160500D02*
X326208D01*
X332563Y154145D01*
X347000D01*
X324707Y176000D02*
X327458Y173250D01*
X336395D01*
X336500Y173145D01*
X347000D01*
X150000Y249000D02*
X164530D01*
X98957Y197957D02*
X150000Y249000D01*
X58175Y197957D02*
X98957D01*
X149557Y238557D02*
X164087D01*
X117000Y206000D02*
X149557Y238557D01*
X117000Y189000D02*
Y206000D01*
X131000Y199000D02*
X151000Y219000D01*
X100957Y172957D02*
X117000Y189000D01*
X97313Y143915D02*
X124000Y170602D01*
Y202000D01*
X151000Y229000D01*
X42667Y143915D02*
X97313D01*
X151000Y219000D02*
X164530D01*
X151000Y229000D02*
X164530D01*
X58175Y172957D02*
X100957D01*
X32000Y252000D02*
X51293D01*
X66792D02*
X66793Y252000D01*
X574688Y172000D02*
X634000Y231313D01*
X423000Y172000D02*
X574688D01*
X453835Y126620D02*
Y129000D01*
Y126620D02*
X484000Y96455D01*
Y84000D02*
Y96455D01*
X428835Y126620D02*
Y129000D01*
Y126620D02*
X461851Y93604D01*
Y85148D02*
Y93604D01*
Y85148D02*
X462999Y84000D01*
X399000Y95000D02*
X410000Y84000D01*
X399000Y138751D02*
X424249Y164000D01*
X399000Y95000D02*
Y138751D01*
X389000Y138000D02*
X423000Y172000D01*
X389000Y84000D02*
Y138000D01*
X409000Y107000D02*
Y139502D01*
X426498Y157000D01*
X409000Y107000D02*
X432000Y84000D01*
X424249Y164000D02*
X595000D01*
X426498Y157000D02*
X609688D01*
X634000Y181313D01*
X595000Y164000D02*
X634000Y203000D01*
X304665Y160645D02*
X304737Y160572D01*
X324635D01*
X324707Y160500D01*
X480500Y330000D02*
X498000D01*
X480500Y330000D02*
X480500Y330000D01*
X480500Y330000D02*
Y351000D01*
X117000Y421000D02*
X135518D01*
X136518Y422000D01*
X32000Y252000D02*
X33793Y250207D01*
X266752Y129000D02*
X266876Y128876D01*
X266752Y84000D02*
Y129000D01*
X32380Y223752D02*
X58175Y197957D01*
X30000Y223752D02*
X32380D01*
Y198752D02*
X58175Y172957D01*
X30000Y198752D02*
X32380D01*
X35422Y136670D02*
X42667Y143915D01*
X30000Y136670D02*
X35422D01*
Y111670D02*
X42667Y118915D01*
X30000Y111670D02*
X35422D01*
X164087Y238557D02*
X164530Y239000D01*
X634000Y203000D02*
Y206313D01*
X632466Y156313D02*
X634000D01*
X561000Y84846D02*
X632466Y156313D01*
X561000Y84000D02*
Y84846D01*
X541000Y84000D02*
Y129000D01*
X516000Y84000D02*
Y129000D01*
X366753Y84000D02*
Y129000D01*
X341753Y84000D02*
Y129000D01*
X291752Y84000D02*
Y129000D01*
X316752Y84000D02*
Y129000D01*
X180670D02*
X180835Y128835D01*
Y83165D02*
Y128835D01*
Y83165D02*
X181000Y83000D01*
D31*
X217730Y249000D02*
X217830Y249100D01*
X222529D01*
X342697Y244645D02*
X344613D01*
X222529Y249100D02*
X222768Y249339D01*
X338002D01*
X342697Y244645D01*
X217830Y249100D02*
X236000Y267270D01*
Y350000D01*
X127083Y397000D02*
X152000D01*
X152018Y397018D02*
Y422000D01*
X152000Y397000D02*
X152018Y397018D01*
X214165Y397000D02*
Y399380D01*
X191545Y422000D02*
X214165Y399380D01*
X152018Y422000D02*
X191545D01*
X214165Y372835D02*
X215000Y372000D01*
X214165Y372835D02*
Y397000D01*
X215000Y371000D02*
Y372000D01*
Y371000D02*
X236000Y350000D01*
X236000D01*
X206793Y341437D02*
X227437D01*
X236000Y350000D01*
X152000Y341437D02*
X206793D01*
X127000Y344000D02*
X129563Y341437D01*
X152000D01*
X66793Y252000D02*
X97313D01*
X104000Y281000D02*
X129688D01*
X152983Y294851D02*
X153445Y295312D01*
X129688Y281000D02*
X143538Y294851D01*
X152983D01*
X193530Y295312D02*
X213572D01*
X173487D02*
X193530D01*
X153445D02*
X173487D01*
X77000Y366000D02*
X97000D01*
X104000Y359000D01*
X56157Y386843D02*
X77000Y366000D01*
X104000Y344000D02*
Y359000D01*
Y281000D02*
Y344000D01*
X55000Y398000D02*
X56157Y396843D01*
Y386843D02*
Y396843D01*
X54917Y397918D02*
X55000Y398000D01*
X30000Y397918D02*
X54917D01*
X55000Y310000D02*
X83000Y282000D01*
X103000D01*
X104000Y281000D01*
X53165Y310835D02*
X54000Y310000D01*
X30000Y310835D02*
X53165D01*
X54000Y310000D02*
X55000D01*
X97313Y274312D02*
X104000Y281000D01*
X97313Y252000D02*
Y274312D01*
D33*
X344613Y244645D02*
D03*
X420612D02*
D03*
D34*
X366753Y129000D02*
D03*
X341753D02*
D03*
X316752D02*
D03*
X291752D02*
D03*
X266752D02*
D03*
X608000Y327395D02*
D03*
X633000D02*
D03*
X607562Y400000D02*
D03*
X632562D02*
D03*
X180670Y129000D02*
D03*
X205670D02*
D03*
X214165Y397000D02*
D03*
X189165D02*
D03*
X127083D02*
D03*
X102083D02*
D03*
X541000Y129000D02*
D03*
X516000D02*
D03*
X453835D02*
D03*
X428835D02*
D03*
D35*
X206793Y316437D02*
D03*
Y341437D02*
D03*
X97313Y172957D02*
D03*
Y197957D02*
D03*
Y118915D02*
D03*
Y143915D02*
D03*
Y252000D02*
D03*
Y227000D02*
D03*
X152000Y341437D02*
D03*
Y316437D02*
D03*
D36*
X141563Y36000D02*
D03*
Y61400D02*
D03*
X547963Y36000D02*
D03*
X395563D02*
D03*
X547963Y61400D02*
D03*
X395563D02*
D03*
X116163Y36000D02*
D03*
Y61400D02*
D03*
X90763D02*
D03*
X217763Y36000D02*
D03*
X192363D02*
D03*
X217763Y61400D02*
D03*
X192363D02*
D03*
X293963Y36000D02*
D03*
X243163D02*
D03*
X293963Y61400D02*
D03*
X243163D02*
D03*
X344763Y36000D02*
D03*
X319363D02*
D03*
X344763Y61400D02*
D03*
X319363D02*
D03*
X446363Y36000D02*
D03*
X420963D02*
D03*
X446363Y61400D02*
D03*
X420963D02*
D03*
X522563Y36000D02*
D03*
X497163D02*
D03*
X522563Y61400D02*
D03*
X497163D02*
D03*
X166963Y36000D02*
D03*
Y61400D02*
D03*
X268563Y36000D02*
D03*
Y61400D02*
D03*
X370163Y36000D02*
D03*
Y61400D02*
D03*
X471763Y36000D02*
D03*
Y61400D02*
D03*
X573363Y36000D02*
D03*
Y61400D02*
D03*
D37*
X90763Y36000D02*
D03*
D38*
X30000Y198752D02*
D03*
Y223752D02*
D03*
Y111670D02*
D03*
Y136670D02*
D03*
Y285835D02*
D03*
Y310835D02*
D03*
Y372918D02*
D03*
Y397918D02*
D03*
X634000Y156313D02*
D03*
Y181313D02*
D03*
Y206313D02*
D03*
Y231313D02*
D03*
Y256313D02*
D03*
X441413Y397000D02*
D03*
Y372000D02*
D03*
D39*
X131552Y115939D02*
D03*
X206000Y84000D02*
D03*
X246000D02*
D03*
X145000Y169000D02*
D03*
X310000Y410000D02*
D03*
X392000Y421000D02*
D03*
X373000D02*
D03*
X546000D02*
D03*
X441000Y331000D02*
D03*
X587000Y268270D02*
D03*
X308000Y210000D02*
D03*
Y233000D02*
D03*
X136000Y256000D02*
D03*
X308000Y271000D02*
D03*
X279000D02*
D03*
X308000Y291000D02*
D03*
X279000D02*
D03*
X255000D02*
D03*
X318000Y372000D02*
D03*
X523000Y330000D02*
D03*
X236000Y350000D02*
D03*
X80000Y84000D02*
D03*
X587000Y248000D02*
D03*
Y225000D02*
D03*
X389000Y84000D02*
D03*
X410000D02*
D03*
X432000D02*
D03*
X484000D02*
D03*
X462999D02*
D03*
X498000Y330000D02*
D03*
X266752Y84000D02*
D03*
X561000D02*
D03*
X97000D02*
D03*
X117000D02*
D03*
X541000D02*
D03*
X516000D02*
D03*
X366753D02*
D03*
X341753D02*
D03*
X291752D02*
D03*
X316752D02*
D03*
X164000D02*
D03*
X181000D02*
D03*
D40*
X622000Y44000D02*
D03*
X42000D02*
D03*
D41*
X367000Y163645D02*
D03*
X347000Y173145D02*
D03*
Y154145D02*
D03*
D42*
X403496Y324500D02*
D03*
Y359500D02*
D03*
X347496Y324500D02*
D03*
Y359500D02*
D03*
D43*
X96000Y421000D02*
D03*
X117000D02*
D03*
X32000Y252000D02*
D03*
X11000D02*
D03*
X384000Y386000D02*
D03*
X405000D02*
D03*
D44*
X136518Y422000D02*
D03*
X152018D02*
D03*
X66792Y252000D02*
D03*
X51293D02*
D03*
X465000Y351000D02*
D03*
X480500D02*
D03*
Y330000D02*
D03*
X465000D02*
D03*
X404500Y407043D02*
D03*
X420000D02*
D03*
D45*
X481355Y373000D02*
D03*
X465355D02*
D03*
X481792Y396000D02*
D03*
X465792D02*
D03*
X199000Y372000D02*
D03*
X215000D02*
D03*
X71000Y398000D02*
D03*
X55000D02*
D03*
D46*
X127000Y344000D02*
D03*
X81000D02*
D03*
X104000D02*
D03*
D47*
Y281000D02*
D03*
D48*
X217730Y249000D02*
D03*
X164530D02*
D03*
Y229000D02*
D03*
Y209000D02*
D03*
Y219000D02*
D03*
Y239000D02*
D03*
X217730Y209000D02*
D03*
Y229000D02*
D03*
Y219000D02*
D03*
Y239000D02*
D03*
D49*
X161500Y186000D02*
X163000D01*
X179530Y228062D02*
X198592Y209000D01*
X179530Y228062D02*
Y248513D01*
X158250Y189250D02*
X161500Y186000D01*
X213530Y268000D02*
Y279770D01*
X202530Y257000D02*
X213530Y268000D01*
Y279770D02*
X213572Y279813D01*
X202530Y246000D02*
Y257000D01*
Y246000D02*
X209530Y239000D01*
X217730D02*
X217730Y239000D01*
X209530Y239000D02*
X217730D01*
X155723Y272320D02*
Y277534D01*
X153445Y279813D02*
X155723Y277534D01*
Y272320D02*
X166622Y261422D01*
X166622D01*
X179530Y248513D01*
X186530Y237000D02*
X204530Y219000D01*
X173487Y265042D02*
X186530Y252000D01*
Y237000D02*
Y252000D01*
X173487Y265042D02*
Y279813D01*
X204530Y219000D02*
X217730D01*
X205530Y229000D02*
X217730D01*
X193530Y241000D02*
Y279813D01*
Y241000D02*
X205530Y229000D01*
D50*
X350915Y395500D02*
X366500D01*
X375500Y404500D01*
X420000Y407043D02*
X430750D01*
X419250Y407793D02*
Y416314D01*
X392000Y421000D02*
X414564D01*
X419250Y416314D01*
Y407793D02*
X420000Y407043D01*
X375500Y404500D02*
X392000Y421000D01*
X466000Y414000D02*
X473000Y421000D01*
X546000D01*
X466000Y396208D02*
Y414000D01*
X440992Y397000D02*
X441413D01*
X440793D02*
X440992D01*
X430750Y407043D02*
X440793Y397000D01*
X405996Y368000D02*
X415007D01*
X437647Y390640D02*
Y393656D01*
X415007Y368000D02*
X437647Y390640D01*
X403496Y365500D02*
X405996Y368000D01*
X403496Y359500D02*
Y365500D01*
X437647Y393656D02*
X440992Y397000D01*
X465792Y396000D02*
X466000Y396208D01*
X347496Y359500D02*
X403496D01*
X464793Y397000D02*
X465792Y396000D01*
X441413Y397000D02*
X464793D01*
X465355Y373000D02*
Y395563D01*
X465792Y396000D01*
X465000Y351000D02*
Y372645D01*
X465355Y373000D01*
M02*
