G04*
G04 #@! TF.GenerationSoftware,Altium Limited,Altium Designer,20.0.11 (256)*
G04*
G04 Layer_Color=128*
%FSLAX44Y44*%
%MOMM*%
G71*
G01*
G75*
%ADD51C,0.0508*%
D51*
X340613Y244645D02*
X348613D01*
X344613Y240645D02*
Y248645D01*
X416613Y244645D02*
X424613D01*
X420612Y240645D02*
Y248645D01*
X361753Y129000D02*
X371752D01*
X366753Y124000D02*
Y134000D01*
X336753Y129000D02*
X346752D01*
X341753Y124000D02*
Y134000D01*
X311752Y129000D02*
X321752D01*
X316752Y124000D02*
Y134000D01*
X286752Y129000D02*
X296752D01*
X291752Y124000D02*
Y134000D01*
X261752Y129000D02*
X271752D01*
X266752Y124000D02*
Y134000D01*
X203543Y316437D02*
X210043D01*
X206793Y313187D02*
Y319687D01*
X203543Y341437D02*
X210043D01*
X206793Y338187D02*
Y344687D01*
X94062Y172957D02*
X100563D01*
X97313Y169707D02*
Y176207D01*
X94062Y197957D02*
X100563D01*
X97313Y194707D02*
Y201207D01*
X94062Y118915D02*
X100563D01*
X97313Y115665D02*
Y122165D01*
X94062Y143915D02*
X100563D01*
X97313Y140665D02*
Y147165D01*
X137113Y36000D02*
X146013D01*
X141563Y31550D02*
Y40450D01*
X137113Y61400D02*
X146013D01*
X141563Y56950D02*
Y65850D01*
X543513Y36000D02*
X552413D01*
X547963Y31550D02*
Y40450D01*
X391113Y36000D02*
X400013D01*
X395563Y31550D02*
Y40450D01*
X543513Y61400D02*
X552413D01*
X547963Y56950D02*
Y65850D01*
X391113Y61400D02*
X400013D01*
X395563Y56950D02*
Y65850D01*
X111713Y36000D02*
X120613D01*
X116163Y31550D02*
Y40450D01*
X86313Y36000D02*
X95213D01*
X90763Y31550D02*
Y40450D01*
X111713Y61400D02*
X120613D01*
X116163Y56950D02*
Y65850D01*
X86313Y61400D02*
X95213D01*
X90763Y56950D02*
Y65850D01*
X213313Y36000D02*
X222213D01*
X217763Y31550D02*
Y40450D01*
X187913Y36000D02*
X196813D01*
X192363Y31550D02*
Y40450D01*
X213313Y61400D02*
X222213D01*
X217763Y56950D02*
Y65850D01*
X187913Y61400D02*
X196813D01*
X192363Y56950D02*
Y65850D01*
X289513Y36000D02*
X298413D01*
X293963Y31550D02*
Y40450D01*
X238713Y36000D02*
X247613D01*
X243163Y31550D02*
Y40450D01*
X289513Y61400D02*
X298413D01*
X293963Y56950D02*
Y65850D01*
X238713Y61400D02*
X247613D01*
X243163Y56950D02*
Y65850D01*
X340313Y36000D02*
X349213D01*
X344763Y31550D02*
Y40450D01*
X314913Y36000D02*
X323813D01*
X319363Y31550D02*
Y40450D01*
X340313Y61400D02*
X349213D01*
X344763Y56950D02*
Y65850D01*
X314913Y61400D02*
X323813D01*
X319363Y56950D02*
Y65850D01*
X441913Y36000D02*
X450813D01*
X446363Y31550D02*
Y40450D01*
X416513Y36000D02*
X425413D01*
X420963Y31550D02*
Y40450D01*
X441913Y61400D02*
X450813D01*
X446363Y56950D02*
Y65850D01*
X416513Y61400D02*
X425413D01*
X420963Y56950D02*
Y65850D01*
X518113Y36000D02*
X527013D01*
X522563Y31550D02*
Y40450D01*
X492713Y36000D02*
X501613D01*
X497163Y31550D02*
Y40450D01*
X518113Y61400D02*
X527013D01*
X522563Y56950D02*
Y65850D01*
X492713Y61400D02*
X501613D01*
X497163Y56950D02*
Y65850D01*
X162513Y36000D02*
X171413D01*
X166963Y31550D02*
Y40450D01*
X162513Y61400D02*
X171413D01*
X166963Y56950D02*
Y65850D01*
X264113Y36000D02*
X273013D01*
X268563Y31550D02*
Y40450D01*
X264113Y61400D02*
X273013D01*
X268563Y56950D02*
Y65850D01*
X365713Y36000D02*
X374613D01*
X370163Y31550D02*
Y40450D01*
X365713Y61400D02*
X374613D01*
X370163Y56950D02*
Y65850D01*
X467313Y36000D02*
X476213D01*
X471763Y31550D02*
Y40450D01*
X467313Y61400D02*
X476213D01*
X471763Y56950D02*
Y65850D01*
X568913Y36000D02*
X577813D01*
X573363Y31550D02*
Y40450D01*
X568913Y61400D02*
X577813D01*
X573363Y56950D02*
Y65850D01*
X603000Y327395D02*
X613000D01*
X608000Y322395D02*
Y332395D01*
X628000Y327395D02*
X638000D01*
X633000Y322395D02*
Y332395D01*
X602562Y400000D02*
X612562D01*
X607562Y395000D02*
Y405000D01*
X627562Y400000D02*
X637562D01*
X632562Y395000D02*
Y405000D01*
X94062Y252000D02*
X100563D01*
X97313Y248750D02*
Y255250D01*
X94062Y227000D02*
X100563D01*
X97313Y223750D02*
Y230250D01*
X148750Y341437D02*
X155250D01*
X152000Y338187D02*
Y344687D01*
X148750Y316437D02*
X155250D01*
X152000Y313187D02*
Y319687D01*
X25000Y198752D02*
X35000D01*
X30000Y193752D02*
Y203752D01*
X25000Y223752D02*
X35000D01*
X30000Y218752D02*
Y228752D01*
X25000Y111670D02*
X35000D01*
X30000Y106670D02*
Y116670D01*
X25000Y136670D02*
X35000D01*
X30000Y131670D02*
Y141670D01*
X25000Y285835D02*
X35000D01*
X30000Y280835D02*
Y290835D01*
X25000Y310835D02*
X35000D01*
X30000Y305835D02*
Y315835D01*
X25000Y372918D02*
X35000D01*
X30000Y367918D02*
Y377918D01*
X25000Y397918D02*
X35000D01*
X30000Y392918D02*
Y402918D01*
X629000Y156313D02*
X639000D01*
X634000Y151313D02*
Y161313D01*
X629000Y181313D02*
X639000D01*
X634000Y176313D02*
Y186313D01*
X629000Y206313D02*
X639000D01*
X634000Y201313D02*
Y211313D01*
X629000Y231313D02*
X639000D01*
X634000Y226313D02*
Y236313D01*
X629000Y256313D02*
X639000D01*
X634000Y251313D02*
Y261313D01*
X175670Y129000D02*
X185670D01*
X180670Y124000D02*
Y134000D01*
X200670Y129000D02*
X210670D01*
X205670Y124000D02*
Y134000D01*
X209165Y397000D02*
X219165D01*
X214165Y392000D02*
Y402000D01*
X184165Y397000D02*
X194165D01*
X189165Y392000D02*
Y402000D01*
X122083Y397000D02*
X132083D01*
X127083Y392000D02*
Y402000D01*
X97083Y397000D02*
X107083D01*
X102083Y392000D02*
Y402000D01*
X436413Y397000D02*
X446413D01*
X441413Y392000D02*
Y402000D01*
X436413Y372000D02*
X446413D01*
X441413Y367000D02*
Y377000D01*
X536000Y129000D02*
X546000D01*
X541000Y124000D02*
Y134000D01*
X511000Y129000D02*
X521000D01*
X516000Y124000D02*
Y134000D01*
X448835Y129000D02*
X458835D01*
X453835Y124000D02*
Y134000D01*
X423835Y129000D02*
X433835D01*
X428835Y124000D02*
Y134000D01*
X128552Y115939D02*
X134552D01*
X131552Y112939D02*
Y118939D01*
X203000Y84000D02*
X209000D01*
X206000Y81000D02*
Y87000D01*
X243000Y84000D02*
X249000D01*
X246000Y81000D02*
Y87000D01*
X142000Y169000D02*
X148000D01*
X145000Y166000D02*
Y172000D01*
X307000Y410000D02*
X313000D01*
X310000Y407000D02*
Y413000D01*
X389000Y421000D02*
X395000D01*
X392000Y418000D02*
Y424000D01*
X370000Y421000D02*
X376000D01*
X373000Y418000D02*
Y424000D01*
X543000Y421000D02*
X549000D01*
X546000Y418000D02*
Y424000D01*
X438000Y331000D02*
X444000D01*
X441000Y328000D02*
Y334000D01*
X584000Y268270D02*
X590000D01*
X587000Y265270D02*
Y271270D01*
X305000Y210000D02*
X311000D01*
X308000Y207000D02*
Y213000D01*
X305000Y233000D02*
X311000D01*
X308000Y230000D02*
Y236000D01*
X133000Y256000D02*
X139000D01*
X136000Y253000D02*
Y259000D01*
X305000Y271000D02*
X311000D01*
X308000Y268000D02*
Y274000D01*
X276000Y271000D02*
X282000D01*
X279000Y268000D02*
Y274000D01*
X305000Y291000D02*
X311000D01*
X308000Y288000D02*
Y294000D01*
X276000Y291000D02*
X282000D01*
X279000Y288000D02*
Y294000D01*
X252000Y291000D02*
X258000D01*
X255000Y288000D02*
Y294000D01*
X315000Y372000D02*
X321000D01*
X318000Y369000D02*
Y375000D01*
X520000Y330000D02*
X526000D01*
X523000Y327000D02*
Y333000D01*
X233000Y350000D02*
X239000D01*
X236000Y347000D02*
Y353000D01*
X77000Y84000D02*
X83000D01*
X80000Y81000D02*
Y87000D01*
X584000Y248000D02*
X590000D01*
X587000Y245000D02*
Y251000D01*
X584000Y225000D02*
X590000D01*
X587000Y222000D02*
Y228000D01*
X386000Y84000D02*
X392000D01*
X389000Y81000D02*
Y87000D01*
X407000Y84000D02*
X413000D01*
X410000Y81000D02*
Y87000D01*
X429000Y84000D02*
X435000D01*
X432000Y81000D02*
Y87000D01*
X481000Y84000D02*
X487000D01*
X484000Y81000D02*
Y87000D01*
X459999Y84000D02*
X465999D01*
X462999Y81000D02*
Y87000D01*
X495000Y330000D02*
X501000D01*
X498000Y327000D02*
Y333000D01*
X263752Y84000D02*
X269752D01*
X266752Y81000D02*
Y87000D01*
X558000Y84000D02*
X564000D01*
X561000Y81000D02*
Y87000D01*
X94000Y84000D02*
X100000D01*
X97000Y81000D02*
Y87000D01*
X114000Y84000D02*
X120000D01*
X117000Y81000D02*
Y87000D01*
X538000Y84000D02*
X544000D01*
X541000Y81000D02*
Y87000D01*
X513000Y84000D02*
X519000D01*
X516000Y81000D02*
Y87000D01*
X363753Y84000D02*
X369752D01*
X366753Y81000D02*
Y87000D01*
X338753Y84000D02*
X344752D01*
X341753Y81000D02*
Y87000D01*
X288752Y84000D02*
X294752D01*
X291752Y81000D02*
Y87000D01*
X313752Y84000D02*
X319752D01*
X316752Y81000D02*
Y87000D01*
X161000Y84000D02*
X167000D01*
X164000Y81000D02*
Y87000D01*
X178000Y84000D02*
X184000D01*
X181000Y81000D02*
Y87000D01*
X607000Y44000D02*
X637000D01*
X622000Y29000D02*
Y59000D01*
X27000Y44000D02*
X57000D01*
X42000Y29000D02*
Y59000D01*
M02*
