M48
;Layer_Color=9474304
;FILE_FORMAT=4:4
METRIC,LZ
;TYPE=PLATED
T1F00S00C0.6000
T2F00S00C0.8000
T3F00S00C1.0000
T4F00S00C3.2000
%
T01
X00421074Y-00011965
X00441826
X00466826
X00491826
X00516826
X00541826
X00564074
X00585074
X00607074
X00638073
X00659074
X00691074
X00716074
X00736074
X00762074Y00129035
Y00152035
Y00172305
X00701414Y00231035
X00672786Y00234322
X00616074Y00235035
X00495074Y00273399
X00484213Y00184347
X00455213
X00431213
X00411074Y00254035
X00383866Y00240472
Y00220472
X00329074Y00221972
Y00240472
X00311074Y00160035
X00274386Y00152305
Y00133805
Y00098035
Y00078035
Y00043992
Y00023992
X00272074Y-00011965
X00292074
X00251048Y-00012717
X00336158Y-00011965
X00356074
X00381074
X00308567Y00018033
X00320074Y00073035
X00485587Y00314548
X00548074Y00325035
X00567074
X00721074
T02
X00811074Y00055347
Y00080347
Y00105347
Y00130347
Y00155347
X00810074Y0022643
X00785074
X00618486Y00271035
X00597686Y0014368
X00521686
X00518826Y00034035
X00493826
X00468826
X00443826
X00543826
X00605909
X00630909
X00693074
X00718074
X00382743
X00357743
X00207074Y00035705
Y00010705
Y00097787
Y00122787
Y0018487
Y0020987
Y00271952
Y00296952
X00279156Y00296035
X00304156
X00366239
X00391239
X00618486Y00296035
X00784636Y00299035
X00809636
T03
X00418236Y-00059965
Y-00034565
X00443636
X00469036
Y-00059965
X00494436
X00519836
Y-00034565
X00494436
X00545236
X00570636
Y-00059965
X00596036
X00621436
Y-00034565
X00596036
X00646836
X00672236
Y-00059965
X00697636
X00723036
Y-00034565
X00697636
X00748436
Y-00059965
X00646836
X00545236
X00443636
X00392836
X00367436
Y-00034565
X00392836
X00342036
X00316636
Y-00059965
X00291236
X00265836
Y-00034565
X00291236
X00342036Y-00059965
T04
X00797074Y-00051965
X00217074
M30
