%TF.GenerationSoftware,Altium Limited,Altium Designer,19.1.9 (167)*%
G04 Layer_Color=0*
%FSLAX44Y44*%
%MOMM*%
%TF.FileFunction,Plated,1,2,PTH,Drill*%
%TF.Part,Single*%
G01*
G75*
%TA.AperFunction,ComponentDrill*%
%ADD10C,0.6000*%
%ADD11C,1.0000*%
%ADD12C,0.8000*%
%ADD13C,0.8000*%
%TA.AperFunction,ViaDrill,NotFilled*%
%ADD14C,0.6000*%
%ADD15C,3.2000*%
D10*
X742750Y319000D02*
D03*
Y299000D02*
D03*
X742250Y257750D02*
D03*
Y237750D02*
D03*
X490000Y205250D02*
D03*
Y223750D02*
D03*
X347250Y246750D02*
D03*
Y228250D02*
D03*
X272500Y204250D02*
D03*
Y184250D02*
D03*
X275500Y125500D02*
D03*
Y105500D02*
D03*
X488750Y292750D02*
D03*
Y312750D02*
D03*
D11*
X748436Y-34565D02*
D03*
Y-59965D02*
D03*
X646836Y-34565D02*
D03*
Y-59965D02*
D03*
X545236Y-34565D02*
D03*
Y-59965D02*
D03*
X443636Y-34565D02*
D03*
Y-59965D02*
D03*
X342036Y-34565D02*
D03*
Y-59965D02*
D03*
X672236Y-34565D02*
D03*
X697636D02*
D03*
X672236Y-59965D02*
D03*
X697636D02*
D03*
X596036Y-34565D02*
D03*
X621436D02*
D03*
X596036Y-59965D02*
D03*
X621436D02*
D03*
X494436Y-34565D02*
D03*
X519836D02*
D03*
X494436Y-59965D02*
D03*
X519836D02*
D03*
X418236Y-34565D02*
D03*
X469036D02*
D03*
X418236Y-59965D02*
D03*
X469036D02*
D03*
X367436Y-34565D02*
D03*
X392836D02*
D03*
X367436Y-59965D02*
D03*
X392836D02*
D03*
X265836Y-34565D02*
D03*
X291236D02*
D03*
X265836Y-59965D02*
D03*
X291236D02*
D03*
X570636Y-34565D02*
D03*
X723036D02*
D03*
X570636Y-59965D02*
D03*
X723036D02*
D03*
X316636Y-34565D02*
D03*
Y-59965D02*
D03*
D12*
X713750Y98750D02*
D03*
X688750D02*
D03*
X663750D02*
D03*
X638750D02*
D03*
X613750D02*
D03*
X543826Y34035D02*
D03*
X518826D02*
D03*
X493826D02*
D03*
X468826D02*
D03*
X443826D02*
D03*
X364250Y34000D02*
D03*
X389250D02*
D03*
X693074Y34035D02*
D03*
X718074D02*
D03*
X613250Y34250D02*
D03*
X638250D02*
D03*
X474000Y122250D02*
D03*
X550000D02*
D03*
D13*
X806750Y286500D02*
D03*
Y311500D02*
D03*
X406250Y289500D02*
D03*
Y314500D02*
D03*
X272750Y289250D02*
D03*
Y314250D02*
D03*
X206000Y288500D02*
D03*
Y313500D02*
D03*
X205250Y23750D02*
D03*
Y48750D02*
D03*
X270250Y24250D02*
D03*
Y49250D02*
D03*
X206750Y183000D02*
D03*
Y208000D02*
D03*
Y103250D02*
D03*
Y128250D02*
D03*
X338000Y288250D02*
D03*
Y313250D02*
D03*
D14*
X827480Y194900D02*
D03*
X519250Y280250D02*
D03*
X565000Y290750D02*
D03*
X302250Y228250D02*
D03*
X361529Y70471D02*
D03*
X346250Y194000D02*
D03*
X391000Y193250D02*
D03*
X452250Y194000D02*
D03*
X324500Y68000D02*
D03*
X311500Y-10750D02*
D03*
X291250Y-11250D02*
D03*
X706250Y257750D02*
D03*
X378750Y-10000D02*
D03*
X400750Y-9250D02*
D03*
X707000Y306000D02*
D03*
X492000Y262250D02*
D03*
X708000Y284750D02*
D03*
X678000Y151250D02*
D03*
X694000Y132500D02*
D03*
X755250Y193750D02*
D03*
X564074Y-11965D02*
D03*
X421074D02*
D03*
X236000Y-11500D02*
D03*
X585074Y-11965D02*
D03*
X607074D02*
D03*
X659074D02*
D03*
X638073D02*
D03*
X441826D02*
D03*
X736074D02*
D03*
X716074D02*
D03*
X691074D02*
D03*
X541826D02*
D03*
X516826D02*
D03*
X466826D02*
D03*
X491826D02*
D03*
D15*
X797074Y-51965D02*
D03*
X217074D02*
D03*
%TF.MD5,1738e6789ba33fb9f38b7bea08e99fed*%
M02*
