G04*
G04 #@! TF.GenerationSoftware,Altium Limited,Altium Designer,20.0.11 (256)*
G04*
G04 Layer_Physical_Order=1*
G04 Layer_Color=255*
%FSLAX44Y44*%
%MOMM*%
G71*
G01*
G75*
%ADD10R,1.5000X1.0000*%
%ADD11R,3.5000X1.6000*%
%ADD12R,1.0000X0.7500*%
%ADD13R,3.9550X4.5600*%
%ADD14R,0.5750X0.7500*%
%ADD15R,0.5750X0.7700*%
%ADD16R,0.9050X0.4950*%
%ADD17R,0.9500X1.2500*%
%ADD18R,0.9500X1.2500*%
%ADD19R,1.2000X1.5000*%
%ADD20R,1.5000X1.2000*%
%ADD21R,0.8300X0.6300*%
%ADD22R,1.5200X0.6000*%
%ADD23R,2.0300X2.7200*%
%ADD24C,0.8000*%
%ADD25C,0.6000*%
%ADD26C,0.4000*%
%ADD27C,0.5000*%
%ADD28C,1.0000*%
%ADD29C,1.3000*%
%ADD30R,1.3000X1.3000*%
%ADD31C,1.5000*%
%ADD32R,1.5000X1.5000*%
%ADD33C,1.2700*%
%ADD34C,6.0000*%
G36*
X861250Y-110500D02*
X165000D01*
X165000Y344385D01*
X861250Y344385D01*
X861250Y-110500D01*
D02*
G37*
%LPC*%
G36*
X677040Y331540D02*
X668270D01*
Y325270D01*
X677040D01*
Y331540D01*
D02*
G37*
G36*
X665730D02*
X656960D01*
Y325270D01*
X665730D01*
Y331540D01*
D02*
G37*
G36*
X744020Y328259D02*
Y320270D01*
X752009D01*
X749669Y325919D01*
X744020Y328259D01*
D02*
G37*
G36*
X741480Y328259D02*
X735831Y325919D01*
X733491Y320270D01*
X741480D01*
Y328259D01*
D02*
G37*
G36*
X677040Y322730D02*
X668270D01*
Y316460D01*
X677040D01*
Y322730D01*
D02*
G37*
G36*
X665730D02*
X656960D01*
Y316460D01*
X665730D01*
Y322730D01*
D02*
G37*
G36*
X407520Y324841D02*
Y315770D01*
X416591D01*
X413934Y322184D01*
X407520Y324841D01*
D02*
G37*
G36*
X404980Y324841D02*
X398566Y322184D01*
X395909Y315770D01*
X404980D01*
Y324841D01*
D02*
G37*
G36*
X274020Y324591D02*
Y315520D01*
X283091D01*
X280434Y321934D01*
X274020Y324591D01*
D02*
G37*
G36*
X271480Y324591D02*
X265066Y321934D01*
X262409Y315520D01*
X271480D01*
Y324591D01*
D02*
G37*
G36*
X207270Y323841D02*
Y314770D01*
X216341D01*
X213684Y321184D01*
X207270Y323841D01*
D02*
G37*
G36*
X204730Y323841D02*
X198316Y321184D01*
X195659Y314770D01*
X204730D01*
Y323841D01*
D02*
G37*
G36*
X339270Y323591D02*
Y314520D01*
X348341D01*
X345684Y320934D01*
X339270Y323591D01*
D02*
G37*
G36*
X336730Y323591D02*
X330316Y320934D01*
X327659Y314520D01*
X336730D01*
Y323591D01*
D02*
G37*
G36*
X490020Y323091D02*
Y314020D01*
X499091D01*
X496434Y320434D01*
X490020Y323091D01*
D02*
G37*
G36*
X487480Y323091D02*
X481066Y320434D01*
X478409Y314020D01*
X487480D01*
Y323091D01*
D02*
G37*
G36*
X808020Y321841D02*
Y312770D01*
X817091D01*
X814434Y319184D01*
X808020Y321841D01*
D02*
G37*
G36*
X805480Y321841D02*
X799066Y319184D01*
X796409Y312770D01*
X805480D01*
Y321841D01*
D02*
G37*
G36*
X695950Y333127D02*
X688000D01*
X686970Y332700D01*
X679850D01*
Y318400D01*
X686970D01*
X688000Y317973D01*
X692812D01*
X697550Y313235D01*
X696819Y311472D01*
X696150Y310400D01*
Y310400D01*
X696150Y310400D01*
X689530D01*
X688500Y310827D01*
X678500D01*
Y314000D01*
X655500D01*
Y311577D01*
X653350D01*
Y323700D01*
X630150D01*
Y309700D01*
Y297000D01*
Y284300D01*
X636504D01*
X642177Y278627D01*
X648300Y276091D01*
X699139D01*
X699198Y275948D01*
X708000Y272302D01*
X716802Y275948D01*
X720447Y284750D01*
X716802Y293552D01*
X713433Y294947D01*
Y296217D01*
X715802Y297198D01*
X719447Y306000D01*
X715802Y314802D01*
X714172Y315477D01*
X712358Y319858D01*
X701308Y330908D01*
X695950Y333127D01*
D02*
G37*
G36*
X404980Y313230D02*
X395909D01*
X398566Y306816D01*
X404980Y304159D01*
Y313230D01*
D02*
G37*
G36*
X416591D02*
X407520D01*
Y304159D01*
X413934Y306816D01*
X416591Y313230D01*
D02*
G37*
G36*
X271480Y312980D02*
X262409D01*
X265066Y306566D01*
X271480Y303909D01*
Y312980D01*
D02*
G37*
G36*
X283091D02*
X274020D01*
Y303909D01*
X280434Y306566D01*
X283091Y312980D01*
D02*
G37*
G36*
X216341Y312230D02*
X207270D01*
Y303159D01*
X213684Y305816D01*
X216341Y312230D01*
D02*
G37*
G36*
X204730D02*
X195659D01*
X198316Y305816D01*
X204730Y303159D01*
Y312230D01*
D02*
G37*
G36*
X336730Y311980D02*
X327659D01*
X330316Y305566D01*
X336730Y302909D01*
Y311980D01*
D02*
G37*
G36*
X348341D02*
X339270D01*
Y302909D01*
X345684Y305566D01*
X348341Y311980D01*
D02*
G37*
G36*
X817091Y310230D02*
X808020D01*
Y301159D01*
X814434Y303816D01*
X817091Y310230D01*
D02*
G37*
G36*
X805480D02*
X796409D01*
X799066Y303816D01*
X805480Y301159D01*
Y310230D01*
D02*
G37*
G36*
X580093Y337077D02*
X568500D01*
X563142Y334857D01*
X520475Y292190D01*
X519250Y292698D01*
X510448Y289052D01*
X506802Y280250D01*
X509939Y272679D01*
X509090Y271409D01*
X499939D01*
X492000Y274697D01*
X483198Y271052D01*
X479552Y262250D01*
X483198Y253448D01*
X492000Y249802D01*
X500802Y253448D01*
X501068Y254091D01*
X533750D01*
X535341Y254750D01*
X545750D01*
Y266659D01*
X546409Y268250D01*
X545750Y269841D01*
Y277750D01*
X545327D01*
Y280217D01*
X552398Y287288D01*
X552398Y287288D01*
X553129Y288019D01*
X554374Y287771D01*
X556923Y281617D01*
Y269500D01*
X554250D01*
Y251500D01*
X554250D01*
Y251054D01*
X553276Y249784D01*
X545750D01*
Y250750D01*
X525750D01*
Y227750D01*
X545750D01*
Y232466D01*
X563875D01*
X563957Y232500D01*
X577250D01*
Y232591D01*
X582625D01*
Y217600D01*
X613975D01*
Y212875D01*
X631025D01*
Y217600D01*
X635350D01*
Y271200D01*
X631025D01*
Y275825D01*
X613975D01*
Y271200D01*
X605659D01*
Y286250D01*
X603123Y292373D01*
X603123Y292373D01*
X598873Y296623D01*
X598150Y296922D01*
Y309700D01*
Y322400D01*
Y336400D01*
X587942D01*
X586550Y336977D01*
X580334D01*
X580093Y337077D01*
D02*
G37*
G36*
X752009Y317730D02*
X742750D01*
X733491D01*
X735831Y312081D01*
X739055Y310746D01*
X738808Y309500D01*
X732250D01*
Y288500D01*
X753250D01*
Y309500D01*
X746693D01*
X746445Y310746D01*
X749669Y312081D01*
X752009Y317730D01*
D02*
G37*
G36*
X499091Y311480D02*
X488750D01*
X478409D01*
X481066Y305066D01*
X483216Y304175D01*
Y302905D01*
X479948Y301552D01*
X476302Y292750D01*
X479948Y283948D01*
X488750Y280303D01*
X497552Y283948D01*
X501198Y292750D01*
X497552Y301552D01*
X494284Y302905D01*
Y304175D01*
X496434Y305066D01*
X499091Y311480D01*
D02*
G37*
G36*
X406250Y301947D02*
X397448Y298302D01*
X393802Y289500D01*
X397448Y280698D01*
X406250Y277052D01*
X415052Y280698D01*
X418698Y289500D01*
X415052Y298302D01*
X406250Y301947D01*
D02*
G37*
G36*
X272750Y301698D02*
X263948Y298052D01*
X260303Y289250D01*
X263948Y280448D01*
X272750Y276803D01*
X281552Y280448D01*
X285197Y289250D01*
X281552Y298052D01*
X272750Y301698D01*
D02*
G37*
G36*
X206000Y300947D02*
X197198Y297302D01*
X193552Y288500D01*
X197198Y279698D01*
X206000Y276052D01*
X214802Y279698D01*
X218447Y288500D01*
X214802Y297302D01*
X206000Y300947D01*
D02*
G37*
G36*
X338000Y300697D02*
X329198Y297052D01*
X325552Y288250D01*
X329198Y279448D01*
X338000Y275802D01*
X346802Y279448D01*
X350448Y288250D01*
X346802Y297052D01*
X338000Y300697D01*
D02*
G37*
G36*
X806750Y298948D02*
X797948Y295302D01*
X794303Y286500D01*
X797948Y277698D01*
X806750Y274053D01*
X815552Y277698D01*
X819197Y286500D01*
X815552Y295302D01*
X806750Y298948D01*
D02*
G37*
G36*
X655000Y271200D02*
X637000D01*
Y255700D01*
X655000D01*
Y271200D01*
D02*
G37*
G36*
X253290Y257790D02*
X247270D01*
Y250270D01*
X253290D01*
Y257790D01*
D02*
G37*
G36*
X244730D02*
X238710D01*
Y250270D01*
X244730D01*
Y257790D01*
D02*
G37*
G36*
X348520Y257091D02*
Y248020D01*
X357591D01*
X354934Y254434D01*
X348520Y257091D01*
D02*
G37*
G36*
X345980D02*
X339566Y254434D01*
X336909Y248020D01*
X345980D01*
Y257091D01*
D02*
G37*
G36*
X706250Y270198D02*
X697448Y266552D01*
X693802Y257750D01*
X693862Y257607D01*
X670423Y234169D01*
X667887Y228046D01*
Y214296D01*
X664800D01*
Y200244D01*
X658650D01*
Y201450D01*
X642350D01*
Y200494D01*
X635250D01*
Y202000D01*
X612250D01*
Y184000D01*
X614766D01*
X614908Y183658D01*
X616955Y182810D01*
X616702Y181540D01*
X613710D01*
Y175270D01*
X622480D01*
Y181540D01*
X622298D01*
X622045Y182810D01*
X624092Y183658D01*
X624434Y184000D01*
X635250D01*
Y187506D01*
X642350D01*
Y187150D01*
X658650D01*
Y187256D01*
X664800D01*
Y174896D01*
X688000D01*
Y187596D01*
Y200296D01*
Y214296D01*
X685205D01*
Y224459D01*
X706107Y245362D01*
X706250Y245303D01*
X715052Y248948D01*
X718698Y257750D01*
X715052Y266552D01*
X706250Y270198D01*
D02*
G37*
G36*
X253290Y247730D02*
X247270D01*
Y240210D01*
X253290D01*
Y247730D01*
D02*
G37*
G36*
X244730D02*
X238710D01*
Y240210D01*
X244730D01*
Y247730D01*
D02*
G37*
G36*
X752750Y268250D02*
X731750D01*
Y247250D01*
X738307D01*
X738555Y246004D01*
X735331Y244669D01*
X732991Y239020D01*
X742250D01*
X751509D01*
X749169Y244669D01*
X745945Y246004D01*
X746192Y247250D01*
X752750D01*
Y268250D01*
D02*
G37*
G36*
X751509Y236480D02*
X743520D01*
Y228491D01*
X749169Y230831D01*
X751509Y236480D01*
D02*
G37*
G36*
X740980D02*
X732991D01*
X735331Y230831D01*
X740980Y228491D01*
Y236480D01*
D02*
G37*
G36*
X357591Y245480D02*
X347250D01*
X336909D01*
X339566Y239066D01*
X339905Y238925D01*
Y237655D01*
X338448Y237052D01*
X334803Y228250D01*
X338448Y219448D01*
X347250Y215802D01*
X356052Y219448D01*
X359697Y228250D01*
X356052Y237052D01*
X354595Y237655D01*
Y238925D01*
X354934Y239066D01*
X357591Y245480D01*
D02*
G37*
G36*
X275750Y259250D02*
X275750Y259250D01*
X258250D01*
Y238750D01*
X275750D01*
Y238750D01*
X277000D01*
Y238750D01*
X293091D01*
Y236189D01*
X289802Y228250D01*
X293448Y219448D01*
X302250Y215802D01*
X311052Y219448D01*
X314697Y228250D01*
X311052Y237052D01*
X310409Y237318D01*
Y248500D01*
X310000Y249488D01*
Y259250D01*
X277000D01*
X277000Y259250D01*
Y259250D01*
X275750D01*
Y259250D01*
D02*
G37*
G36*
X490000Y236197D02*
X481198Y232552D01*
X477552Y223750D01*
X481198Y214948D01*
X482655Y214345D01*
Y213075D01*
X482316Y212934D01*
X479659Y206520D01*
X490000D01*
X500341D01*
X497684Y212934D01*
X497345Y213075D01*
Y214345D01*
X498802Y214948D01*
X502448Y223750D01*
X498802Y232552D01*
X490000Y236197D01*
D02*
G37*
G36*
X452250Y206448D02*
X443448Y202802D01*
X443234Y202284D01*
X399241D01*
X391000Y205697D01*
X382198Y202052D01*
X378553Y193250D01*
X382198Y184448D01*
X391000Y180802D01*
X399802Y184448D01*
X400016Y184966D01*
X444009D01*
X452250Y181553D01*
X461052Y185198D01*
X464697Y194000D01*
X461052Y202802D01*
X452250Y206448D01*
D02*
G37*
G36*
X828750Y203996D02*
Y196170D01*
X836576D01*
X834284Y201704D01*
X828750Y203996D01*
D02*
G37*
G36*
X826210D02*
X820676Y201704D01*
X818384Y196170D01*
X826210D01*
Y203996D01*
D02*
G37*
G36*
X347520Y203096D02*
Y195270D01*
X355346D01*
X353054Y200804D01*
X347520Y203096D01*
D02*
G37*
G36*
X344980D02*
X339446Y200804D01*
X337154Y195270D01*
X344980D01*
Y203096D01*
D02*
G37*
G36*
X500341Y203980D02*
X491270D01*
Y194909D01*
X497684Y197566D01*
X500341Y203980D01*
D02*
G37*
G36*
X488730D02*
X479659D01*
X482316Y197566D01*
X488730Y194909D01*
Y203980D01*
D02*
G37*
G36*
X836576Y193630D02*
X828750D01*
Y185804D01*
X834284Y188096D01*
X836576Y193630D01*
D02*
G37*
G36*
X826210D02*
X818384D01*
X820676Y188096D01*
X826210Y185804D01*
Y193630D01*
D02*
G37*
G36*
X355346Y192730D02*
X347520D01*
Y184904D01*
X353054Y187196D01*
X355346Y192730D01*
D02*
G37*
G36*
X344980D02*
X337154D01*
X339446Y187196D01*
X344980Y184904D01*
Y192730D01*
D02*
G37*
G36*
X633790Y181540D02*
X625020D01*
Y175270D01*
X633790D01*
Y181540D01*
D02*
G37*
G36*
X272500Y216698D02*
X263698Y213052D01*
X260053Y204250D01*
X263698Y195448D01*
X265058Y194885D01*
Y193615D01*
X263698Y193052D01*
X260053Y184250D01*
X263698Y175448D01*
X272500Y171803D01*
X281302Y175448D01*
X284947Y184250D01*
X281302Y193052D01*
X279942Y193615D01*
Y194885D01*
X281302Y195448D01*
X284947Y204250D01*
X281302Y213052D01*
X272500Y216698D01*
D02*
G37*
G36*
X206750Y220448D02*
X197948Y216802D01*
X194303Y208000D01*
X197948Y199198D01*
X205217Y196187D01*
Y194813D01*
X197948Y191802D01*
X194303Y183000D01*
X197948Y174198D01*
X206750Y170553D01*
X215552Y174198D01*
X219198Y183000D01*
X215552Y191802D01*
X208283Y194813D01*
Y196187D01*
X215552Y199198D01*
X219198Y208000D01*
X215552Y216802D01*
X206750Y220448D01*
D02*
G37*
G36*
X633790Y172730D02*
X625020D01*
Y166460D01*
X633790D01*
Y172730D01*
D02*
G37*
G36*
X622480D02*
X613710D01*
Y166460D01*
X622480D01*
Y172730D01*
D02*
G37*
G36*
X785000Y216827D02*
X738154D01*
X733437Y214873D01*
X731600D01*
X730208Y214296D01*
X720000D01*
Y200296D01*
Y187596D01*
Y174896D01*
Y170696D01*
X718964Y168196D01*
X718964Y168196D01*
Y160256D01*
X717890Y159182D01*
X717250Y159447D01*
X708448Y155802D01*
X704802Y147000D01*
X708448Y138198D01*
X717250Y134552D01*
X726052Y138198D01*
X726383Y138998D01*
X727653D01*
X727984Y138198D01*
X729750Y137467D01*
Y104200D01*
X726450Y100900D01*
X725204Y101147D01*
X722552Y107552D01*
X713750Y111198D01*
X704948Y107552D01*
X701302Y98750D01*
X704948Y89948D01*
X711352Y87296D01*
X711600Y86050D01*
X667568Y42018D01*
X665508Y37043D01*
X665508Y37043D01*
Y-545D01*
X664452Y-1250D01*
X658543Y1197D01*
X649741Y-2449D01*
X646096Y-11250D01*
X649741Y-20052D01*
X649503Y-21250D01*
X640831D01*
Y-16306D01*
X640232Y-14862D01*
X641728Y-11250D01*
X638082Y-2449D01*
X629281Y1197D01*
X620479Y-2449D01*
X620302Y-2877D01*
X619032D01*
X618854Y-2449D01*
X610052Y1197D01*
X601251Y-2449D01*
X597605Y-11250D01*
X601251Y-20052D01*
X601013Y-21250D01*
X592994D01*
Y16020D01*
X591092Y20612D01*
X577131Y34574D01*
Y79684D01*
X578186Y80389D01*
X579000Y80052D01*
X587802Y83698D01*
X591447Y92500D01*
X587802Y101302D01*
X581613Y103865D01*
Y105135D01*
X587802Y107698D01*
X591447Y116500D01*
X587802Y125302D01*
X579000Y128947D01*
X570198Y125302D01*
X566553Y116500D01*
X567508Y114193D01*
X556408Y103092D01*
X554506Y98500D01*
Y41558D01*
X553260Y41310D01*
X552628Y42836D01*
X543826Y46482D01*
X535024Y42836D01*
X532013Y35567D01*
X530639D01*
X527628Y42836D01*
X518826Y46482D01*
X510024Y42836D01*
X507013Y35567D01*
X505639D01*
X502628Y42836D01*
X493826Y46482D01*
X485024Y42836D01*
X482013Y35567D01*
X480639D01*
X477628Y42836D01*
X468826Y46482D01*
X460024Y42836D01*
X457013Y35567D01*
X455639D01*
X452628Y42836D01*
X443826Y46482D01*
X435024Y42836D01*
X431379Y34035D01*
X435024Y25233D01*
X443826Y21587D01*
X452628Y25233D01*
X455639Y32502D01*
X457013D01*
X460024Y25233D01*
X468826Y21587D01*
X477628Y25233D01*
X480639Y32502D01*
X482013D01*
X485024Y25233D01*
X493826Y21587D01*
X502628Y25233D01*
X505639Y32502D01*
X507013D01*
X510024Y25233D01*
X518826Y21587D01*
X527628Y25233D01*
X530639Y32502D01*
X532013D01*
X535024Y25233D01*
X543826Y21587D01*
X552628Y25233D01*
X553749Y27939D01*
X555123D01*
X556408Y24838D01*
X564142Y17104D01*
Y-21250D01*
X543710D01*
X543457Y-19980D01*
X546302Y-18802D01*
X549948Y-10000D01*
X546302Y-1198D01*
X537500Y2447D01*
X528698Y-1198D01*
X528260Y-2256D01*
X526990D01*
X526552Y-1198D01*
X517750Y2447D01*
X508948Y-1198D01*
X507635Y-4369D01*
X506365D01*
X505052Y-1198D01*
X496250Y2447D01*
X487448Y-1198D01*
X486760Y-2860D01*
X485490D01*
X484802Y-1198D01*
X476000Y2447D01*
X467198Y-1198D01*
X466411Y-3098D01*
X465141D01*
X464354Y-1198D01*
X455552Y2447D01*
X446751Y-1198D01*
X443105Y-10000D01*
X446751Y-18802D01*
X449595Y-19980D01*
X449343Y-21250D01*
X437568D01*
Y-19250D01*
X435666Y-14658D01*
X432565Y-11557D01*
X433521Y-9250D01*
X429875Y-448D01*
X421074Y3198D01*
X412272Y-448D01*
X411547Y-2199D01*
X410277D01*
X409552Y-448D01*
X400750Y3198D01*
X391948Y-448D01*
X390230Y-4597D01*
X388960D01*
X387552Y-1198D01*
X378750Y2447D01*
X369948Y-1198D01*
X366302Y-10000D01*
X369948Y-18802D01*
X372793Y-19980D01*
X372540Y-21250D01*
X361244D01*
Y-17293D01*
X359342Y-12701D01*
X355994Y-9353D01*
Y-6250D01*
Y23829D01*
X357050Y24535D01*
X364250Y21553D01*
X373052Y25198D01*
X376063Y32468D01*
X377437D01*
X380448Y25198D01*
X389250Y21553D01*
X398052Y25198D01*
X401698Y34000D01*
X398052Y42802D01*
X389250Y46448D01*
X380448Y42802D01*
X377437Y35533D01*
X376063D01*
X373052Y42802D01*
X364250Y46448D01*
X357050Y43465D01*
X355994Y44171D01*
Y55751D01*
X359287Y59044D01*
X361372Y58181D01*
X370174Y61826D01*
X373819Y70628D01*
X370174Y79430D01*
X361372Y83076D01*
X352570Y79430D01*
X348924Y70628D01*
X349972Y68098D01*
X344908Y63033D01*
X343006Y58441D01*
Y-6250D01*
Y-12043D01*
X344908Y-16635D01*
X348252Y-19980D01*
X348248Y-21250D01*
X338671D01*
X333285Y-15865D01*
Y59192D01*
X333302Y59198D01*
X336948Y68000D01*
X333302Y76802D01*
X324500Y80448D01*
X315698Y76802D01*
X312052Y68000D01*
X315698Y59198D01*
X319214Y57742D01*
Y-355D01*
X318158Y-1061D01*
X311500Y1698D01*
X302698Y-1948D01*
X301907Y-3860D01*
X300636D01*
X300052Y-2448D01*
X291250Y1198D01*
X282448Y-2448D01*
X278803Y-11250D01*
X282448Y-20052D01*
X282023Y-21250D01*
X253000D01*
Y-71750D01*
X289636D01*
X291236Y-72413D01*
X292836Y-71750D01*
X315036D01*
X316636Y-72413D01*
X318236Y-71750D01*
X365836D01*
X367436Y-72413D01*
X369036Y-71750D01*
X416636D01*
X418236Y-72413D01*
X419836Y-71750D01*
X426752D01*
X433559Y-78557D01*
X438151Y-80460D01*
X480074D01*
X484666Y-78557D01*
X491473Y-71750D01*
X492836D01*
X494436Y-72413D01*
X496036Y-71750D01*
X543636D01*
X545236Y-72413D01*
X546836Y-71750D01*
X569036D01*
X570636Y-72413D01*
X572236Y-71750D01*
X619836D01*
X621436Y-72413D01*
X623036Y-71750D01*
X645236D01*
X646836Y-72413D01*
X648436Y-71750D01*
X670636D01*
X672236Y-72413D01*
X673836Y-71750D01*
X721436D01*
X723036Y-72413D01*
X724636Y-71750D01*
X746836D01*
X748436Y-72413D01*
X750036Y-71750D01*
X756500D01*
Y-69073D01*
X757238Y-68767D01*
X760884Y-59965D01*
X758501Y-54214D01*
X761326Y-51389D01*
X762430Y-52081D01*
X765046Y-65231D01*
X772561Y-76478D01*
X783808Y-83993D01*
X797074Y-86631D01*
X810340Y-83993D01*
X821586Y-76478D01*
X829101Y-65231D01*
X831740Y-51965D01*
X829101Y-38699D01*
X821586Y-27453D01*
X810340Y-19938D01*
X797074Y-17299D01*
X783808Y-19938D01*
X772561Y-27453D01*
X770792Y-30100D01*
X769577Y-29731D01*
Y6750D01*
X786500D01*
Y20035D01*
X803888Y37423D01*
X817250D01*
X822607Y39643D01*
X831357Y48393D01*
X833266Y53000D01*
X834750D01*
Y73500D01*
X823294D01*
X823062Y74061D01*
X822329Y74793D01*
Y107500D01*
X821061Y110562D01*
X819850Y111063D01*
Y160850D01*
X815525D01*
Y165475D01*
X811577D01*
Y201000D01*
X809358Y206358D01*
X802607Y213107D01*
X798250Y214912D01*
Y216500D01*
X785789D01*
X785000Y216827D01*
D02*
G37*
G36*
X839500Y160850D02*
X821500D01*
Y145350D01*
X839500D01*
Y160850D01*
D02*
G37*
G36*
X650500Y179577D02*
X650025D01*
X648995Y179150D01*
X642350D01*
Y164850D01*
X645985D01*
X664942Y145892D01*
X668358Y144478D01*
X669198Y142448D01*
X678000Y138802D01*
X686802Y142448D01*
X690447Y151250D01*
X686802Y160052D01*
X678000Y163697D01*
X671330Y160935D01*
X658650Y173615D01*
Y179150D01*
X651530D01*
X650500Y179577D01*
D02*
G37*
G36*
X550000Y134698D02*
X541198Y131052D01*
X537552Y122250D01*
X541198Y113448D01*
X550000Y109803D01*
X558802Y113448D01*
X562448Y122250D01*
X558802Y131052D01*
X550000Y134698D01*
D02*
G37*
G36*
X474000D02*
X465198Y131052D01*
X461553Y122250D01*
X465198Y113448D01*
X474000Y109803D01*
X482802Y113448D01*
X486447Y122250D01*
X482802Y131052D01*
X474000Y134698D01*
D02*
G37*
G36*
X663750Y111198D02*
X654948Y107552D01*
X651937Y100282D01*
X650563D01*
X647552Y107552D01*
X638750Y111198D01*
X629948Y107552D01*
X626937Y100282D01*
X625563D01*
X622552Y107552D01*
X613750Y111198D01*
X604948Y107552D01*
X601302Y98750D01*
X604948Y89948D01*
X613750Y86302D01*
X622552Y89948D01*
X625563Y97218D01*
X626937D01*
X629948Y89948D01*
X638750Y86302D01*
X647552Y89948D01*
X650563Y97218D01*
X651937D01*
X654948Y89948D01*
X663750Y86302D01*
X672552Y89948D01*
X676198Y98750D01*
X672552Y107552D01*
X663750Y111198D01*
D02*
G37*
G36*
X690020Y109091D02*
Y100020D01*
X699091D01*
X696434Y106434D01*
X690020Y109091D01*
D02*
G37*
G36*
X687480Y109091D02*
X681066Y106434D01*
X678409Y100020D01*
X687480D01*
Y109091D01*
D02*
G37*
G36*
X275500Y137948D02*
X266698Y134302D01*
X263053Y125500D01*
X266698Y116698D01*
X268058Y116135D01*
Y114865D01*
X266698Y114302D01*
X263053Y105500D01*
X266698Y96698D01*
X275500Y93053D01*
X284302Y96698D01*
X287948Y105500D01*
X284302Y114302D01*
X282942Y114865D01*
Y116135D01*
X284302Y116698D01*
X287948Y125500D01*
X284302Y134302D01*
X275500Y137948D01*
D02*
G37*
G36*
X206750Y140697D02*
X197948Y137052D01*
X194303Y128250D01*
X197948Y119448D01*
X205217Y116437D01*
Y115063D01*
X197948Y112052D01*
X194303Y103250D01*
X197948Y94448D01*
X206750Y90802D01*
X215552Y94448D01*
X219198Y103250D01*
X215552Y112052D01*
X208283Y115063D01*
Y116437D01*
X215552Y119448D01*
X219198Y128250D01*
X215552Y137052D01*
X206750Y140697D01*
D02*
G37*
G36*
X687480Y97480D02*
X678409D01*
X681066Y91066D01*
X687480Y88409D01*
Y97480D01*
D02*
G37*
G36*
X699091D02*
X690020D01*
Y88409D01*
X696434Y91066D01*
X699091Y97480D01*
D02*
G37*
G36*
X271520Y59591D02*
Y50520D01*
X280591D01*
X277934Y56934D01*
X271520Y59591D01*
D02*
G37*
G36*
X268980D02*
X262566Y56934D01*
X259909Y50520D01*
X268980D01*
Y59591D01*
D02*
G37*
G36*
X206520Y59091D02*
Y50020D01*
X215591D01*
X212934Y56434D01*
X206520Y59091D01*
D02*
G37*
G36*
X203980Y59091D02*
X197566Y56434D01*
X194909Y50020D01*
X203980D01*
Y59091D01*
D02*
G37*
G36*
X280591Y47980D02*
X271520D01*
Y38909D01*
X277934Y41566D01*
X280591Y47980D01*
D02*
G37*
G36*
X268980D02*
X259909D01*
X262566Y41566D01*
X268980Y38909D01*
Y47980D01*
D02*
G37*
G36*
X203980Y47480D02*
X194909D01*
X197566Y41066D01*
X203980Y38409D01*
Y47480D01*
D02*
G37*
G36*
X215591D02*
X206520D01*
Y38409D01*
X212934Y41066D01*
X215591Y47480D01*
D02*
G37*
G36*
X638250Y46698D02*
X629448Y43052D01*
X626437Y35782D01*
X625063D01*
X622052Y43052D01*
X613250Y46698D01*
X604448Y43052D01*
X600802Y34250D01*
X604448Y25448D01*
X613250Y21802D01*
X622052Y25448D01*
X625063Y32717D01*
X626437D01*
X629448Y25448D01*
X638250Y21802D01*
X647052Y25448D01*
X650697Y34250D01*
X647052Y43052D01*
X638250Y46698D01*
D02*
G37*
G36*
X271520Y34591D02*
Y25520D01*
X280591D01*
X277934Y31934D01*
X271520Y34591D01*
D02*
G37*
G36*
X268980D02*
X262566Y31934D01*
X259909Y25520D01*
X268980D01*
Y34591D01*
D02*
G37*
G36*
X206520Y34091D02*
Y25020D01*
X215591D01*
X212934Y31434D01*
X206520Y34091D01*
D02*
G37*
G36*
X203980Y34091D02*
X197566Y31434D01*
X194909Y25020D01*
X203980D01*
Y34091D01*
D02*
G37*
G36*
X280591Y22980D02*
X271520D01*
Y13909D01*
X277934Y16566D01*
X280591Y22980D01*
D02*
G37*
G36*
X268980D02*
X259909D01*
X262566Y16566D01*
X268980Y13909D01*
Y22980D01*
D02*
G37*
G36*
X203980Y22480D02*
X194909D01*
X197566Y16066D01*
X203980Y13409D01*
Y22480D01*
D02*
G37*
G36*
X215591D02*
X206520D01*
Y13409D01*
X212934Y16066D01*
X215591Y22480D01*
D02*
G37*
G36*
X237270Y-1159D02*
Y-10230D01*
X246341D01*
X243684Y-3816D01*
X237270Y-1159D01*
D02*
G37*
G36*
X234730D02*
X228316Y-3816D01*
X225659Y-10230D01*
X234730D01*
Y-1159D01*
D02*
G37*
G36*
X246341Y-12770D02*
X225659D01*
X227890Y-18156D01*
X226976Y-19269D01*
X217074Y-17299D01*
X203808Y-19938D01*
X192561Y-27453D01*
X185046Y-38699D01*
X182407Y-51965D01*
X185046Y-65231D01*
X192561Y-76478D01*
X203808Y-83993D01*
X217074Y-86631D01*
X230340Y-83993D01*
X241586Y-76478D01*
X249101Y-65231D01*
X251740Y-51965D01*
X249101Y-38699D01*
X241586Y-27453D01*
X235731Y-23540D01*
X236161Y-22300D01*
X243684Y-19184D01*
X246341Y-12770D01*
D02*
G37*
%LPD*%
D10*
X565750Y241500D02*
D03*
Y260500D02*
D03*
X667000Y324000D02*
D03*
Y305000D02*
D03*
X786750Y188500D02*
D03*
Y207500D02*
D03*
X623750Y193000D02*
D03*
Y174000D02*
D03*
D11*
X819000Y18750D02*
D03*
X765000D02*
D03*
D12*
X646000Y250750D02*
D03*
Y238050D02*
D03*
Y263450D02*
D03*
Y225350D02*
D03*
X830500Y140400D02*
D03*
Y127700D02*
D03*
Y153100D02*
D03*
Y115000D02*
D03*
D13*
X611575Y244400D02*
D03*
X796075Y134050D02*
D03*
D14*
X589500Y225350D02*
D03*
X774000Y115000D02*
D03*
D15*
X589500Y263350D02*
D03*
X774000Y153000D02*
D03*
D16*
X622500Y219350D02*
D03*
Y269350D02*
D03*
X807000Y109000D02*
D03*
Y159000D02*
D03*
D17*
X826000Y63250D02*
D03*
X810500D02*
D03*
X301250Y249000D02*
D03*
X285750D02*
D03*
D18*
X810266Y82835D02*
D03*
X831266D02*
D03*
X267000Y249000D02*
D03*
X246000D02*
D03*
D19*
X535750Y266250D02*
D03*
Y239250D02*
D03*
D20*
X757000Y77250D02*
D03*
X784000D02*
D03*
D21*
X688000Y325550D02*
D03*
Y303250D02*
D03*
X650500Y172000D02*
D03*
Y194300D02*
D03*
D22*
X641750Y304000D02*
D03*
Y316700D02*
D03*
X586550Y329400D02*
D03*
Y316700D02*
D03*
Y304000D02*
D03*
Y291300D02*
D03*
X641750Y329400D02*
D03*
Y291300D02*
D03*
X676400Y194596D02*
D03*
Y181896D02*
D03*
X731600Y169196D02*
D03*
Y181896D02*
D03*
Y194596D02*
D03*
Y207296D02*
D03*
X676400Y169196D02*
D03*
Y207296D02*
D03*
D23*
X614150Y310346D02*
D03*
X704000Y188250D02*
D03*
D24*
X757000Y77250D02*
X759000Y79250D01*
Y167750D01*
X492000Y262250D02*
X492500Y262750D01*
X533750D01*
X762235Y18750D02*
X765000D01*
X761000D02*
X762235D01*
X757000Y22750D02*
X761000Y18750D01*
X757000Y22750D02*
Y77250D01*
X780750Y118725D02*
X784000Y115475D01*
X535750Y266250D02*
X537750Y268250D01*
X301250Y249000D02*
X301750Y248500D01*
Y228750D02*
Y248500D01*
Y228750D02*
X302250Y228250D01*
X391000Y193250D02*
X391375Y193625D01*
X451875D01*
X452250Y194000D01*
X581500Y290500D02*
X592750D01*
X608425Y241250D02*
X611575Y244400D01*
X567500Y241250D02*
X608425D01*
X565750Y243000D02*
X567500Y241250D01*
X592750Y290500D02*
X597000Y286250D01*
Y262000D02*
Y286250D01*
Y262000D02*
X611575Y247425D01*
X676546Y207296D02*
Y228046D01*
X706250Y257750D01*
X563875Y241125D02*
X565750Y243000D01*
X537625Y241125D02*
X563875D01*
X535750Y239250D02*
X537625Y241125D01*
X676400Y207296D02*
X676546D01*
X533750Y262750D02*
X535750Y264750D01*
Y266250D01*
X648300Y284750D02*
X708000D01*
X641750Y291300D02*
X648300Y284750D01*
X611575Y244400D02*
Y247425D01*
X784000Y77250D02*
Y115475D01*
D25*
X744854Y181896D02*
X759000Y167750D01*
X762000Y12454D02*
Y18250D01*
Y-40000D02*
Y12454D01*
X785000Y209250D02*
X786750Y207500D01*
X731600Y207296D02*
X736200D01*
X738154Y209250D01*
X785000D01*
X730250Y194750D02*
X754250D01*
X755250Y193750D01*
X519250Y280250D02*
X568500Y329500D01*
X547040Y292646D02*
X570894Y316500D01*
X580193Y316700D02*
X586550D01*
X570894Y316500D02*
X579993D01*
X580193Y316700D01*
X564500Y260250D02*
Y288185D01*
X566020Y289706D01*
X442250Y-33179D02*
Y-16974D01*
Y-33179D02*
X443636Y-34565D01*
X644750Y-32479D02*
X646836Y-34565D01*
X644750Y-32479D02*
Y-18250D01*
X731600Y181896D02*
X744854D01*
X804000Y159000D02*
Y201000D01*
X748436Y-53564D02*
X762000Y-40000D01*
X748436Y-59965D02*
Y-53564D01*
X762711Y12454D02*
Y18110D01*
X762235Y18250D02*
X767094D01*
X646315Y-34565D02*
X646836D01*
X762235Y18250D02*
Y18750D01*
X826000Y53750D02*
Y63250D01*
X817250Y45000D02*
X826000Y53750D01*
X800750Y45000D02*
X817250D01*
X774500Y18750D02*
X800750Y45000D01*
X765000Y18750D02*
X774500D01*
X804000Y141975D02*
Y159000D01*
X796075Y134050D02*
X804000Y141975D01*
X797250Y207750D02*
X804000Y201000D01*
X788500Y207750D02*
X797250D01*
X786750Y206000D02*
X788500Y207750D01*
X783000Y193750D02*
X786750Y190000D01*
X785454Y207296D02*
X786750Y206000D01*
X568500Y329500D02*
X580093D01*
X537750Y283356D02*
X547040Y292646D01*
X537750Y268250D02*
Y283356D01*
X547040Y292646D02*
Y292646D01*
X580093Y329500D02*
X580193Y329400D01*
X586550D01*
X565000Y290750D02*
X578250Y304000D01*
X586550D01*
X707000Y306000D02*
Y314500D01*
X695950Y325550D02*
X707000Y314500D01*
X688000Y325550D02*
X695950D01*
X641750Y304000D02*
X667500D01*
X688000Y303250D02*
X688500D01*
X673250D02*
X688000D01*
X670300Y151250D02*
X678000D01*
X650250Y171300D02*
X670300Y151250D01*
X755250Y193750D02*
X783000D01*
X780750Y118725D02*
X796075Y134050D01*
X650025Y172000D02*
X650500D01*
D26*
X361372Y70313D02*
Y70628D01*
X349500Y58441D02*
X361372Y70313D01*
X421074Y-9250D02*
X431074Y-19250D01*
Y-66888D02*
Y-19250D01*
X303750Y-20750D02*
X311500Y-13000D01*
Y-10750D01*
X354750Y-47279D02*
Y-17293D01*
X349500Y-12043D02*
X354750Y-17293D01*
X349500Y-12043D02*
Y-6250D01*
Y58441D01*
X469036Y-59965D02*
X481936Y-47065D01*
Y-24314D01*
X496250Y-10000D01*
X455552D02*
X456500Y-10948D01*
X443636Y-59965D02*
X456500Y-47101D01*
Y-10948D01*
X421074Y-13342D02*
Y-11965D01*
X431074Y-66888D02*
X438151Y-73965D01*
X570636Y-34565D02*
Y19794D01*
X561000Y29431D02*
X570636Y19794D01*
X378750Y-10000D02*
X380250Y-11500D01*
Y-40750D02*
Y-11500D01*
Y-40750D02*
X386565Y-47065D01*
X405336D02*
X418236Y-59965D01*
X386565Y-47065D02*
X405336D01*
X659336D02*
Y-14086D01*
X658543Y-13293D02*
X659336Y-14086D01*
X612157Y-24752D02*
X621436Y-34031D01*
X612157Y-24752D02*
Y-14070D01*
X629281Y-11250D02*
X634336Y-16306D01*
Y-47465D02*
Y-16306D01*
X610052Y-11965D02*
X612157Y-14070D01*
X621436Y-34565D02*
Y-34031D01*
X659336Y-47065D02*
X672236Y-59965D01*
X634336Y-47465D02*
X646836Y-59965D01*
X586500Y-24222D02*
X596036Y-33758D01*
X570636Y31884D02*
X586500Y16020D01*
Y-24222D02*
Y16020D01*
X596036Y-34565D02*
Y-33758D01*
X570636Y85886D02*
X577250Y92500D01*
X570636Y31884D02*
Y85886D01*
X561000Y98500D02*
X579000Y116500D01*
X561000Y29431D02*
Y98500D01*
X691074Y-11965D02*
X697636Y-18528D01*
X716074Y-27603D02*
Y-11965D01*
X596036Y-59965D02*
X597000Y-60929D01*
X697500Y-60101D02*
X697636Y-59965D01*
X519750Y-60051D02*
X519836Y-59965D01*
X354750Y-47279D02*
X367436Y-59965D01*
X303750Y-47451D02*
Y-20750D01*
X291236Y-59965D02*
X303750Y-47451D01*
X291236Y-34565D02*
X291250Y-34551D01*
X438151Y-73965D02*
X480074D01*
X494074Y-59965D02*
X494436D01*
X480074Y-73965D02*
X494074Y-59965D01*
X291236Y-34565D02*
X291655Y-34146D01*
X716074Y-27603D02*
X723036Y-34565D01*
X697636D02*
Y-18528D01*
X810383Y63367D02*
X810500Y63250D01*
X810383Y63367D02*
Y82718D01*
X810266Y82835D02*
X810383Y82718D01*
X267000Y249000D02*
X285750D01*
X650750Y193750D02*
X681300D01*
X625250Y194000D02*
X650500D01*
X619500Y188250D02*
X625250Y194000D01*
X650500D02*
X650750Y193750D01*
D27*
X736786Y147000D02*
Y148007D01*
Y101286D02*
Y147000D01*
X326250Y-18779D02*
X342036Y-34565D01*
X326250Y-18779D02*
Y66250D01*
X324500Y68000D02*
X326250Y66250D01*
X519836Y-34565D02*
X535395Y-19006D01*
Y-12105D01*
X537500Y-10000D01*
X494436Y-34565D02*
Y-33940D01*
X517750Y-10626D01*
Y-10000D01*
X469036Y-34565D02*
Y-19941D01*
X476000Y-12977D01*
Y-10000D01*
X672543Y-34258D02*
Y37043D01*
X672236Y-34565D02*
X672543Y-34258D01*
Y37043D02*
X736786Y101286D01*
X727000Y169196D02*
X731600D01*
X726000Y168196D02*
X727000Y169196D01*
X726000Y157342D02*
Y168196D01*
X717250Y148592D02*
X726000Y157342D01*
X717250Y147000D02*
Y148592D01*
X291250Y-34551D02*
Y-11250D01*
X418236Y-34565D02*
Y-29736D01*
X400750Y-12250D02*
X418236Y-29736D01*
X400750Y-12250D02*
Y-9250D01*
D28*
X597000Y-82000D02*
Y-60929D01*
X697500Y-83500D02*
Y-60101D01*
X519750Y-81250D02*
Y-60051D01*
X342036Y-59965D02*
X342500Y-60429D01*
Y-82798D02*
Y-60429D01*
X265836Y-34565D02*
X266000Y-34401D01*
Y-13644D01*
X392836Y-59965D02*
X393250Y-60379D01*
Y-81789D02*
Y-60379D01*
D29*
X742750Y319000D02*
D03*
X742250Y237750D02*
D03*
D30*
X742750Y299000D02*
D03*
X742250Y257750D02*
D03*
D31*
X748436Y-34565D02*
D03*
Y-59965D02*
D03*
X646836Y-34565D02*
D03*
Y-59965D02*
D03*
X545236Y-34565D02*
D03*
Y-59965D02*
D03*
X443636Y-34565D02*
D03*
Y-59965D02*
D03*
X342036Y-34565D02*
D03*
Y-59965D02*
D03*
X672236Y-34565D02*
D03*
X697636D02*
D03*
X672236Y-59965D02*
D03*
X697636D02*
D03*
X596036Y-34565D02*
D03*
X621436D02*
D03*
X596036Y-59965D02*
D03*
X621436D02*
D03*
X494436Y-34565D02*
D03*
X519836D02*
D03*
X494436Y-59965D02*
D03*
X519836D02*
D03*
X418236Y-34565D02*
D03*
X469036D02*
D03*
X418236Y-59965D02*
D03*
X469036D02*
D03*
X367436Y-34565D02*
D03*
X392836D02*
D03*
X367436Y-59965D02*
D03*
X392836D02*
D03*
X265836Y-34565D02*
D03*
X291236D02*
D03*
Y-59965D02*
D03*
X570636Y-34565D02*
D03*
X723036D02*
D03*
X570636Y-59965D02*
D03*
X723036D02*
D03*
X316636Y-34565D02*
D03*
Y-59965D02*
D03*
X713750Y98750D02*
D03*
X688750D02*
D03*
X663750D02*
D03*
X638750D02*
D03*
X613750D02*
D03*
X543826Y34035D02*
D03*
X518826D02*
D03*
X493826D02*
D03*
X468826D02*
D03*
X443826D02*
D03*
X806750Y286500D02*
D03*
Y311500D02*
D03*
X406250Y289500D02*
D03*
Y314500D02*
D03*
X272750Y289250D02*
D03*
Y314250D02*
D03*
X206000Y288500D02*
D03*
Y313500D02*
D03*
X364250Y34000D02*
D03*
X389250D02*
D03*
X693074Y34035D02*
D03*
X718074D02*
D03*
X613250Y34250D02*
D03*
X638250D02*
D03*
X205250Y23750D02*
D03*
Y48750D02*
D03*
X270250Y24250D02*
D03*
Y49250D02*
D03*
X206750Y183000D02*
D03*
Y208000D02*
D03*
Y103250D02*
D03*
Y128250D02*
D03*
X338000Y288250D02*
D03*
Y313250D02*
D03*
X490000Y205250D02*
D03*
Y223750D02*
D03*
X347250Y246750D02*
D03*
Y228250D02*
D03*
X272500Y204250D02*
D03*
Y184250D02*
D03*
X275500Y125500D02*
D03*
Y105500D02*
D03*
X488750Y292750D02*
D03*
Y312750D02*
D03*
X474000Y122250D02*
D03*
X550000D02*
D03*
X755250Y193750D02*
D03*
X519250Y280250D02*
D03*
X566020Y289706D02*
D03*
X361372Y70628D02*
D03*
X311500Y-10750D02*
D03*
X455552Y-10000D02*
D03*
X476000D02*
D03*
X496250D02*
D03*
X517750D02*
D03*
X537500D02*
D03*
X658543Y-11250D02*
D03*
X610052D02*
D03*
X629281D02*
D03*
X717250Y147000D02*
D03*
X736786D02*
D03*
X579000Y92500D02*
D03*
Y116500D02*
D03*
X691074Y-11965D02*
D03*
X716074D02*
D03*
X291250Y-11250D02*
D03*
X302250Y228250D02*
D03*
X391000Y193250D02*
D03*
X452250Y194000D02*
D03*
X324500Y68000D02*
D03*
X706250Y257750D02*
D03*
X378750Y-10000D02*
D03*
X400750Y-9250D02*
D03*
X707000Y306000D02*
D03*
X492000Y262250D02*
D03*
X708000Y284750D02*
D03*
X678000Y151250D02*
D03*
X421074Y-9250D02*
D03*
X236000Y-11500D02*
D03*
D32*
X265836Y-59965D02*
D03*
D33*
X827480Y194900D02*
D03*
X346250Y194000D02*
D03*
D34*
X797074Y-51965D02*
D03*
X217074D02*
D03*
M02*
